<?xml version="1.0" standalone="no"?>
<!DOCTYPE svg PUBLIC "-//W3C//DTD SVG 1.1//EN" "http://www.w3.org/Graphics/SVG/1.1/DTD/svg11.dtd" >
<svg xmlns="http://www.w3.org/2000/svg" xmlns:xlink="http://www.w3.org/1999/xlink" version="1.1">
<metadata>
Created by FontForge 20191125 at Wed Aug 12 03:27:23 2020
 By convertio
Created by JavaPep,,, with FontForge 2.0 (http://fontforge.sf.net)
</metadata>
<defs>
<font id="Metafiz-Bold" horiz-adv-x="635" >
  <font-face 
    font-family="Metafiz"
    font-weight="700"
    font-stretch="normal"
    units-per-em="1024"
    panose-1="2 0 8 3 0 0 0 0 0 0"
    ascent="819"
    descent="-205"
    x-height="456"
    cap-height="708"
    bbox="-83.0769 -279.235 953 949"
    underline-thickness="51"
    underline-position="-152"
    unicode-range="U+0020-E000"
  />
<missing-glyph horiz-adv-x="374" 
d="M34 0v682h272v-682h-272zM68 34h204v614h-204v-614z" />
    <glyph glyph-name="gj" unicode="gj" horiz-adv-x="867" 
d="M649 -279h-5q-62 0 -105 39q-4 4 -2 10.5t7 9t11 -1.5q37 -32 60 -22q36 16 38 112v436h1v84q0 36 -49 36h-10v11l219 21v-574q0 -83 -48.5 -122t-116.5 -39zM734 728q38 0 65 -27t27 -65t-27 -65.5t-65 -27.5t-65.5 27.5t-27.5 65.5t27.5 65t65.5 27zM134 -78
q-27 -24 -22.5 -56t24 -61t59 -49.5t83.5 -20.5q48 0 84.5 11.5t53 28.5t27.5 37t9 37t-3 28q-11 35 -149 34h-10h-37h-60q-31 0 -59 11zM245 454q-29 0 -50.5 -27.5t-21.5 -99.5v-97q0 -72 22 -100t50 -28q29 0 51 28.5t22 99.5v97q0 71 -22 99t-51 28zM71 180
q-28 46 -28 98q1 85 64.5 140t137.5 55q50 0 100 -28q38 65 108 65h4q51 -2 81 -33q14 -13 17.5 -33t-5.5 -32q-10 -15 -29.5 -19.5t-42.5 8.5q-14 10 -22 35.5t-18 37t-36 -0.5q-24 -15 -38 -40q83 -60 84 -155q0 -57 -32 -103t-78 -69t-93 -23q-42 0 -85.5 20.5
t-73.5 56.5q-8 -27 -8 -53t20.5 -47t58.5 -24q33 -3 67 -3h154q57 0 100.5 -27t54.5 -82q12 -64 -26.5 -116.5t-115.5 -72.5q-41 -11 -110 -13.5t-109 3.5q-58 8 -100 31t-50 62q-7 34 16.5 65.5t67.5 52.5q-62 39 -74 110.5t39 133.5z" />
    <glyph glyph-name=".notdef" horiz-adv-x="374" 
d="M34 0v682h272v-682h-272zM68 34h204v614h-204v-614z" />
    <glyph glyph-name=".null" horiz-adv-x="0" 
 />
    <glyph glyph-name="nonmarkingreturn" horiz-adv-x="341" 
 />
    <glyph glyph-name="space" unicode=" " horiz-adv-x="256" 
 />
    <glyph glyph-name="exclam" unicode="!" horiz-adv-x="234" 
d="M117 106q26 0 44 -18t18 -43t-18.5 -43.5t-43.5 -18.5t-43 18t-18 44q0 25 18 43t43 18zM118 733q35 0 52.5 -30t13.5 -68l-49 -452h-34l-49 452q-3 39 14 68.5t52 29.5z" />
    <glyph glyph-name="quotedbl" unicode="&#x22;" horiz-adv-x="252" 
d="M83 733q15 0 24 -12t7 -29l-16 -145q-2 -11 -15 -11.5t-15 11.5l-17 145q-2 17 7.5 29t24.5 12zM171 733q15 0 24 -12t7 -29l-16 -145q-2 -11 -15 -11.5t-15 11.5l-17 145q-2 17 7.5 29t24.5 12z" />
    <glyph glyph-name="numbersign" unicode="#" horiz-adv-x="741" 
d="M323 415l-48 -136h145l47 136h-144zM380 699h42l-85 -244h144l86 244h42l-86 -244h168l-14 -40h-167l-48 -136l229 -1l-14 -39h-229l-86 -244h-42l86 244h-145l-86 -244h-42l86 244h-168l14 40h168l48 136h-230l14 40h230z" />
    <glyph glyph-name="dollar" unicode="$" horiz-adv-x="617" 
d="M324 247v-238q33 12 53.5 38t24 58.5t-16 70.5t-61.5 71zM293 697q-35 -7 -58.5 -32t-30 -56.5t11 -68t59.5 -64.5q3 -2 9 -5.5t9 -5.5v232zM293 777h32v-62q91 0 158 -50q41 -29 51 31h7l-5 -205h-11q-18 68 -43.5 112.5t-54.5 63.5t-51 25.5t-51 6.5v-255
q104 -70 165 -110q60 -39 73 -114t-25 -136q-31 -50 -79.5 -72.5t-134.5 -25.5v-63h-31v62q-113 0 -183 50q-42 29 -52 -31h-7v226h18q61 -229 204 -229q14 0 20 1v268q-142 98 -173 121q-53 39 -65 105t22 121q31 50 80 72t136 25v63z" />
    <glyph glyph-name="percent" unicode="%" horiz-adv-x="740" 
d="M538 291q-23 0 -41 -22.5t-18 -80.5v-78q0 -58 18 -81t41 -23q22 0 39.5 23t17.5 81v78q0 58 -17.5 80.5t-39.5 22.5zM538 302q56 0 103.5 -43.5t48.5 -110.5q1 -66 -47.5 -109.5t-104.5 -43.5t-105 43t-48 110t49 110.5t104 43.5zM204 688q-23 0 -41 -22.5t-18 -80.5
v-79q0 -58 18 -81t41 -23q22 0 40 23t18 81v79q0 58 -18 80.5t-40 22.5zM204 699q56 0 103.5 -43.5t48.5 -110.5q1 -66 -47.5 -110t-104.5 -44q-55 0 -104.5 43.5t-48.5 110.5t49 110.5t104 43.5zM517 713h43l-336 -703h-44z" />
    <glyph glyph-name="ampersand" unicode="&#x26;" horiz-adv-x="837" 
d="M420 709q14 0 31 -3q23 -5 40 -24t22 -43t-5 -50t-36 -43q-29 -19 -67 -39q20 -91 61 -183t94 -160q28 35 44 81q24 67 24 186h-1v15q0 36 -63 36v10h148v-10q-9 0 -16 -1q-47 -3 -48 -35q2 -134 -25 -208q-18 -49 -50 -90q44 -52 89 -78q35 -21 59 -12.5t36 31t13 52.5
h17q-5 -53 -33 -92t-66.5 -55.5t-82.5 -13t-80 30.5q-23 17 -49 46q-19 -16 -49 -34q-66 -37 -133.5 -43.5t-127.5 24.5t-92 100q-19 41 -21.5 87.5t12 93t55.5 90t103 72.5q6 3 15 7t21.5 9.5t20.5 9.5q-17 163 60 212q37 24 80 24zM430 695h-4q-56 -4 -27 -160q1 -2 1 -6
t1 -6q5 2 20 10t24 13q41 22 50 54q13 46 -20 76q-21 19 -45 19zM282 457q-15 -7 -33 -18q-57 -33 -62 -107.5t27 -143.5t89 -114.5t110 -26.5q23 8 48 28q-62 76 -114 182.5t-65 199.5z" />
    <glyph glyph-name="quotesingle" unicode="'" horiz-adv-x="164" 
d="M83 733q15 0 24 -12t7 -29l-16 -145q-2 -11 -15 -11.5t-15 11.5l-17 145q-2 17 7.5 29t24.5 12z" />
    <glyph glyph-name="parenleft" unicode="(" horiz-adv-x="280" 
d="M217 731l12 -11q-82 -122 -109.5 -282t2.5 -314.5t108 -268.5l-13 -11q-166 189 -166 443t166 444z" />
    <glyph glyph-name="parenright" unicode=")" horiz-adv-x="280" 
d="M63 731q166 -190 166 -444t-166 -443l-12 11q78 114 108 268.5t2.5 314.5t-109.5 282z" />
    <glyph glyph-name="asterisk" unicode="*" horiz-adv-x="355" 
d="M178 699q15 0 22.5 -10t5.5 -25l-20 -94l70 67q28 22 44 -5q17 -27 -15 -42l-93 -35l93 -35q32 -15 15 -42q-16 -27 -44 -5l-70 66l20 -94q2 -15 -5.5 -24.5t-22.5 -9.5t-22.5 9.5t-5.5 24.5l20 95l-70 -67q-28 -22 -44 5q-17 28 14 42l94 35l-94 35q-31 14 -14 42
q16 27 44 5l70 -67l-20 94q-2 15 5.5 25t22.5 10z" />
    <glyph glyph-name="plus" unicode="+" horiz-adv-x="498" 
d="M228 440h44l-1 -177h177v-44h-177v-176h-44l1 177h-177v43h177v177z" />
    <glyph glyph-name="comma" unicode="," horiz-adv-x="225" 
d="M112 106q28 0 45 -20t17 -51q0 -148 -120 -148v10q45 0 64 46q13 29 2 39q-1 1 -3 1h-5q-25 0 -43 18t-18 44q0 25 17.5 43t43.5 18z" />
    <glyph glyph-name="hyphen" unicode="-" horiz-adv-x="392" 
d="M341 243v-65l-290 1v64h290z" />
    <glyph glyph-name="period" unicode="." horiz-adv-x="225" 
d="M112 106q26 0 44 -18t18 -43t-18 -43.5t-44 -18.5q-25 0 -43 18t-18 44q0 25 17.5 43t43.5 18z" />
    <glyph glyph-name="slash" unicode="/" horiz-adv-x="329" 
d="M298 699h42l-247 -704h-42z" />
    <glyph glyph-name="zero" unicode="0" horiz-adv-x="562" 
d="M281 703q-36 0 -60 -29.5t-39 -109.5t-15 -213q0 -196 29 -274t85 -78q37 0 61 29t39 109t15 214q0 133 -15 213t-39 109.5t-61 29.5zM281 719q46 0 89 -19.5t81.5 -60t62 -115t23.5 -173.5t-23.5 -174t-62 -115.5t-81.5 -59.5t-89 -19q-36 0 -70.5 11t-68.5 38.5
t-59.5 68.5t-41 105.5t-15.5 144.5t15.5 144t41 105t59.5 68.5t68.5 39t70.5 11.5z" />
    <glyph glyph-name="one" unicode="1" horiz-adv-x="353" 
d="M328 5v-10h-269v10q56 0 56 36v520q0 20 -7 24t-42 3q-24 -1 -40 -1v12q40 0 77 11t61.5 26.5t42.5 31.5t27 27l8 11h28v-665q1 -36 58 -36z" />
    <glyph glyph-name="two" unicode="2" horiz-adv-x="583" 
d="M306 720q49 0 89 -9.5t75.5 -32t56 -65t21.5 -102.5q2 -90 -64 -156t-238 -144q-87 -40 -139 -102q28 4 75 4t77 -0.5t96 -4t77 -3.5q49 -2 80 17t31 54h10q-1 -7 -2.5 -37t-3 -43t-9 -37t-19 -35.5t-34.5 -21t-54 -9.5q-30 0 -119.5 5.5t-140 6t-145.5 -9.5
q-1 15 4 34.5t21.5 52.5t60.5 74.5t111 81.5q62 38 103.5 93.5t54.5 112.5t8.5 109.5t-32 89.5t-69.5 48q-24 9 -71 1.5t-74 -33.5q-25 -24 -27.5 -42.5t12.5 -43t17 -33.5q9 -30 -12.5 -50.5t-50 -12.5t-35.5 45q-12 62 45 122.5t141 70.5q40 5 73 5z" />
    <glyph glyph-name="three" unicode="3" horiz-adv-x="574" 
d="M301 720q98 0 162 -48.5t56 -140.5q-4 -47 -40 -85.5t-107 -55.5q176 -27 177 -184q1 -98 -77 -159.5t-177 -63.5h-39q-102 0 -170 55.5t-59 125.5q5 37 32.5 46t50.5 -11t15 -50q-2 -10 -15.5 -32.5t-10.5 -39t29 -39.5q29 -25 77.5 -33.5t87.5 -0.5q31 6 52.5 30
t31 57.5t12.5 61t3 54.5q0 28 -5 54t-17 54t-37.5 42t-62.5 9v13q0 3 -0.5 8.5t-0.5 8.5q43 1 76 30t45.5 71t12 85t-25 76t-66.5 40q-40 7 -83 -0.5t-65 -32.5q-5 -5 -7.5 -10.5t-3.5 -12t-1.5 -11t1.5 -13.5t3 -13t4.5 -15.5t4.5 -15.5q8 -28 -11.5 -44.5t-44.5 -9
t-30 36.5q-11 67 50 115t173 48z" />
    <glyph glyph-name="four" unicode="4" horiz-adv-x="576" 
d="M549 5v-10h-269v10q56 0 56 36v136h-310v23q68 62 110.5 131t54.5 131t8 113.5t-22 90.5q-10 22 5 37.5t39 15.5q41 0 49 -40q27 -129 -34 -246.5t-185 -232.5h285v394q40 4 73.5 23.5t46.5 36.5l14 17h22v-471h60v-23h-60v-136q1 -36 57 -36z" />
    <glyph glyph-name="five" unicode="5" horiz-adv-x="574" 
d="M395 705q31 0 54 -9.5t34.5 -21t19 -35.5t9 -37t3 -43t2.5 -37h-9q0 35 -31 54t-80 17q-16 -1 -64 -3.5t-71 -3t-59.5 -1t-63.5 1.5t-50 6v-208q70 53 193 53q264 -1 267 -218q1 -102 -77.5 -168.5t-176.5 -68.5h-39q-103 2 -170.5 57t-58.5 124q5 37 32.5 46t50.5 -11
t15 -50q-2 -10 -15.5 -32.5t-10.5 -39t29 -39.5q29 -25 77.5 -33.5t87.5 -0.5q99 20 99 231q0 177 -111 179q-129 0 -192 -60l-23 -23v31l-1 1l1 1v338q88 -10 125.5 -9.5t103.5 6.5t100 6z" />
    <glyph glyph-name="six" unicode="6" horiz-adv-x="588" 
d="M314 423q-62 0 -104 -54q-36 -46 -36 -147q0 -92 30.5 -156.5t81.5 -70.5q10 -1 21 0q52 6 84.5 72t32.5 156q0 200 -110 200zM353 719q92 0 140.5 -53.5t28.5 -127.5q-8 -29 -35 -36t-47 11.5t-12 49.5q3 10 17 39t11.5 45.5t-24.5 34.5q-51 41 -134 13
q-66 -22 -96.5 -113t-30.5 -218q52 85 156 85q109 0 172.5 -61t63.5 -165q0 -119 -73 -179.5t-189 -60.5h-4h-5q-112 0 -179 66q-44 43 -66.5 123t-21.5 165.5t21 159.5q20 75 76 136q81 86 231 86z" />
    <glyph glyph-name="seven" unicode="7" horiz-adv-x="486" 
d="M147 705q34 0 96 -5.5t96.5 -6t121.5 9.5q0 -45 -17.5 -96t-44 -104.5t-54 -115.5t-50 -153t-29.5 -194q-2 -39 -42 -53t-79 9t-39 75q0 57 20 106.5t54.5 92t72 85t80.5 105t72 130.5q-26 -4 -59 -4.5t-58.5 0.5t-70.5 3.5t-71 3.5q-49 2 -80 -17t-31 -54h-9q1 8 2 37
t2.5 43t9 37.5t19 35t34.5 21t54 9.5z" />
    <glyph glyph-name="eight" unicode="8" horiz-adv-x="539" 
d="M214 362q-42 -18 -62.5 -70t-20.5 -107q0 -75 37 -132t93 -57q42 1 74.5 34.5t46.5 82.5q21 77 -19.5 132.5t-133.5 108.5q-3 2 -8 4t-7 4zM280 706q-52 0 -80.5 -42t-15.5 -102q6 -26 20 -47t37 -38t34 -23.5t33 -17.5q28 21 47 59.5t21 75.5q7 135 -96 135zM270 720
q90 0 137.5 -37t47.5 -109q0 -42 -28.5 -77.5t-54.5 -50.5t-45 -21q5 -3 28 -15.5t30.5 -17t27.5 -17t27.5 -20.5t23 -22t21.5 -26.5t14.5 -29t11.5 -36t3 -40.5q0 -92 -69.5 -155t-183.5 -63q-100 0 -167.5 63.5t-67.5 154.5q0 40 16.5 72.5t43.5 53t52.5 33t51.5 18.5
q-121 86 -114 197q4 67 59 106t135 39z" />
    <glyph glyph-name="nine" unicode="9" horiz-adv-x="588" 
d="M165 479q0 -188 93 -199q74 -9 121 53q36 46 36 147q0 97 -32.5 162.5t-89.5 65.5q-58 0 -93 -67t-35 -162zM288 719h4h5q111 0 179 -66q44 -43 66.5 -123t21.5 -165.5t-21 -159.5q-20 -75 -76 -136q-81 -86 -231 -86q-92 0 -140.5 53.5t-28.5 127.5q8 29 35 36t47 -11.5
t12 -49.5q-3 -10 -17 -39t-11.5 -45.5t24.5 -34.5q51 -41 134 -13q66 22 96.5 113t30.5 218q-52 -85 -156 -85q-109 0 -172.5 61t-63.5 165q0 119 73 179.5t189 60.5z" />
    <glyph glyph-name="colon" unicode=":" horiz-adv-x="225" 
d="M112 106q26 0 44 -18t18 -43t-18 -43.5t-44 -18.5q-25 0 -43 18t-18 44q0 25 17.5 43t43.5 18zM112 464q26 0 44 -18t18 -43t-18 -43.5t-44 -18.5q-25 0 -43 18t-18 44q0 25 17.5 43t43.5 18z" />
    <glyph glyph-name="semicolon" unicode=";" horiz-adv-x="225" 
d="M112 106q28 0 45 -20t17 -51q0 -148 -120 -148v10q45 0 64 46q13 29 2 39q-1 1 -3 1h-5q-25 0 -43 18t-18 44q0 25 17.5 43t43.5 18zM112 464q26 0 44 -18t18 -43t-18 -43.5t-44 -18.5q-25 0 -43 18t-18 44q0 25 17.5 43t43.5 18z" />
    <glyph glyph-name="less" unicode="&#x3c;" horiz-adv-x="645" 
d="M595 488v-43l-485 -204l485 -203v-43l-544 232v29z" />
    <glyph glyph-name="equal" unicode="=" horiz-adv-x="535" 
d="M51 330l434 -1v-43h-434v44zM51 197h434v-44h-434v44z" />
    <glyph glyph-name="greater" unicode="&#x3e;" horiz-adv-x="645" 
d="M51 488l544 -232v-29l-544 -232v43l485 203l-485 204v43z" />
    <glyph glyph-name="question" unicode="?" horiz-adv-x="527" 
d="M188 106q26 0 43.5 -18t17.5 -43q0 -26 -18 -44t-43 -18t-43 18t-18 44q0 25 17.5 43t43.5 18zM266 733q92 0 153 -44.5t57 -131.5q-2 -46 -19 -80.5t-42 -56t-55 -39t-59 -34t-52.5 -37t-37.5 -52.5t-13 -75h-27q0 4 -0.5 23t0 26.5t1.5 26t4 29t7.5 28t12.5 29.5
t18.5 26.5t25.5 27t34 23.5q48 28 69.5 76t15 93t-33 80t-65.5 40q-40 5 -79 -4t-59 -35q-12 -11 -9.5 -24.5t8 -21.5t17.5 -20q26 -28 2 -58q-22 -26 -52 -20q-25 5 -33 35q-18 63 40 116.5t171 53.5z" />
    <glyph glyph-name="at" unicode="@" horiz-adv-x="903" 
d="M478 524q-79 0 -110 -148q-17 -84 -5 -130.5t49 -51.5q35 -4 76.5 45.5t55.5 125.5q14 74 -2.5 113.5t-55.5 44.5q-2 0 -4 0.5t-4 0.5zM474 733q165 0 276 -109.5t101 -265.5q-4 -69 -33 -131q-28 -54 -83 -86t-124 -26q-52 5 -75 44t-10 95q-55 -89 -151 -89
q-66 0 -101.5 55.5t-21.5 142.5q8 51 32.5 89.5t56 58.5t62.5 29t58 7q88 -8 107 -72l9 49h89q-29 -156 -57 -300q-10 -54 19 -67.5t86 10.5q100 40 108 191q8 144 -94.5 249t-255.5 105q-147 0 -231 -101t-93 -253q-6 -98 22 -176t95 -127t166 -49t187 47l12 -21
q-92 -49 -201 -49q-165 0 -276 109.5t-101 265.5t133.5 265.5t288.5 109.5z" />
    <glyph glyph-name="A" unicode="A" horiz-adv-x="589" 
d="M208 468l-75 -235h150zM262 708h62q139 -434 208 -650q2 -7 7.5 -16.5t21 -21.5t34.5 -13v-10h-220h-74v10q23 1 32 14t8 24t-4 20l-46 145h-165l-58 -179q-4 -12 6.5 -18t26.5 -6v-10h-101v10q17 -1 29.5 7t15.5 17z" />
    <glyph glyph-name="B" unicode="B" horiz-adv-x="628" 
d="M283 350h-20v-331h84q51 0 81 44.5t30 121.5q0 75 -30.5 120t-80.5 45h-64zM263 685v-312h82q91 0 91 156t-91 156h-82zM20 708h351q91 0 143 -46.5t52 -132.5q0 -123 -103 -163q146 -31 146 -181q0 -99 -59.5 -144t-157.5 -45h-372v10q60 0 60 37v618q0 36 -60 36v11z
" />
    <glyph glyph-name="C" unicode="C" horiz-adv-x="581" 
d="M324 717q66 0 148 -52q11 -7 19.5 -9t18 7t13.5 34h7l-6 -206h-10q-19 69 -47.5 116t-59.5 66t-55.5 25t-45.5 2q-18 -3 -32.5 -12.5t-24.5 -27t-17.5 -33.5t-12 -43.5t-7 -45.5t-3.5 -51t-1.5 -47.5t0 -48t0.5 -40.5q0 -9 -0.5 -43.5t0 -48.5t1.5 -46.5t3.5 -49t7 -43.5
t12 -42.5t17.5 -33t24.5 -27.5t32.5 -15q16 -2 35.5 -2.5t44 14t47 36t44.5 64t37 98.5h10l4 -125q-94 -102 -204 -102q-128 0 -210.5 109t-82.5 257q0 147 81 254q83 112 212 112z" />
    <glyph glyph-name="D" unicode="D" horiz-adv-x="638" 
d="M263 685v-666q10 0 37 0.5t41 0.5q22 1 39.5 22t27.5 57t16.5 71.5t9 78t3 64t0.5 41.5q0 30 -4 76t-14.5 107.5t-34 104t-55.5 42.5q-10 0 -33 0.5t-33 0.5zM20 708h243h30.5t32.5 -0.5t15 -0.5q112 -6 190 -107.5t78 -247.5q0 -79 -25 -147.5t-64 -113t-86 -70
t-93 -25.5h-78h-243v10q59 0 59 37v618q0 36 -59 36v11z" />
    <glyph glyph-name="E" unicode="E" horiz-adv-x="561" 
d="M20 708h507v-217h-12q-13 73 -44 133.5t-78 60.5h-130v-321h44q37 0 62.5 38.5t34.5 81t9 80.5h17v-424h-17q0 38 -9 80.5t-34.5 81t-62.5 38.5h-44v-321h143q47 0 78 60.5t44 133.5h13v-217h-521v11q60 0 60 36v618q0 37 -60 37v10z" />
    <glyph glyph-name="F" unicode="F" horiz-adv-x="546" 
d="M20 7q60 0 60 36v618q0 37 -60 37v10h507v-217h-12q-13 73 -44 133.5t-78 60.5h-130v-321h44q37 0 62.5 38.5t34.5 81t9 80.5h17v-424h-17q0 38 -9 80.5t-34.5 81t-62.5 38.5h-44v-297q0 -37 59 -37v-10h-302v11z" />
    <glyph glyph-name="G" unicode="G" horiz-adv-x="627" 
d="M324 717q81 -2 148 -52q40 -31 51 32h7l-6 -206h-11q-19 69 -47 116t-58.5 66t-55 25t-47.5 2q-18 -3 -32 -12t-24 -26.5t-17.5 -34.5t-11.5 -46.5t-7 -49.5t-4 -57t-1 -56v-59v-9v-8q0 -174 2 -204q10 -116 67 -134q13 -4 28 -4q21 0 36 7.5t29 27t22 59t10 98.5v76
q-2 34 -59 34v10h254v-10q-59 0 -59 -37v-238q-11 19 -32 23.5t-40.5 -1t-34.5 -15.5q-55 -49 -126 -49q-114 0 -194.5 107t-80.5 258q0 150 81 255q89 112 213 112z" />
    <glyph glyph-name="H" unicode="H" horiz-adv-x="700" 
d="M20 708h302v-11h-6h-4q-49 -3 -49 -36v-316h175v316q0 36 -59 36v11h301v-11q-59 0 -59 -36v-619q0 -36 59 -36v-10h-301v10q59 0 59 36v280h-175v-280q0 -31 42 -36h17v-10h-302v10q60 0 60 36v619q0 33 -49 36h-11v11z" />
    <glyph glyph-name="I" unicode="I" horiz-adv-x="362" 
d="M31 708h302v-11h-7h-4q-49 -3 -49 -36v-619q0 -31 42 -36h18v-10h-302v10q59 0 59 36v619q0 33 -49 36h-10v11z" />
    <glyph glyph-name="J" unicode="J" horiz-adv-x="539" 
d="M217 708h302v-11q-59 0 -59 -36v-462q0 -214 -241 -214q-100 0 -159.5 47t-59.5 139q0 38 24 67t70 27q33 -2 56.5 -26t23.5 -61q0 -35 -29 -64q-48 -48 -18 -86q24 -29 69 -25q47 4 65 48q16 41 16 144v466q0 36 -60 36v11z" />
    <glyph glyph-name="K" unicode="K" horiz-adv-x="712" 
d="M21 708h301v-11q-59 0 -59 -36v-317l5 4l276 327q12 14 1.5 18t-27.5 4v10h113v-10q-37 0 -56 -22q-36 -43 -98.5 -116.5t-88.5 -104.5l254 -412q22 -36 60 -36v-10h-317v10q25 0 38 10t1 29l-161 261v-264q0 -36 59 -36v-10h-301v10q59 0 59 36v619q0 36 -59 36v11z" />
    <glyph glyph-name="L" unicode="L" horiz-adv-x="549" 
d="M20 708h302v-11q-59 0 -59 -36v-642h132q47 0 78 60.5t44 133.5h13v-217h-510v10q60 0 60 36v619q0 36 -60 36v11z" />
    <glyph glyph-name="M" unicode="M" horiz-adv-x="749" 
d="M253 708l122 -411l123 411h232v-11q-59 0 -59 -36v-619q0 -36 59 -36v-10h-302v10q59 0 59 36v546l-179 -594h-34l-180 605v-557q0 -36 50 -36v-10h-124v10q51 0 51 36v619q0 36 -51 36v11h233z" />
    <glyph glyph-name="N" unicode="N" horiz-adv-x="607" 
d="M222 708l292 -427v380q0 36 -50 36v11h124v-11q-50 0 -50 -36v-665h-50l-395 575v-529q0 -36 51 -36v-10h-124v10q50 0 50 36v619q0 36 -50 36v11h202z" />
    <glyph glyph-name="O" unicode="O" horiz-adv-x="651" 
d="M326 700q-24 0 -41.5 -9t-32.5 -32.5t-23 -70t-8 -116.5v-244q0 -70 8 -116.5t23 -70t32.5 -32.5t41.5 -9t41.5 9t32.5 32.5t23 70t8 116.5v244q0 70 -8 116.5t-23 70t-32.5 32.5t-41.5 9zM326 715q122 0 209 -107t87 -258t-87 -258t-209 -107t-208.5 107t-86.5 258
t86.5 258t208.5 107z" />
    <glyph glyph-name="P" unicode="P" horiz-adv-x="587" 
d="M263 684v-351h74q48 0 72.5 49t24.5 127t-24.5 126.5t-72.5 48.5h-74zM20 708h350q88 0 142.5 -57.5t54.5 -141.5t-54.5 -141.5t-142.5 -57.5h-107v-268q0 -36 59 -36v-10h-302v10q60 0 60 36v619q0 36 -60 36v11z" />
    <glyph glyph-name="Q" unicode="Q" horiz-adv-x="651" 
d="M326 715q122 0 208.5 -106.5t87.5 -257.5q0 -102 -43 -188.5t-114 -133.5q27 -25 47 -40.5t44 -28t45.5 -10.5t40.5 17q-19 -38 -39 -61t-36.5 -32.5t-36 -4.5t-33.5 13t-34 30.5t-32 39t-33 45.5q-36 -11 -72 -11q-122 0 -208 106.5t-86 258.5q0 151 86 257.5t208 106.5
zM326 700q-50 0 -77 -47t-27 -180v-245q0 -63 6 -105q19 24 41 30.5t47.5 -5t47 -28t51.5 -44.5q17 53 17 152v245q0 92 -15.5 144t-36.5 67.5t-54 15.5zM261 129q-15 0 -32 -11q10 -67 35 -92t62 -25q35 0 57 19q-75 109 -122 109z" />
    <glyph glyph-name="R" unicode="R" horiz-adv-x="630" 
d="M263 684v-351h74q48 0 72.5 49t24.5 127t-24.5 126.5t-72.5 48.5h-74zM21 708h349q88 0 142.5 -57.5t54.5 -141.5q0 -63 -32.5 -113.5t-88.5 -72.5q33 -17 53.5 -63t46.5 -144q7 -25 15 -36t15 -8.5t12.5 8.5t9.5 13l3 7l20 -11q-29 -108 -122 -108q-71 0 -103 107
q-40 137 -60 173q-25 46 -59 49h-14v-268q0 -36 59 -36v-10h-301v10q59 0 59 36v619q0 36 -59 36v11z" />
    <glyph glyph-name="S" unicode="S" horiz-adv-x="567" 
d="M300 715q89 0 159 -50q41 -29 51 32h7l-6 -206h-11q-19 70 -44.5 115t-55.5 64t-52.5 24.5t-51.5 5.5q-55 0 -90 -37.5t-26 -91.5t70 -94q16 -10 216 -143q59 -39 72 -114.5t-25 -136.5q-33 -54 -87.5 -76t-156.5 -22q-114 0 -184 50q-41 29 -51 -32h-8v227h17
q62 -230 205 -230q48 0 82.5 25.5t44.5 62.5t-12.5 84t-78.5 86q-131 91 -189 134q-54 39 -66 104.5t23 120.5q33 53 89 75.5t159 22.5z" />
    <glyph glyph-name="T" unicode="T" horiz-adv-x="610" 
d="M18 708h574v-217h-12q-13 73 -44 133.5t-78 60.5h-33q-29 0 -29 -15v-627q0 -36 59 -36v-10h-302v10q60 0 60 36v627q0 15 -29 15h-32q-47 0 -78 -60.5t-44 -133.5h-13z" />
    <glyph glyph-name="U" unicode="U" horiz-adv-x="650" 
d="M21 708h302v-11q-60 0 -60 -36v-466q0 -174 153 -174q67 0 103.5 45t36.5 109v486q0 36 -50 36v11h124v-11q-50 0 -50 -36q0 -77 -0.5 -231t-0.5 -231q0 -119 -62 -166.5t-174 -47.5q-53 0 -96.5 10t-83 33t-61.5 66.5t-22 104.5v462q0 36 -59 36v11z" />
    <glyph glyph-name="V" unicode="V" horiz-adv-x="594" 
d="M220 708h74v-11q-23 -1 -32 -14t-8 -24t4 -20l129 -402l140 436q4 12 -6.5 18t-26.5 6v11h101v-11q-17 1 -29.5 -6.5t-15.5 -16.5l-217 -677h-62q-139 433 -208 649q-2 7 -7.5 16.5t-21 21.5t-34.5 13v11h220z" />
    <glyph glyph-name="W" unicode="W" horiz-adv-x="930" 
d="M220 708h74v-11q-23 -1 -32 -14t-8 -24t4 -20l129 -402q25 78 75.5 235t75.5 235h36q2 -6 21 -68l128 -402l140 436q4 12 -6.5 18t-26.5 6v11h102v-11q-17 1 -29.5 -6.5t-15.5 -16.5l-217 -677h-63q-70 222 -136 428l-138 -428h-62q-139 433 -208 649q-2 7 -7.5 16.5
t-21 21.5t-34.5 13v11h220z" />
    <glyph glyph-name="X" unicode="X" horiz-adv-x="602" 
d="M466 708h101v-10q-27 0 -41 -18q-14 -22 -70 -114.5t-87 -142.5l174 -381q17 -36 59 -36v-10h-299v10q16 0 31.5 8.5t7.5 27.5l-104 227q-49 -80 -147 -242q-6 -12 3.5 -16.5t26.5 -4.5v-10h-101v10q29 0 44 22q31 51 89.5 146t73.5 120l-168 367q-17 36 -59 36v11h300
v-11q-16 0 -31.5 -8.5t-7.5 -27.5l97 -213q92 152 139 229l-1 -1q7 12 -3 17t-27 5v10z" />
    <glyph glyph-name="Y" unicode="Y" horiz-adv-x="590" 
d="M0 708h276v-11q-16 0 -31 -8.5t-8 -26.5l140 -307l145 321q5 12 -5 16.5t-26 4.5v10h101v-10q-34 0 -44 -21l-156 -344v-289q0 -37 59 -37v-10h-302v10q59 0 59 37v289l-149 329q-17 36 -59 36v11z" />
    <glyph glyph-name="Z" unicode="Z" horiz-adv-x="584" 
d="M49 708h531l-343 -689h178q47 0 78 60.5t44 133.5h12v-217h-528l342 689h-180q-47 0 -78 -60.5t-44 -133.5h-13z" />
    <glyph glyph-name="bracketleft" unicode="[" horiz-adv-x="214" 
d="M163 731l1 -21h-79v-845h79l-1 -21h-112v887h112z" />
    <glyph glyph-name="backslash" unicode="\" horiz-adv-x="350" 
d="M10 699h42l247 -704h-42z" />
    <glyph glyph-name="bracketright" unicode="]" horiz-adv-x="214" 
d="M51 731h113l-1 -866l1 -20h-1v-1h-112v21h79v845h-79v21z" />
    <glyph glyph-name="asciicircum" unicode="^" horiz-adv-x="390" 
d="M189 699h13l138 -288h-44l-100 210l-101 -210h-44z" />
    <glyph glyph-name="underscore" unicode="_" horiz-adv-x="703" 
d="M51 -39h601v-44h-601v44z" />
    <glyph glyph-name="grave" unicode="`" horiz-adv-x="280" 
d="M74 891q20 0 38 -20l117 -131h-20l-133 91q-39 30 -19 52q6 8 17 8z" />
    <glyph glyph-name="a" unicode="a" horiz-adv-x="487" 
d="M438 310v-222q0 -52 30 -52q10 0 26 8l4 -11q-50 -40 -119 -40q-85 0 -99 74q-50 -74 -138 -74q-56 0 -86 34.5t-30 79.5q0 48 27 80.5t70 46.5q12 4 36 11.5t35.5 12t29.5 13.5t27 19.5t17 27.5t10 39v23q0 32 -11.5 50.5t-32.5 18.5q-1 0 -3 -0.5t-4 -0.5
q-39 -6 -69 -24q-17 -12 -17 -25q0 -9 12.5 -26t12.5 -28q0 -25 -14 -38.5t-34 -13.5q-19 0 -31.5 14.5t-12.5 36.5q0 20 13 39q59 90 178 90q83 0 128 -43t45 -120zM278 288q-17 -24 -47 -40q-79 -53 -85 -117q0 -3 -0.5 -7.5t-0.5 -7.5q0 -36 16 -57.5t41 -21.5
q39 0 76 49v202z" />
    <glyph glyph-name="b" unicode="b" horiz-adv-x="658" 
d="M375 451q-41 0 -81 -38q-30 -29 -41.5 -72t-12.5 -108q1 -65 12.5 -108t41.5 -72q48 -46 100 -36q76 15 76 216q0 218 -95 218zM633 235v-3q-1 -112 -69 -175.5t-170 -63.5q-111 0 -155 101v-98h-219v10q59 0 59 37v618q0 35 -48 35h-11v12l219 20v-355q42 97 147 100
q104 5 175 -60t72 -178z" />
    <glyph glyph-name="c" unicode="c" horiz-adv-x="489" 
d="M274 473q142 0 187 -97q8 -16 8 -32q0 -22 -13.5 -37t-32.5 -15t-33.5 13.5t-12.5 39.5q1 9 6 19t9.5 17t3.5 17t-11 20q-18 18 -48.5 28t-62.5 4q-16 -3 -28.5 -13t-19.5 -28.5t-11 -34t-5.5 -44t-2 -43t-0.5 -44.5q0 -29 0.5 -45.5t2 -45.5t6 -47t11.5 -38.5t19 -31.5
t28 -14q31 -6 65.5 3.5t54.5 28.5q35 32 48 87h25q-13 -65 -57 -104q-46 -43 -136 -43q-105 0 -173.5 63.5t-69.5 175.5v3q1 112 69.5 175t173.5 63z" />
    <glyph glyph-name="d" unicode="d" horiz-adv-x="648" 
d="M188 233q0 -201 76 -216q52 -10 100 36q30 29 41.5 72t12.5 108q-1 65 -12.5 108t-41.5 72q-40 38 -81 38q-95 0 -95 -218zM638 6v-10h-220v96q-44 -99 -154 -99q-101 0 -169 63.5t-69 175.5v3q1 112 68.5 175t169.5 63q110 0 154 -98v286q0 35 -48 35h-10v12l219 20
v-685q1 -37 59 -37z" />
    <glyph glyph-name="e" unicode="e" horiz-adv-x="496" 
d="M294 451q-13 0 -20 -1q-40 -8 -53 -55.5t-14 -124.5h169q-4 181 -82 181zM274 473q92 0 137 -42q63 -59 65 -185l-6 1h-263v-4q0 -35 0.5 -55.5t4 -55.5t10 -55.5t20 -38t32.5 -21.5q31 -6 65.5 5.5t55.5 30.5q35 32 48 87h24q-13 -66 -56 -104q-21 -20 -59.5 -31.5
t-77.5 -11.5q-105 0 -173.5 63.5t-69.5 175.5v3q1 112 69.5 175t173.5 63z" />
    <glyph glyph-name="f" unicode="f" horiz-adv-x="397" 
d="M243 728h5q59 0 105 -39q24 -21 43 -55q9 -17 11 -36q1 -22 -11 -38t-31 -17t-31 11.5t-12 34.5q0 15 8.5 28t15.5 20t3 18.5t-26 27.5q-36 26 -59.5 -1t-24.5 -101v-96h101v-23h-101v-419q1 -37 59 -37v-10h-278v10q59 0 59 37v419h-57v23h56v29v53q0 83 48.5 122
t116.5 39z" />
    <glyph glyph-name="g" unicode="g" horiz-adv-x="566" 
d="M134 -78q-27 -24 -22.5 -56t24 -61t59 -49.5t83.5 -20.5q48 0 84.5 11.5t53 28.5t27.5 37t9 37t-3 28q-11 35 -149 34h-10h-37h-60q-31 0 -59 11zM245 454q-29 0 -50.5 -27.5t-21.5 -99.5v-97q0 -72 22 -100t50 -28q29 0 51 28.5t22 99.5v97q0 71 -22 99t-51 28zM71 180
q-28 46 -28 98q1 85 64.5 140t137.5 55q50 0 100 -28q38 65 108 65h4q51 -2 81 -33q14 -13 17.5 -33t-5.5 -32q-10 -15 -29.5 -19.5t-42.5 8.5q-14 10 -22 35.5t-18 37t-36 -0.5q-24 -15 -38 -40q83 -60 84 -155q0 -57 -32 -103t-78 -69t-93 -23q-42 0 -85.5 20.5
t-73.5 56.5q-8 -27 -8 -53t20.5 -47t58.5 -24q33 -3 67 -3h154q57 0 100.5 -27t54.5 -82q12 -64 -26.5 -116.5t-115.5 -72.5q-41 -11 -110 -13.5t-109 3.5q-58 8 -100 31t-50 62q-7 34 16.5 65.5t67.5 52.5q-62 39 -74 110.5t39 133.5z" />
    <glyph glyph-name="h" unicode="h" 
d="M566 307v-264q1 -37 60 -37v-10h-278v10q58 0 58 37v344q0 29 -11 42.5t-28 12t-33.5 -9.5t-30.5 -20q-45 -38 -64 -122v-247q1 -37 59 -37v-10h-278v10q59 0 59 37v618q0 35 -48 35h-11v12l219 20v-365q18 40 49 66q46 40 109 40h5q67 0 115.5 -39t48.5 -123z" />
    <glyph glyph-name="i" unicode="i" horiz-adv-x="308" 
d="M298 6v-10h-278v10q59 0 59 37v345q0 36 -49 36h-10v11l219 21v-413q1 -37 59 -37zM159 728q38 0 65 -27t27 -65t-27 -65.5t-65 -27.5t-65.5 27.5t-27.5 65.5t27.5 65t65.5 27z" />
    <glyph glyph-name="j" unicode="j" horiz-adv-x="300" 
d="M82 -279h-5q-59 0 -105 39q-24 21 -43 55q-11 19 -12 36q-1 22 11 38t31 17t31.5 -11.5t12.5 -34.5q0 -15 -8.5 -28t-15.5 -20t-3 -18.5t26 -27.5q36 -26 59.5 1t24.5 101v436v84q0 36 -48 36h-10v11l218 21v-574q0 -83 -48 -122t-116 -39zM166 728q38 0 65.5 -27
t27.5 -65t-27.5 -65.5t-65.5 -27.5t-65 27.5t-27 65.5t27 65t65 27z" />
    <glyph glyph-name="k" unicode="k" horiz-adv-x="591" 
d="M565 456v-10q-19 0 -40 -12l-156 -91l178 -302q7 -12 26.5 -23t39.5 -12v-10h-287v10q27 0 34 14.5t-3 27.5l-118 201v-206q1 -37 59 -37v-10h-278v10q59 0 59 37v618q0 35 -48 35h-11v12l219 20v-434l240 140q10 5 1 10q-4 2 -10 2v10h95z" />
    <glyph glyph-name="l" unicode="l" horiz-adv-x="308" 
d="M298 6v-10h-278v10q59 0 59 37v618q0 35 -49 35h-10v12l219 20v-685q1 -37 59 -37z" />
    <glyph glyph-name="m" unicode="m" horiz-adv-x="963" 
d="M894 307v-264q1 -37 59 -37v-10h-277v10q58 0 58 37v344q0 29 -11.5 42.5t-28 12t-33.5 -9.5t-31 -20q-43 -37 -63 -121v-248q1 -37 59 -37v-10h-278v10q59 0 59 37v344q0 29 -11.5 42.5t-28 12t-33.5 -9.5t-31 -20q-45 -38 -64 -122v-247q1 -37 59 -37v-10h-277v10
q58 0 58 37v345q0 36 -48 36h-10v11l218 21v-93q18 40 49 66q46 40 109 40h5q57 0 102 -28t58 -88q19 47 53 76q46 40 110 40h4q68 0 116.5 -39.5t48.5 -122.5z" />
    <glyph glyph-name="n" unicode="n" 
d="M566 307v-264q1 -37 60 -37v-10h-278v10q58 0 58 37v344q0 29 -11 42.5t-28 12t-33.5 -9.5t-30.5 -20q-45 -38 -64 -122v-247q1 -37 59 -37v-10h-278v10q59 0 59 37v345q0 36 -48 36h-11v11l219 21v-93q18 40 49 66q46 40 109 40h5q67 0 115.5 -39t48.5 -123z" />
    <glyph glyph-name="o" unicode="o" horiz-adv-x="536" 
d="M269 473q87 0 162.5 -66.5t75.5 -173.5t-75 -173.5t-163 -66.5t-163 66.5t-75 173.5t75 173.5t163 66.5zM269 456q-33 0 -58 -34.5t-25 -123.5v-130q0 -89 25 -123t58 -34t57.5 34t24.5 123v130q0 89 -24.5 123.5t-57.5 34.5z" />
    <glyph glyph-name="p" unicode="p" horiz-adv-x="657" 
d="M374 451q-41 0 -81 -38q-52 -50 -54 -173v-13q2 -124 54 -174q48 -46 100 -36q76 15 76 216q0 218 -95 218zM239 91v-320q1 -37 59 -37v-11h-277v11q58 0 58 37v617q0 36 -48 36h-10v11l218 21v-81q44 98 154 98q102 0 170 -63t69 -175v-3q-1 -112 -69 -175.5t-170 -63.5
q-110 0 -154 98z" />
    <glyph glyph-name="q" unicode="q" horiz-adv-x="657" 
d="M188 233q0 -201 76 -216q52 -10 100 36q52 50 54 173v15q-1 62 -12.5 103t-41.5 69q-40 38 -81 38q-95 0 -95 -218zM418 375v81l219 -21v-11h-10q-48 0 -48 -36v-617q0 -37 58 -37v-11h-278v11q58 0 59 37v320q-44 -98 -154 -98q-101 0 -169 63.5t-69 175.5v3
q1 112 68.5 175t169.5 63q110 0 154 -98z" />
    <glyph glyph-name="r" unicode="r" horiz-adv-x="500" 
d="M490 344q0 -22 -13 -37t-30 -15q-22 0 -36.5 13.5t-13.5 39.5q1 15 11.5 31.5t19.5 26.5t7 21t-22 19q-19 6 -51 3q-11 -1 -25.5 -7.5t-33.5 -22t-36.5 -47.5t-27.5 -75v-251q1 -37 59 -37v-10h-278v10q59 0 59 37v345q0 36 -48 36h-11v11l219 21v-92q25 52 59 76.5
t62 27.5q16 2 21 2q55 0 82 -34t27 -92z" />
    <glyph glyph-name="s" unicode="s" horiz-adv-x="429" 
d="M196 473q47 0 74 -7.5t61 -31.5q13 -13 23.5 -8.5t17.5 40.5h8v-136h-10q-35 124 -152 124q-85 0 -85 -58q0 -23 33 -47t98 -54t76 -36q47 -26 60.5 -71t2.5 -89q-12 -46 -56 -76t-112 -30q-100 0 -156 39q-13 13 -23 8.5t-17 -40.5h-8v137h9q35 -124 175 -124
q85 0 89 52q1 29 -27 52t-93 52t-82 39q-43 24 -60.5 69t-7.5 88.5t53 75.5t109 32z" />
    <glyph glyph-name="t" unicode="t" horiz-adv-x="427" 
d="M79 157v305h-58v23h58v77q0 36 -48 36h-10v11l219 21v-145h126v-23h-126v-113v-203q0 -67 19 -96t48 -19q36 18 55 46q11 20 10.5 25.5t-7 18t-6.5 24.5t8.5 21.5t20.5 9.5t20.5 -8.5t8.5 -23.5q0 -5 -1 -8q-21 -66 -62 -101q-46 -39 -105 -39h-5q-68 0 -116.5 39
t-48.5 122z" />
    <glyph glyph-name="u" unicode="u" 
d="M626 6v-10h-220v106q-19 -41 -49 -67q-44 -39 -109 -39h-5q-67 0 -115.5 39t-48.5 122v231q0 36 -48 36h-11v11l219 21v-379q0 -29 11 -42.5t28 -12t33.5 9.5t30.5 20q45 38 64 122v214q0 36 -48 36h-10v11l218 21v-413q1 -37 60 -37z" />
    <glyph glyph-name="v" unicode="v" horiz-adv-x="508" 
d="M196 456h83v-11q-19 0 -29 -6.5t-11.5 -16.5t0 -18t4.5 -15l8 -17l90 -192l95 236q6 15 -3 22t-28 7v11h104v-11q-38 0 -46 -23q-28 -70 -84 -209.5t-84 -209.5h-48l-174 371q-1 1 -2 3.5t-3.5 7t-4.5 9.5q-25 49 -63 51v11h196z" />
    <glyph glyph-name="w" unicode="w" horiz-adv-x="774" 
d="M452 456h25l130 -276l95 236q6 15 -3 22t-28 7v11h104v-11q-38 0 -46 -23q-28 -70 -84 -209.5t-84 -209.5h-48l-118 250l-100 -250h-48l-174 371q-1 1 -2 3.5t-3.5 7t-4.5 9.5q-25 49 -63 51v11h196h83v-11q-19 0 -29 -6.5t-11.5 -16.5t0 -18t4.5 -15l7 -16
q15 -32 45.5 -96.5t45.5 -96.5z" />
    <glyph glyph-name="x" unicode="x" horiz-adv-x="504" 
d="M206 456h75v-11q-27 0 -33.5 -15t2.5 -27l54 -103l105 133q5 7 -1 10t-18 3v10h89v-10q-32 0 -44 -17l-119 -152l124 -236q7 -12 26 -23t39 -12v-10h-205h-76v10q27 0 34 15t-2 27l-63 120l-118 -150q-5 -7 1 -10t18 -3v-9h-89v9q32 0 44 17l132 168l-116 220
q-19 32 -65 35v11h206z" />
    <glyph glyph-name="y" unicode="y" horiz-adv-x="528" 
d="M215 456h84v-11q-19 0 -29 -6.5t-11.5 -16.5t0 -18t4.5 -15l7 -16q15 -32 45.5 -96.5t45.5 -96.5l94 236q6 15 -3 22t-28 7v11h105v-11q-38 0 -46 -23q-140 -350 -211 -525q-38 -96 -78 -139q-23 -24 -45 -32t-60 -2q-44 6 -71 36q-14 16 -17.5 38t10.5 41q13 16 35.5 17
t38.5 -15q12 -13 14.5 -41t10 -43.5t34.5 -9.5q22 5 42.5 31t34 55.5t26.5 62.5q3 10 5 14l37 93h-22l-174 371q-1 1 -2 3.5t-3.5 7t-4.5 9.5q-25 49 -63 51v11h195z" />
    <glyph glyph-name="z" unicode="z" horiz-adv-x="453" 
d="M47 456h396l-9 -18l-223 -424h93q50 0 77.5 26t37.5 82h7v-126h-405q39 74 116 221t116 221h-71q-109 0 -128 -108h-7v126z" />
    <glyph glyph-name="braceleft" unicode="{" horiz-adv-x="284" 
d="M51 293q38 0 55.5 26t17 64.5t-2.5 81.5q0 7 -0.5 11.5t-0.5 9.5q-4 44 -2 88t9.5 79t33 56.5t68.5 21.5q5 0 5 -6t-5 -6q-47 0 -63 -54q-10 -34 -5 -177q1 -45 1 -77t-10 -58t-34 -49q-11 -11 -27 -17q17 -6 27 -16q24 -23 34 -49.5t10 -58.5t-1 -77q-5 -142 5 -176
q16 -54 63 -54q5 0 5 -6t-5 -6q-43 0 -68.5 22t-33 56.5t-10 78t2.5 87.5q6 105 -3 140q-13 54 -66 53v12z" />
    <glyph glyph-name="bar" unicode="|" horiz-adv-x="351" 
d="M154 699h44l-1 -837h-43v837z" />
    <glyph glyph-name="braceright" unicode="}" horiz-adv-x="284" 
d="M234 281q-38 0 -55.5 -26t-17 -64.5t2.5 -81.5q1 -14 1 -21q4 -44 2 -87.5t-9.5 -78.5t-33 -56.5t-68.5 -21.5q-5 0 -5 6t5 6q47 0 63 54q10 34 5 176q-1 45 -1 77t10 58.5t34 49.5q10 10 27 16q-16 6 -27 17q-24 23 -34 49t-10 58t1 77q5 143 -5 177q-16 54 -63 54
q-5 0 -5 6t5 6q43 0 69 -22t33 -57t9.5 -78.5t-2.5 -87.5q-6 -105 3 -140q13 -53 66 -53v-12z" />
    <glyph glyph-name="asciitilde" unicode="~" horiz-adv-x="745" 
d="M206 304q38 0 86.5 -15.5t91.5 -32t91.5 -27.5t105 0t114.5 50v-45q-62 -37 -120.5 -49t-104 -3t-89 25t-82.5 31.5t-77.5 20.5t-82 -13t-87.5 -63l-1 48q74 73 155 73z" />
    <glyph glyph-name="exclamdown" unicode="&#xa1;" horiz-adv-x="234" 
d="M117 349q-25 0 -43 17.5t-18 43.5t18 44t43 18t43.5 -18t18.5 -44q0 -25 -18 -43t-44 -18zM118 -278q-35 0 -52 29t-14 68l49 453h34l49 -453q4 -38 -13.5 -67.5t-52.5 -29.5z" />
    <glyph glyph-name="cent" unicode="&#xa2;" horiz-adv-x="538" 
d="M425 556l28 -16l-44 -91q49 -25 71 -73q8 -16 8 -32q1 -23 -12 -37.5t-33 -14.5q-19 0 -34 13.5t-12 38.5q1 9 6 19.5t9.5 17.5t3 16.5t-11.5 19.5l-7 7l-159 -334q15 -61 56 -69q31 -6 65 3.5t55 28.5q36 34 48 87h24q-13 -65 -56 -105q-46 -41 -136 -41q-50 0 -94 15
l-62 -130l-27 16l60 126q-56 28 -87.5 82t-32.5 129v3q1 111 69.5 174.5t173.5 63.5q50 0 86 -12zM319 451q-16 0 -25 -2q-16 -3 -28.5 -12.5t-19.5 -28.5t-11 -34.5t-5.5 -44t-2 -43t-0.5 -44.5q0 -64 3 -97l140 295q-24 11 -51 11z" />
    <glyph glyph-name="sterling" unicode="&#xa3;" horiz-adv-x="660" 
d="M359 715q87 0 141 -52.5t30 -123.5q-8 -23 -31 -29t-42.5 7.5t-18.5 38.5q0 6 1.5 12t3 10t5 8t5 6t6.5 5t6.5 4t6.5 4l6 3q27 20 6 45.5t-55 34.5q-30 8 -65 8q-109 0 -108 -126q1 -29 28 -96t36 -112h183v-31h-178q10 -104 -37 -228q56 -12 103 -18t98.5 -7t79.5 14.5
t24 47.5l13 1q3 -17 3 -36.5t-6 -51.5t-32.5 -52.5t-71.5 -20.5q-39 0 -78 8t-60 15.5t-53 22.5t-38 17q-34 -66 -96 -66q-26 0 -47 14t-27 38q-7 29 5.5 53t42.5 35q39 14 91 -3q10 104 -43 217h-145v32h130q-17 35 -25.5 56t-15.5 55.5t-5 69.5q11 171 224 171zM178 76
q-8 0 -20 -4q-18 -7 -24 -27t5 -38.5t35 -20.5q39 -3 55 77q-26 13 -51 13z" />
    <glyph glyph-name="currency" unicode="&#xa4;" horiz-adv-x="608" 
d="M305 538q-68 0 -116.5 -62.5t-48.5 -150.5t48.5 -150.5t116.5 -62.5t116 62t48 151t-48 151t-116 62zM74 579l76 -77q28 24 73 41t82 17t81.5 -17t72.5 -41l77 77l22 -23l-77 -77q24 -28 41 -72.5t17 -81.5t-17 -82t-41 -73l77 -77l-22 -22l-77 77q-28 -24 -72.5 -41
t-81.5 -17t-82 17t-73 41l-77 -77l-22 22l77 77q-24 28 -41 73t-17 82t17 81.5t41 72.5l-77 77z" />
    <glyph glyph-name="yen" unicode="&#xa5;" horiz-adv-x="671" 
d="M51 708h255v-12q-16 0 -31 -8t-8 -26l139 -307l146 320q5 11 -5 16t-26 5v11h100v-11q-34 0 -43 -21l-157 -344v-37h141v-31h-141v-96h141v-32h-141v-92q0 -36 60 -36v-10h-281v10q59 0 59 36v93h-149v31h149v96h-149v32h149v37l-149 329q-16 35 -59 35v12z" />
    <glyph glyph-name="brokenbar" unicode="&#xa6;" horiz-adv-x="351" 
d="M154 238h44l-1 -376h-43v376zM154 699h44v-377h-44v377z" />
    <glyph glyph-name="section" unicode="&#xa7;" horiz-adv-x="654" 
d="M384 715q68 -1 121 -36t71 -109q8 -33 -13.5 -47.5t-46.5 -7.5q-22 7 -27.5 34t9.5 44q26 33 -14 70t-104 36q-41 0 -78 -22t-56 -54t-8.5 -71.5t56.5 -69.5q45 -30 114.5 -75.5t100.5 -66.5q71 -46 89.5 -118t-20.5 -133q-17 -27 -32.5 -42.5t-40.5 -29.5
q34 -41 37.5 -95.5t-24.5 -101.5q-33 -54 -89 -76.5t-158 -22.5q-68 1 -121.5 36.5t-71.5 109.5q-8 33 13.5 47t47.5 7q22 -7 27 -34t-10 -44q-26 -33 14.5 -70t104.5 -36q41 0 78 22t56 54t8.5 71.5t-56.5 69.5q-45 30 -114.5 75.5t-100.5 66.5q-71 46 -89.5 118t20.5 133
q17 27 32.5 42.5t40.5 29.5q-34 42 -38 96.5t24 101.5q33 54 89 76t159 22zM154 414q-20 -50 11.5 -112.5t120.5 -123.5q133 -91 189 -133q15 -12 25 -23q20 50 -11 112.5t-120 123.5q-146 100 -190 133q-15 12 -25 23z" />
    <glyph glyph-name="dieresis" unicode="&#xa8;" horiz-adv-x="378" 
d="M279 837q20 0 34.5 -15t14.5 -35t-14.5 -34.5t-34.5 -14.5t-35 14.5t-15 34.5t15 35t35 15zM100 837q20 0 35 -15t15 -35t-15 -34.5t-35 -14.5t-34.5 14.5t-14.5 34.5t14.5 35t34.5 15z" />
    <glyph glyph-name="copyright" unicode="&#xa9;" horiz-adv-x="820" 
d="M414 708q113 -1 213.5 -78.5t129.5 -187.5q38 -143 -36.5 -272t-217.5 -167t-272 36.5t-167 217.5t36 272t217 167q45 12 97 12zM413 672q-44 0 -86 -11q-85 -23 -145.5 -83.5t-83 -143.5t0.5 -168t83.5 -145.5t143.5 -83t168 0.5t145.5 83.5t83 143.5t-0.5 168
q-26 98 -117 168t-192 71zM435 558q37 0 84 -30q24 -14 29 18h4l-3 -117h-7q-20 74 -54.5 99t-63.5 20q-10 -2 -18 -7.5t-14 -15t-10 -19t-6.5 -25t-4 -26t-2 -29t-0.5 -27v-27v-23.5v-25v-27t0.5 -26.5t2 -28t4 -25t6.5 -23.5t9.5 -19t14 -15.5t18.5 -8.5q29 -8 63.5 18
t54.5 101h7l2 -71q-52 -58 -116 -58q-73 0 -120 62t-47 146q0 85 46 145q50 64 121 64z" />
    <glyph glyph-name="ordfeminine" unicode="&#xaa;" horiz-adv-x="440" 
d="M232 582q-11 -17 -34 -29q-5 -2 -16.5 -11t-27 -30.5t-17.5 -42.5q-5 -52 27.5 -64t67.5 33v4v140zM347 598v-159q0 -23 8.5 -31.5t16.5 -6.5t15 6l3 -7q-17 -13 -41.5 -21t-48.5 -8t-43 13.5t-24 39.5q-36 -53 -99 -53q-40 0 -61.5 25t-21.5 57q0 36 21 60q15 19 48 31
q8 3 26 8.5t26 8t21 9.5t19.5 14.5t12.5 19.5t7 28v16q0 25 -10 38t-27 11q-28 -5 -49 -18q-14 -14 -12.5 -20t10 -17t8.5 -19q0 -18 -10.5 -28t-24.5 -10q-13 0 -22 10.5t-9 27.5q0 12 9 28q34 64 127 64q60 -1 92.5 -31.5t32.5 -85.5z" />
    <glyph glyph-name="guillemotleft" unicode="&#xab;" horiz-adv-x="435" 
d="M384 371v-22l-101 -108l101 -107v-23l-190 121v19zM241 371v-22l-101 -108l101 -107v-23l-190 121v19z" />
    <glyph glyph-name="logicalnot" unicode="&#xac;" horiz-adv-x="498" 
d="M448 258v-39l-1 -176h-43v176l-353 1v43h397v-5z" />
    <glyph glyph-name="uni00AD" unicode="&#xad;" horiz-adv-x="409" 
d="M51 263h307v-44l-307 1v43z" />
    <glyph glyph-name="registered" unicode="&#xae;" horiz-adv-x="820" 
d="M414 708q113 -1 213.5 -78.5t129.5 -187.5q38 -143 -36.5 -272t-217.5 -167t-272 36.5t-167 217.5t36 272t217 167q45 12 97 12zM413 672q-44 0 -86 -11q-85 -23 -145.5 -83.5t-83 -143.5t0.5 -168t83.5 -145.5t143.5 -83t168 0.5t145.5 83.5t83 143.5t-0.5 168
q-26 98 -117 168t-192 71zM255 556h199q50 -1 81 -33t31 -80q0 -36 -18.5 -64.5t-50.5 -41.5q19 -9 31 -35.5t26 -81.5q6 -23 13.5 -25.5t12.5 6.5l5 9l11 -6q-17 -61 -69 -61q-41 0 -59 61q-26 90 -41 109q-12 16 -26 17h-8v-152q0 -21 33 -21v-6h-171v6q33 0 33 21v351
q0 21 -33 21v6zM393 543v-201h41q27 1 41.5 29t14.5 72t-14.5 72t-41.5 28h-41z" />
    <glyph glyph-name="macron" unicode="&#xaf;" horiz-adv-x="560" 
d="M51 919l458 -1v-43h-458v44z" />
    <glyph glyph-name="degree" unicode="&#xb0;" horiz-adv-x="373" 
d="M187 648q-40 0 -68.5 -28.5t-28.5 -68.5t28.5 -68.5t68.5 -28.5t68.5 28.5t28.5 68.5t-28.5 68.5t-68.5 28.5zM187 687q56 0 96 -40t40 -96t-40 -96t-96 -40t-96 40t-40 96t40 96t96 40z" />
    <glyph glyph-name="plusminus" unicode="&#xb1;" horiz-adv-x="498" 
d="M51 11l397 -1v-44l-397 1v44zM228 440h44l-1 -177h177v-44h-177v-176h-44l1 177h-177v43h177v177z" />
    <glyph glyph-name="uni00B2" unicode="&#xb2;" horiz-adv-x="374" 
d="M194 706q121 0 123 -106q1 -45 -33 -79.5t-121 -73.5q-43 -20 -70 -52q30 4 170 -2q25 -1 40.5 9t15.5 28l5 -1q0 -3 -1 -18.5t-2 -22t-4.5 -19t-9.5 -18t-17.5 -10.5t-27.5 -5q-17 0 -62 3t-73.5 3.5t-75.5 -4.5q-1 11 3 25t28.5 42.5t68.5 55.5q52 32 73 84t8.5 94.5
t-48.5 51.5q-12 5 -35.5 1t-37.5 -17q-13 -12 -14 -21.5t6.5 -22.5t8.5 -17q4 -15 -7 -25.5t-25 -6.5t-18 23q-6 31 22.5 62t71.5 36q18 3 38 3z" />
    <glyph glyph-name="uni00B3" unicode="&#xb3;" horiz-adv-x="368" 
d="M191 706q50 0 82.5 -24.5t28.5 -71.5q-6 -56 -75 -72q89 -13 90 -93q1 -50 -39 -81.5t-90 -32.5h-19q-52 0 -87 28.5t-30 63.5q2 19 16.5 23.5t26 -5t7.5 -25.5q-1 -5 -8 -16.5t-5.5 -20t14.5 -20.5q15 -13 41 -17.5t43 0.5q50 10 50 103q0 33 -13.5 59.5t-48.5 21.5v13
v2q36 1 55.5 36.5t10 73.5t-44.5 44q-52 9 -75 -17q-2 -3 -3.5 -5.5t-2 -6t-0.5 -5.5t1 -6.5t1.5 -6.5l2 -8t2.5 -8q4 -15 -6 -23t-23 -4.5t-15 18.5q-6 34 24 58t86 25h3z" />
    <glyph glyph-name="acute" unicode="&#xb4;" horiz-adv-x="280" 
d="M207 891q11 0 17 -8q20 -21 -20 -52l-132 -91h-21l118 131q18 20 38 20z" />
    <glyph glyph-name="uni00B5" unicode="&#xb5;" 
d="M239 456v-379q0 -29 11 -42.5t28 -12t33.5 10t30.5 20.5q46 40 64 122v213q0 36 -48 36h-11v11l219 21v-413q1 -37 60 -37v-10h-220v106q-19 -43 -48 -67q-42 -37 -110 -39h-5h-4v-273h-161v665q0 36 -48 36h-10v11z" />
    <glyph glyph-name="paragraph" unicode="&#xb6;" horiz-adv-x="480" 
d="M233 682l1 -796h88l1 796h-90zM205 699h162q-1 -455 -1 -772v-15q0 -36 63 -36v-10h-70h-133h-20h-63v10q63 0 63 36v15v415q-66 7 -110.5 58t-44.5 120t44 120.5t110 58.5z" />
    <glyph glyph-name="periodcentered" unicode="&#xb7;" horiz-adv-x="225" 
d="M112 316q26 0 44 -18t18 -44q0 -25 -18 -43t-44 -18t-43.5 17.5t-17.5 43.5t18 44t43 18z" />
    <glyph glyph-name="cedilla" unicode="&#xb8;" horiz-adv-x="285" 
d="M154 -2l-14 -43q40 5 67.5 -12.5t27.5 -48.5q0 -26 -18.5 -46.5t-53.5 -22.5q-30 -2 -64.5 8t-47.5 22l6 12q9 -7 28.5 -11.5t40.5 -5t36.5 10t15.5 31.5q0 38 -45 41h-19l21 65h19z" />
    <glyph glyph-name="uni00B9" unicode="&#xb9;" horiz-adv-x="256" 
d="M205 343v-5h-137v5q29 0 29 18v264q0 10 -3 11.5t-22 1.5h-21v6q32 0 59.5 14t39.5 28l11 13h15v-338q1 -18 29 -18z" />
    <glyph glyph-name="ordmasculine" unicode="&#xba;" horiz-adv-x="361" 
d="M181 697q-28 0 -43 -40t-15 -139q0 -100 14.5 -139t43.5 -39t43.5 39t14.5 139q0 99 -15 139t-43 40zM181 706q52 0 91 -46t39 -142q0 -97 -39 -142t-91 -45t-91 45t-39 142q0 96 39 142t91 46z" />
    <glyph glyph-name="guillemotright" unicode="&#xbb;" horiz-adv-x="435" 
d="M194 371l190 -120v-19l-190 -121v23l101 107l-101 108v22zM51 371l190 -120v-19l-190 -121v23l101 107l-101 108v22z" />
    <glyph glyph-name="onequarter" unicode="&#xbc;" horiz-adv-x="599" 
d="M547 10v-5h-137v5q29 0 29 18v70h-158v11q46 41 68.5 89.5t20.5 83.5t-12 64q-5 11 2.5 19t19.5 8q21 0 25 -20q25 -119 -111 -244h145v200q20 2 37 12t24 19l7 9h11v-240h30v-11h-30v-70q1 -18 29 -18zM205 343v-5h-137v5q29 0 29 18v264q0 10 -3 11.5t-22 1.5h-21v6
q32 0 59.5 14t39.5 28l11 13h15v-338q1 -18 29 -18zM435 713h44l-336 -703h-44z" />
    <glyph glyph-name="onehalf" unicode="&#xbd;" horiz-adv-x="642" 
d="M461 374q120 0 123 -107q1 -45 -33 -79t-121 -73q-43 -20 -70 -52q30 4 170 -2q25 -1 40.5 8.5t15.5 27.5h5q0 -3 -1 -18.5t-2 -22t-4.5 -19t-9.5 -18t-17.5 -10.5t-27.5 -5t-62 2.5t-74 3t-75 -4.5q-1 11 3 25.5t28.5 43t68.5 55.5q52 32 73 84t8.5 94.5t-48.5 51.5
q-12 5 -35.5 1t-37.5 -17q-13 -12 -14 -21.5t6.5 -22.5t8.5 -17q4 -15 -7 -25.5t-25 -6.5t-18 23q-6 31 22.5 62t71.5 36q18 3 38 3zM205 343v-5h-137v5q29 0 29 18v264q0 10 -3 11.5t-22 1.5h-21v6q32 0 59.5 14t39.5 28l11 13h15v-338q1 -18 29 -18zM435 713h44l-336 -703
h-44z" />
    <glyph glyph-name="threequarters" unicode="&#xbe;" horiz-adv-x="656" 
d="M191 706q50 0 82.5 -24.5t28.5 -71.5q-6 -56 -75 -72q89 -13 90 -93q1 -50 -39 -81.5t-90 -32.5h-19q-52 0 -87 28.5t-30 63.5q2 19 16.5 23.5t26 -5t7.5 -25.5q-1 -5 -8 -16.5t-5.5 -20t14.5 -20.5q15 -13 41 -17.5t43 0.5q50 10 50 103q0 33 -13.5 59.5t-48.5 21.5v13
v2q36 1 55.5 36.5t10 73.5t-44.5 44q-52 9 -75 -17q-2 -3 -3.5 -5.5t-2 -6t-0.5 -5.5t1 -6.5t1.5 -6.5l2 -8t2.5 -8q4 -15 -6 -23t-23 -4.5t-15 18.5q-6 34 24 58t86 25h3zM604 10v-5h-137v5q29 0 29 18v70h-158v11q46 41 68.5 89.5t20.5 83.5t-12 64q-5 11 2.5 19t19.5 8
q22 0 26 -20q25 -118 -112 -244h145v200q20 2 37 12t24 19l7 9h11v-240h31v-11h-31v-70q1 -18 29 -18zM493 713h44l-336 -703h-44z" />
    <glyph glyph-name="questiondown" unicode="&#xbf;" horiz-adv-x="527" 
d="M340 348q-26 0 -44 18t-18 43t18 43.5t44 18.5q25 0 43 -18t18 -44q0 -25 -17.5 -43t-43.5 -18zM262 -279q-92 0 -153.5 44t-57.5 131q2 46 19 80.5t42 56t55 39t59.5 34t53 37t37.5 52.5t13 75h27v-25v-31t-2 -29.5t-6 -33.5t-12 -30.5t-18.5 -33t-27 -28t-37.5 -27.5
q-48 -28 -69.5 -76.5t-15 -93.5t33 -80t65.5 -40q40 -5 79 4t59 35q12 11 9.5 24.5t-8 21.5t-17.5 20q-26 28 -2 58q22 27 52 21q25 -4 33 -35q18 -63 -40 -116.5t-171 -53.5z" />
    <glyph glyph-name="Agrave" unicode="&#xc0;" horiz-adv-x="589" 
d="M220 891q20 0 38 -20l118 -131h-21l-132 91q-40 31 -20 52q6 8 17 8zM208 468l-75 -235h150zM262 708h62q139 -434 208 -650q2 -7 7.5 -16.5t21 -21.5t34.5 -13v-10h-220h-74v10q23 1 32 14t8 24t-4 20l-46 145h-165l-58 -179q-4 -12 6.5 -18t26.5 -6v-10h-101v10
q17 -1 29.5 7t15.5 17z" />
    <glyph glyph-name="Aacute" unicode="&#xc1;" horiz-adv-x="589" 
d="M386 891q11 0 17 -8q20 -22 -19 -52l-132 -91h-21l118 131q18 20 37 20zM208 468l-75 -235h150zM262 708h62q139 -434 208 -650q2 -7 7.5 -16.5t21 -21.5t34.5 -13v-10h-220h-74v10q23 1 32 14t8 24t-4 20l-46 145h-165l-58 -179q-4 -12 6.5 -18t26.5 -6v-10h-101v10
q17 -1 29.5 7t15.5 17z" />
    <glyph glyph-name="Acircumflex" unicode="&#xc2;" horiz-adv-x="589" 
d="M274 892h48q9 -12 11 -15l95 -137h-21l-109 96l-109 -96h-21l95 137q2 3 11 15zM208 468l-75 -235h150zM262 708h62q139 -434 208 -650q2 -7 7.5 -16.5t21 -21.5t34.5 -13v-10h-220h-74v10q23 1 32 14t8 24t-4 20l-46 145h-165l-58 -179q-4 -12 6.5 -18t26.5 -6v-10h-101
v10q17 -1 29.5 7t15.5 17z" />
    <glyph glyph-name="Atilde" unicode="&#xc3;" horiz-adv-x="589" 
d="M408 843h20q-6 -44 -42 -61.5t-86 -2.5q-76 22 -95.5 18.5t-26.5 -24.5h-20q10 29 25.5 45t36 19t36.5 1t38 -8q6 -2 21 -6.5t21 -6t18 -4t17.5 -1t13.5 4t13.5 9.5t9.5 17zM208 468l-75 -235h150zM262 708h62q139 -434 208 -650q2 -7 7.5 -16.5t21 -21.5t34.5 -13v-10
h-220h-74v10q23 1 32 14t8 24t-4 20l-46 145h-165l-58 -179q-4 -12 6.5 -18t26.5 -6v-10h-101v10q17 -1 29.5 7t15.5 17z" />
    <glyph glyph-name="Adieresis" unicode="&#xc4;" horiz-adv-x="589" 
d="M389 837q20 0 35 -15t15 -35t-15 -34.5t-35 -14.5t-34.5 14.5t-14.5 34.5t14.5 35t34.5 15zM211 837q20 0 35 -15t15 -35t-15 -34.5t-35 -14.5t-34.5 14.5t-14.5 34.5t14.5 35t34.5 15zM208 468l-75 -235h150zM262 708h62q139 -434 208 -650q2 -7 7.5 -16.5t21 -21.5
t34.5 -13v-10h-220h-74v10q23 1 32 14t8 24t-4 20l-46 145h-165l-58 -179q-4 -12 6.5 -18t26.5 -6v-10h-101v10q17 -1 29.5 7t15.5 17z" />
    <glyph glyph-name="Aring" unicode="&#xc5;" horiz-adv-x="589" 
d="M262 708h62q139 -434 208 -650q2 -7 7.5 -16.5t21 -21.5t34.5 -13v-10h-294v10q23 1 32 14t8 24t-4 20l-46 145h-165l-58 -179q-4 -12 6.5 -18t26.5 -6v-10h-101v10q17 -1 29.5 7t15.5 17zM208 468l-75 -235h150zM297 906q33 0 56 -23.5t23 -56.5t-23 -56.5t-56 -23.5
t-56.5 23.5t-23.5 56.5t23.5 56.5t56.5 23.5zM255 830v-8q1 -62 42 -62t42 62v9q-1 62 -42 62t-42 -63z" />
    <glyph glyph-name="AE" unicode="&#xc6;" horiz-adv-x="862" 
d="M380 615l-201 -382h201v382zM322 708h505v-217h-12q-8 44 -21 84t-40.5 74.5t-60.5 34.5h-130v-320h44q28 0 50 22t33.5 55t17.5 64.5t6 57.5h17v-124.5v-173.5v-124h-17q0 26 -6 57.5t-17.5 64.5t-33.5 55t-50 22h-44v-321h144q25 0 47 19t36.5 50.5t23.5 62t14 62.5h14
v-216h-520v10q58 0 58 37v166h-213l-95 -180q-6 -8 -1.5 -15.5t19.5 -7.5v-10h-90v10q35 0 47 23l333 633q-2 34 -58 34v11z" />
    <glyph glyph-name="Ccedilla" unicode="&#xc7;" horiz-adv-x="581" 
d="M375 -108q0 25 -17 33t-48 8l18 53h-3q-128 0 -211 108.5t-83 256.5q0 147 81 254q85 112 213 112q67 0 147 -51q41 -27 51 31h7l-6 -207h-10q-15 56 -37.5 98.5t-45 63.5t-47 34.5t-44 13.5h-34.5q-18 -3 -32.5 -12.5t-24.5 -27t-17.5 -33.5t-12 -43.5t-7 -45.5
t-3.5 -51t-1.5 -47.5t0 -48t0.5 -40.5q0 -10 -0.5 -43t0 -48.5t1.5 -47t3.5 -49t7 -44t12 -42t17.5 -33t24.5 -27.5t32.5 -15q16 -2 35.5 -2.5t44 13.5t47 35.5t44.5 64t37 99.5h10l4 -125q-83 -91 -182 -100l-10 -32q40 5 68 -12.5t28 -47.5q0 -26 -19 -46.5t-53 -23.5
q-30 -2 -65 8.5t-47 22.5l5 11q9 -6 28.5 -10.5t41 -5t37 9.5t15.5 31z" />
    <glyph glyph-name="Egrave" unicode="&#xc8;" horiz-adv-x="561" 
d="M198 891q20 0 38 -20l117 -131h-21l-132 91q-39 30 -19 52q6 8 17 8zM20 708h507v-217h-12q-13 73 -44 133.5t-78 60.5h-130v-321h44q37 0 62.5 38.5t34.5 81t9 80.5h17v-424h-17q0 38 -9 80.5t-34.5 81t-62.5 38.5h-44v-321h143q47 0 78 60.5t44 133.5h13v-217h-521v11
q60 0 60 36v618q0 37 -60 37v10z" />
    <glyph glyph-name="Eacute" unicode="&#xc9;" horiz-adv-x="561" 
d="M449 891q11 0 17 -8q20 -22 -19 -52l-133 -91h-21l118 131q18 20 38 20zM20 708h507v-217h-12q-13 73 -44 133.5t-78 60.5h-130v-321h44q37 0 62.5 38.5t34.5 81t9 80.5h17v-424h-17q0 38 -9 80.5t-34.5 81t-62.5 38.5h-44v-321h143q47 0 78 60.5t44 133.5h13v-217h-521
v11q60 0 60 36v618q0 37 -60 37v10z" />
    <glyph glyph-name="Ecircumflex" unicode="&#xca;" horiz-adv-x="561" 
d="M324 892h48q9 -12 11 -15l95 -137h-21l-109 96l-109 -96h-21l95 137q2 3 11 15zM20 708h507v-217h-12q-13 73 -44 133.5t-78 60.5h-130v-321h44q37 0 62.5 38.5t34.5 81t9 80.5h17v-424h-17q0 38 -9 80.5t-34.5 81t-62.5 38.5h-44v-321h143q47 0 78 60.5t44 133.5h13
v-217h-521v11q60 0 60 36v618q0 37 -60 37v10z" />
    <glyph glyph-name="Edieresis" unicode="&#xcb;" horiz-adv-x="561" 
d="M445 837q20 0 35 -15t15 -35t-15 -34.5t-35 -14.5t-34.5 14.5t-14.5 34.5t14.5 35t34.5 15zM267 837q20 0 35 -15t15 -35t-15 -34.5t-35 -14.5t-34.5 14.5t-14.5 34.5t14.5 35t34.5 15zM20 708h507v-217h-12q-13 73 -44 133.5t-78 60.5h-130v-321h44q37 0 62.5 38.5
t34.5 81t9 80.5h17v-424h-17q0 38 -9 80.5t-34.5 81t-62.5 38.5h-44v-321h143q47 0 78 60.5t44 133.5h13v-217h-521v11q60 0 60 36v618q0 37 -60 37v10z" />
    <glyph glyph-name="Igrave" unicode="&#xcc;" horiz-adv-x="362" 
d="M105 891q19 0 37 -20l118 -131h-21l-132 91q-39 30 -19 52q6 8 17 8zM31 708h302v-11h-7h-4q-49 -3 -49 -36v-619q0 -31 42 -36h18v-10h-302v10q59 0 59 36v619q0 33 -49 36h-10v11z" />
    <glyph glyph-name="Iacute" unicode="&#xcd;" horiz-adv-x="362" 
d="M265 891q11 0 17 -8q20 -21 -20 -52l-132 -91h-21l118 131q18 20 38 20zM31 708h302v-11h-7h-4q-49 -3 -49 -36v-619q0 -31 42 -36h18v-10h-302v10q59 0 59 36v619q0 33 -49 36h-10v11z" />
    <glyph glyph-name="Icircumflex" unicode="&#xce;" horiz-adv-x="362" 
d="M162 892h48q9 -12 11 -15l95 -137h-21l-109 96l-109 -96h-21l95 137q2 3 11 15zM31 708h302v-11h-7h-4q-49 -3 -49 -36v-619q0 -31 42 -36h18v-10h-302v10q59 0 59 36v619q0 33 -49 36h-10v11z" />
    <glyph glyph-name="Idieresis" unicode="&#xcf;" horiz-adv-x="362" 
d="M269 837q20 0 35 -15t15 -35t-15 -34.5t-35 -14.5t-34.5 14.5t-14.5 34.5t14.5 35t34.5 15zM91 837q20 0 35 -15t15 -35t-15 -34.5t-35 -14.5t-34.5 14.5t-14.5 34.5t14.5 35t34.5 15zM31 708h302v-11h-7h-4q-49 -3 -49 -36v-619q0 -31 42 -36h18v-10h-302v10q59 0 59 36
v619q0 33 -49 36h-10v11z" />
    <glyph glyph-name="Eth" unicode="&#xd0;" horiz-adv-x="638" 
d="M20 708h243h30.5t32.5 -0.5t15 -0.5q112 -6 190 -107.5t78 -247.5q0 -79 -25 -147.5t-64 -113t-86 -70t-93 -25.5h-78h-243v10q59 0 59 37v290h-51v44h51v284q0 36 -59 36v11zM263 333v-314q10 0 37 0.5t41 0.5q22 1 39.5 22t27.5 57t16.5 71.5t9 78t3 64t0.5 41.5
q0 30 -4 76t-14.5 107.5t-34 104t-55.5 42.5q-10 0 -33 0.5t-33 0.5v-308h72v-44h-72z" />
    <glyph glyph-name="Ntilde" unicode="&#xd1;" horiz-adv-x="607" 
d="M477 843h19q-6 -44 -41.5 -61.5t-85.5 -2.5q-76 22 -95.5 18.5t-26.5 -24.5h-20q10 29 25.5 45t36 19t36 1t37.5 -8q6 -2 21.5 -6.5t21 -6t17.5 -4t18 -1t14 4t13.5 9.5t9.5 17zM222 708l292 -427v380q0 36 -50 36v11h124v-11q-50 0 -50 -36v-665h-50l-395 575v-529
q0 -36 51 -36v-10h-124v10q50 0 50 36v619q0 36 -50 36v11h202z" />
    <glyph glyph-name="Ograve" unicode="&#xd2;" horiz-adv-x="651" 
d="M277 891q19 0 37 -20l118 -131h-21l-132 91q-39 30 -19 52q6 8 17 8zM326 700q-24 0 -41.5 -9t-32.5 -32.5t-23 -70t-8 -116.5v-244q0 -70 8 -116.5t23 -70t32.5 -32.5t41.5 -9t41.5 9t32.5 32.5t23 70t8 116.5v244q0 70 -8 116.5t-23 70t-32.5 32.5t-41.5 9zM326 715
q122 0 209 -107t87 -258t-87 -258t-209 -107t-208.5 107t-86.5 258t86.5 258t208.5 107z" />
    <glyph glyph-name="Oacute" unicode="&#xd3;" horiz-adv-x="651" 
d="M379 891q11 0 17 -8q20 -22 -19 -52l-132 -91h-21l117 131q18 20 38 20zM326 700q-24 0 -41.5 -9t-32.5 -32.5t-23 -70t-8 -116.5v-244q0 -70 8 -116.5t23 -70t32.5 -32.5t41.5 -9t41.5 9t32.5 32.5t23 70t8 116.5v244q0 70 -8 116.5t-23 70t-32.5 32.5t-41.5 9zM326 715
q122 0 209 -107t87 -258t-87 -258t-209 -107t-208.5 107t-86.5 258t86.5 258t208.5 107z" />
    <glyph glyph-name="Ocircumflex" unicode="&#xd4;" horiz-adv-x="651" 
d="M303 892h48q9 -12 11 -15l96 -137h-22l-109 96l-108 -96h-22l96 137q1 2 3.5 5.5t4 5.5t2.5 4zM326 700q-24 0 -41.5 -9t-32.5 -32.5t-23 -70t-8 -116.5v-244q0 -70 8 -116.5t23 -70t32.5 -32.5t41.5 -9t41.5 9t32.5 32.5t23 70t8 116.5v244q0 70 -8 116.5t-23 70
t-32.5 32.5t-41.5 9zM326 715q122 0 209 -107t87 -258t-87 -258t-209 -107t-208.5 107t-86.5 258t86.5 258t208.5 107z" />
    <glyph glyph-name="Otilde" unicode="&#xd5;" horiz-adv-x="651" 
d="M433 843h19q-6 -44 -41.5 -61.5t-85.5 -2.5q-76 22 -95.5 18.5t-26.5 -24.5h-20q10 29 25.5 45t36 19t36 1t37.5 -8q6 -2 21.5 -6.5t21 -6t17.5 -4t18 -1t14 4t13.5 9.5t9.5 17zM326 700q-24 0 -41.5 -9t-32.5 -32.5t-23 -70t-8 -116.5v-244q0 -70 8 -116.5t23 -70
t32.5 -32.5t41.5 -9t41.5 9t32.5 32.5t23 70t8 116.5v244q0 70 -8 116.5t-23 70t-32.5 32.5t-41.5 9zM326 715q122 0 209 -107t87 -258t-87 -258t-209 -107t-208.5 107t-86.5 258t86.5 258t208.5 107z" />
    <glyph glyph-name="Odieresis" unicode="&#xd6;" horiz-adv-x="651" 
d="M413 837q20 0 34.5 -15t14.5 -35t-14.5 -34.5t-34.5 -14.5t-35 14.5t-15 34.5t15 35t35 15zM235 837q20 0 34.5 -15t14.5 -35t-14.5 -34.5t-34.5 -14.5t-35 14.5t-15 34.5t15 35t35 15zM326 700q-24 0 -41.5 -9t-32.5 -32.5t-23 -70t-8 -116.5v-244q0 -70 8 -116.5
t23 -70t32.5 -32.5t41.5 -9t41.5 9t32.5 32.5t23 70t8 116.5v244q0 70 -8 116.5t-23 70t-32.5 32.5t-41.5 9zM326 715q122 0 209 -107t87 -258t-87 -258t-209 -107t-208.5 107t-86.5 258t86.5 258t208.5 107z" />
    <glyph glyph-name="multiply" unicode="&#xd7;" horiz-adv-x="413" 
d="M82 397l125 -125l125 125l31 -31l-125 -125l125 -125l-31 -31l-125 125l-125 -124l-31 31l125 124l-124 125z" />
    <glyph glyph-name="Oslash" unicode="&#xd8;" horiz-adv-x="651" 
d="M326 700q-24 0 -41.5 -9t-32.5 -32.5t-23 -70t-8 -116.5v-244q0 -24 2 -60l201 415q-10 67 -35 92t-63 25zM508 757h30l-49 -102q61 -50 97 -130.5t36 -174.5q0 -151 -87 -258t-209 -107q-74 0 -140 44l-43 -88h-30l51 104q-61 50 -97 130.5t-36 174.5q0 151 86.5 258
t208.5 107q75 0 141 -44zM229 117q10 -67 34.5 -92t62.5 -25q24 0 41.5 9t32.5 32.5t23 70t8 116.5v244q0 25 -2 61z" />
    <glyph glyph-name="Ugrave" unicode="&#xd9;" horiz-adv-x="650" 
d="M313 891q20 0 38 -20l118 -131h-21l-132 91q-39 30 -19 52q6 8 16 8zM21 708h302v-11q-60 0 -60 -36v-466q0 -174 153 -174q67 0 103.5 45t36.5 109v486q0 36 -50 36v11h124v-11q-50 0 -50 -36q0 -77 -0.5 -231t-0.5 -231q0 -119 -62 -166.5t-174 -47.5q-53 0 -96.5 10
t-83 33t-61.5 66.5t-22 104.5v462q0 36 -59 36v11z" />
    <glyph glyph-name="Uacute" unicode="&#xda;" horiz-adv-x="650" 
d="M507 891q11 0 17 -8q20 -22 -19 -52l-132 -91h-21l117 131q18 20 38 20zM21 708h302v-11q-60 0 -60 -36v-466q0 -174 153 -174q67 0 103.5 45t36.5 109v486q0 36 -50 36v11h124v-11q-50 0 -50 -36q0 -77 -0.5 -231t-0.5 -231q0 -119 -62 -166.5t-174 -47.5
q-53 0 -96.5 10t-83 33t-61.5 66.5t-22 104.5v462q0 36 -59 36v11z" />
    <glyph glyph-name="Ucircumflex" unicode="&#xdb;" horiz-adv-x="650" 
d="M381 892h48q9 -12 11 -15l95 -137h-21l-109 96l-109 -96h-21l96 137zM21 708h302v-11q-60 0 -60 -36v-466q0 -174 153 -174q67 0 103.5 45t36.5 109v486q0 36 -50 36v11h124v-11q-50 0 -50 -36q0 -77 -0.5 -231t-0.5 -231q0 -119 -62 -166.5t-174 -47.5q-53 0 -96.5 10
t-83 33t-61.5 66.5t-22 104.5v462q0 36 -59 36v11z" />
    <glyph glyph-name="Udieresis" unicode="&#xdc;" horiz-adv-x="650" 
d="M499 837q20 0 35 -15t15 -35t-15 -34.5t-35 -14.5t-35 14.5t-15 34.5t15 35t35 15zM321 837q20 0 34.5 -15t14.5 -35t-14.5 -34.5t-34.5 -14.5t-35 14.5t-15 34.5t15 35t35 15zM21 708h302v-11q-60 0 -60 -36v-466q0 -174 153 -174q67 0 103.5 45t36.5 109v486
q0 36 -50 36v11h124v-11q-50 0 -50 -36q0 -77 -0.5 -231t-0.5 -231q0 -119 -62 -166.5t-174 -47.5q-53 0 -96.5 10t-83 33t-61.5 66.5t-22 104.5v462q0 36 -59 36v11z" />
    <glyph glyph-name="Yacute" unicode="&#xdd;" horiz-adv-x="590" 
d="M462 891q11 0 17 -8q20 -22 -19 -52l-132 -91h-21l117 131q18 20 38 20zM0 708h276v-11q-16 0 -31 -8.5t-8 -26.5l140 -307l145 321q5 12 -5 16.5t-26 4.5v10h101v-10q-34 0 -44 -21l-156 -344v-289q0 -37 59 -37v-10h-302v10q59 0 59 37v289l-149 329q-17 36 -59 36v11z
" />
    <glyph glyph-name="Thorn" unicode="&#xde;" horiz-adv-x="587" 
d="M262 597v-352h74q47 1 72 50t25 126q0 78 -24.5 127t-72.5 49h-74zM312 696q-49 0 -50 -35v-41h108q87 -1 142 -58t55 -141t-55 -141.5t-142 -57.5h-108v-179q1 -37 60 -37v-10h-301v10q58 0 58 37v618q0 35 -48 35h-10v12h301v-12h-10z" />
    <glyph glyph-name="germandbls" unicode="&#xdf;" horiz-adv-x="664" 
d="M298 728q102 0 154 -37q23 -16 39 -43.5t14.5 -65.5t-29.5 -71q-27 -31 -31.5 -60t15 -58t41.5 -50.5t65 -54.5q47 -37 67 -85t8 -94q-13 -48 -64 -86t-154 -38q-51 0 -91 44q-33 36 -33 71q0 32 30 36q27 3 40 -18q7 -13 3 -27q-2 -7 -10.5 -18.5t-10.5 -17t2 -18.5
q22 -38 72 -38q38 0 64.5 23.5t35 59t-5.5 79t-51 80.5q-91 91 -101 148q-6 31 5 56t29.5 42.5t38 34t31.5 38.5t9 48q-6 48 -55 78q-14 9 -39 15t-56 3.5t-48 -18.5q-24 -22 -24 -104v-436v-150h-237v10q58 0 58 37v523q0 76 55 119t147 43h17z" />
    <glyph glyph-name="agrave" unicode="&#xe0;" horiz-adv-x="487" 
d="M438 310v-222q0 -52 30 -52q10 0 26 8l4 -11q-50 -40 -119 -40q-85 0 -99 74q-50 -74 -138 -74q-56 0 -86 34.5t-30 79.5q0 48 27 80.5t70 46.5q12 4 36 11.5t35.5 12t29.5 13.5t27 19.5t17 27.5t10 39v23q0 32 -11.5 50.5t-32.5 18.5q-1 0 -3 -0.5t-4 -0.5
q-39 -6 -69 -24q-17 -12 -17 -25q0 -9 12.5 -26t12.5 -28q0 -25 -14 -38.5t-34 -13.5q-19 0 -31.5 14.5t-12.5 36.5q0 20 13 39q59 90 178 90q83 0 128 -43t45 -120zM278 288q-17 -24 -47 -40q-79 -53 -85 -117q0 -3 -0.5 -7.5t-0.5 -7.5q0 -36 16 -57.5t41 -21.5
q39 0 76 49v202zM164 739q20 0 38 -20l117 -131h-20l-133 91q-39 30 -19 52q6 8 17 8z" />
    <glyph glyph-name="aacute" unicode="&#xe1;" horiz-adv-x="487" 
d="M438 310v-222q0 -52 30 -52q10 0 26 8l4 -11q-50 -40 -119 -40q-85 0 -99 74q-50 -74 -138 -74q-56 0 -86 34.5t-30 79.5q0 48 27 80.5t70 46.5q12 4 36 11.5t35.5 12t29.5 13.5t27 19.5t17 27.5t10 39v23q0 32 -11.5 50.5t-32.5 18.5q-1 0 -3 -0.5t-4 -0.5
q-39 -6 -69 -24q-17 -12 -17 -25q0 -9 12.5 -26t12.5 -28q0 -25 -14 -38.5t-34 -13.5q-19 0 -31.5 14.5t-12.5 36.5q0 20 13 39q59 90 178 90q83 0 128 -43t45 -120zM278 288q-17 -24 -47 -40q-79 -53 -85 -117q0 -3 -0.5 -7.5t-0.5 -7.5q0 -36 16 -57.5t41 -21.5
q39 0 76 49v202zM309 739q11 0 17 -8q20 -21 -20 -52l-132 -91h-21l118 131q18 20 38 20z" />
    <glyph glyph-name="acircumflex" unicode="&#xe2;" horiz-adv-x="487" 
d="M438 310v-222q0 -52 30 -52q10 0 26 8l4 -11q-50 -40 -119 -40q-85 0 -99 74q-50 -74 -138 -74q-56 0 -86 34.5t-30 79.5q0 48 27 80.5t70 46.5q12 4 36 11.5t35.5 12t29.5 13.5t27 19.5t17 27.5t10 39v23q0 32 -11.5 50.5t-32.5 18.5q-1 0 -3 -0.5t-4 -0.5
q-39 -6 -69 -24q-17 -12 -17 -25q0 -9 12.5 -26t12.5 -28q0 -25 -14 -38.5t-34 -13.5q-19 0 -31.5 14.5t-12.5 36.5q0 20 13 39q59 90 178 90q83 0 128 -43t45 -120zM278 288q-17 -24 -47 -40q-79 -53 -85 -117q0 -3 -0.5 -7.5t-0.5 -7.5q0 -36 16 -57.5t41 -21.5
q39 0 76 49v202zM236 740h48q9 -12 11 -15l95 -137h-21l-109 96l-109 -96h-21l95 137q2 3 11 15z" />
    <glyph glyph-name="atilde" unicode="&#xe3;" horiz-adv-x="487" 
d="M438 310v-222q0 -52 30 -52q10 0 26 8l4 -11q-50 -40 -119 -40q-85 0 -99 74q-50 -74 -138 -74q-56 0 -86 34.5t-30 79.5q0 48 27 80.5t70 46.5q12 4 36 11.5t35.5 12t29.5 13.5t27 19.5t17 27.5t10 39v23q0 32 -11.5 50.5t-32.5 18.5q-1 0 -3 -0.5t-4 -0.5
q-39 -6 -69 -24q-17 -12 -17 -25q0 -9 12.5 -26t12.5 -28q0 -25 -14 -38.5t-34 -13.5q-19 0 -31.5 14.5t-12.5 36.5q0 20 13 39q59 90 178 90q83 0 128 -43t45 -120zM278 288q-17 -24 -47 -40q-79 -53 -85 -117q0 -3 -0.5 -7.5t-0.5 -7.5q0 -36 16 -57.5t41 -21.5
q39 0 76 49v202zM384 691h19q-6 -44 -42 -61.5t-86 -2.5q-75 22 -94 19q-20 -4 -27 -25h-20q10 29 25.5 45t36 19t36 1t37.5 -8q6 -2 21.5 -6.5t21 -6t17.5 -4t18 -1t14 4t13.5 9.5t9.5 17z" />
    <glyph glyph-name="adieresis" unicode="&#xe4;" horiz-adv-x="487" 
d="M438 310v-222q0 -52 30 -52q10 0 26 8l4 -11q-50 -40 -119 -40q-85 0 -99 74q-50 -74 -138 -74q-56 0 -86 34.5t-30 79.5q0 48 27 80.5t70 46.5q12 4 36 11.5t35.5 12t29.5 13.5t27 19.5t17 27.5t10 39v23q0 32 -11.5 50.5t-32.5 18.5q-1 0 -3 -0.5t-4 -0.5
q-39 -6 -69 -24q-17 -12 -17 -25q0 -9 12.5 -26t12.5 -28q0 -25 -14 -38.5t-34 -13.5q-19 0 -31.5 14.5t-12.5 36.5q0 20 13 39q59 90 178 90q83 0 128 -43t45 -120zM278 288q-17 -24 -47 -40q-79 -53 -85 -117q0 -3 -0.5 -7.5t-0.5 -7.5q0 -36 16 -57.5t41 -21.5
q39 0 76 49v202zM346 685q20 0 35 -15t15 -35t-15 -34.5t-35 -14.5t-34.5 14.5t-14.5 34.5t14.5 35t34.5 15zM168 685q20 0 35 -15t15 -35t-15 -34.5t-35 -14.5t-34.5 14.5t-14.5 34.5t14.5 35t34.5 15z" />
    <glyph glyph-name="aring" unicode="&#xe5;" horiz-adv-x="487" 
d="M266 754q33 0 56.5 -23.5t23.5 -56.5t-23.5 -56.5t-56.5 -23.5t-56.5 23.5t-23.5 56.5t23.5 56.5t56.5 23.5zM224 674v-3v-1q1 -62 42 -62t42 62v4v1v3v1q-1 62 -42 62t-42 -63v-3v-1zM278 288q-17 -24 -47 -40q-79 -53 -85 -117q0 -3 -0.5 -7.5t-0.5 -7.5
q0 -36 16 -57.5t41 -21.5q39 0 76 49v202zM438 310v-222q0 -52 30 -52q10 0 26 8l4 -11q-50 -40 -119 -40q-85 0 -99 74q-50 -74 -138 -74q-56 0 -86 34.5t-30 79.5q0 48 27 80.5t70 46.5q12 4 36 11.5t35.5 12t29.5 13.5t27 19.5t17 27.5t10 39v23q0 32 -11.5 50.5
t-32.5 18.5q-1 0 -3 -0.5t-4 -0.5q-39 -6 -69 -24q-17 -12 -17 -25q0 -9 12.5 -26t12.5 -28q0 -25 -14 -38.5t-34 -13.5q-19 0 -31.5 14.5t-12.5 36.5q0 20 13 39q59 90 178 90q83 0 128 -43t45 -120z" />
    <glyph glyph-name="ae" unicode="&#xe6;" horiz-adv-x="742" 
d="M285 300q-2 -2 -4.5 -6t-3.5 -6q-13 -20 -47 -41q-79 -53 -85 -116q-5 -51 21.5 -74.5t68.5 -12t78 52.5q-35 54 -36 135v3q0 33 8 65zM540 451q-14 0 -21 -2q-21 -4 -35 -20.5t-20 -45t-8.5 -53t-2.5 -60.5h168q-4 181 -81 181zM141 -6q-55 0 -85.5 34.5t-30.5 78.5
q0 48 30 84q21 28 66 43q12 4 36 11.5t36 12t30 13.5t27 19.5t17 27.5t10 39v22q0 35 -13.5 53.5t-37.5 15.5q-39 -6 -69 -25q-15 -11 -17 -21.5t4.5 -18t13.5 -19t7 -20.5q0 -25 -13.5 -38.5t-34.5 -13.5q-20 0 -32 14.5t-12 37.5q0 17 13 39q23 42 69.5 66t108.5 24
q75 0 119 -35q59 35 136 35q91 0 137 -43q64 -60 66 -184h-269v-4q0 -35 0.5 -55.5t4 -55t10 -55t19.5 -38t32 -21.5q31 -6 65.5 5.5t55.5 30.5q35 32 48 87h25q-13 -64 -57 -105q-46 -41 -137 -41q-131 0 -198 91q-31 -40 -77.5 -65.5t-102.5 -25.5z" />
    <glyph glyph-name="ccedilla" unicode="&#xe7;" horiz-adv-x="489" 
d="M328 -108q0 25 -16 33t-48 8l20 60h-10q-105 0 -173.5 63.5t-69.5 175.5v3q1 112 69.5 175t173.5 63q142 0 187 -97q8 -16 8 -32q0 -22 -13.5 -37t-32.5 -15t-33.5 13.5t-12.5 39.5q1 9 6 19t9.5 17t3.5 17t-11 20q-18 18 -48.5 28t-62.5 4q-16 -3 -28.5 -13t-19.5 -28.5
t-11 -34t-5.5 -44t-2 -43t-0.5 -44.5q0 -29 0.5 -45.5t2 -45.5t6 -47t11.5 -38.5t19 -31.5t28 -14q31 -6 65.5 3.5t54.5 28.5q35 32 48 87h25q-13 -65 -57 -104q-35 -32 -107 -41l-13 -40q40 5 68 -12.5t28 -48.5q0 -26 -18.5 -46.5t-53.5 -22.5q-30 -2 -64.5 8t-47.5 22
l5 12q9 -7 28.5 -11.5t40.5 -5t36.5 10t15.5 31.5z" />
    <glyph glyph-name="egrave" unicode="&#xe8;" horiz-adv-x="496" 
d="M198 739q20 0 38 -20l117 -131h-21l-132 91q-39 30 -19 52q6 8 17 8zM294 451q-13 0 -20 -1q-40 -8 -53 -55.5t-14 -124.5h169q-4 181 -82 181zM274 473q92 0 137 -42q63 -59 65 -185l-6 1h-263v-4q0 -35 0.5 -55.5t4 -55.5t10 -55.5t20 -38t32.5 -21.5q31 -6 65.5 5.5
t55.5 30.5q35 32 48 87h24q-13 -66 -56 -104q-21 -20 -59.5 -31.5t-77.5 -11.5q-105 0 -173.5 63.5t-69.5 175.5v3q1 112 69.5 175t173.5 63z" />
    <glyph glyph-name="eacute" unicode="&#xe9;" horiz-adv-x="496" 
d="M358 739q11 0 17 -8q20 -21 -20 -52l-132 -91h-21l118 131q18 20 38 20zM294 451q-13 0 -20 -1q-40 -8 -53 -55.5t-14 -124.5h169q-4 181 -82 181zM274 473q92 0 137 -42q63 -59 65 -185l-6 1h-263v-4q0 -35 0.5 -55.5t4 -55.5t10 -55.5t20 -38t32.5 -21.5
q31 -6 65.5 5.5t55.5 30.5q35 32 48 87h24q-13 -66 -56 -104q-21 -20 -59.5 -31.5t-77.5 -11.5q-105 0 -173.5 63.5t-69.5 175.5v3q1 112 69.5 175t173.5 63z" />
    <glyph glyph-name="ecircumflex" unicode="&#xea;" horiz-adv-x="496" 
d="M259 740h48q9 -12 11 -15l96 -137h-22l-109 96l-108 -96h-22l96 137zM294 451q-13 0 -20 -1q-40 -8 -53 -55.5t-14 -124.5h169q-4 181 -82 181zM274 473q92 0 137 -42q63 -59 65 -185l-6 1h-263v-4q0 -35 0.5 -55.5t4 -55.5t10 -55.5t20 -38t32.5 -21.5q31 -6 65.5 5.5
t55.5 30.5q35 32 48 87h24q-13 -66 -56 -104q-21 -20 -59.5 -31.5t-77.5 -11.5q-105 0 -173.5 63.5t-69.5 175.5v3q1 112 69.5 175t173.5 63z" />
    <glyph glyph-name="edieresis" unicode="&#xeb;" horiz-adv-x="496" 
d="M374 685q20 0 35 -15t15 -35t-15 -34.5t-35 -14.5t-34.5 14.5t-14.5 34.5t14.5 35t34.5 15zM196 685q20 0 34.5 -15t14.5 -35t-14.5 -34.5t-34.5 -14.5t-35 14.5t-15 34.5t15 35t35 15zM294 451q-13 0 -20 -1q-40 -8 -53 -55.5t-14 -124.5h169q-4 181 -82 181zM274 473
q92 0 137 -42q63 -59 65 -185l-6 1h-263v-4q0 -35 0.5 -55.5t4 -55.5t10 -55.5t20 -38t32.5 -21.5q31 -6 65.5 5.5t55.5 30.5q35 32 48 87h24q-13 -66 -56 -104q-21 -20 -59.5 -31.5t-77.5 -11.5q-105 0 -173.5 63.5t-69.5 175.5v3q1 112 69.5 175t173.5 63z" />
    <glyph glyph-name="igrave" unicode="&#xec;" horiz-adv-x="308" 
d="M78 739q20 0 38 -20l117 -131h-20l-133 91q-39 30 -19 52q6 8 17 8zM298 6v-10h-278v10q59 0 59 37v345q0 36 -49 36h-10v11l219 21v-413q1 -37 59 -37z" />
    <glyph glyph-name="iacute" unicode="&#xed;" horiz-adv-x="308" 
d="M223 739q11 0 17 -8q20 -21 -20 -52l-132 -91h-21l118 131q18 20 38 20zM298 6v-10h-278v10q59 0 59 37v345q0 36 -49 36h-10v11l219 21v-413q1 -37 59 -37z" />
    <glyph glyph-name="icircumflex" unicode="&#xee;" horiz-adv-x="308" 
d="M125 740h48q9 -12 11 -15l95 -137h-21l-109 96l-109 -96h-21l96 137zM298 6v-10h-278v10q59 0 59 37v345q0 36 -49 36h-10v11l219 21v-413q1 -37 59 -37z" />
    <glyph glyph-name="idieresis" unicode="&#xef;" horiz-adv-x="308" 
d="M231 685q20 0 35 -15t15 -35t-15 -34.5t-35 -14.5t-34.5 14.5t-14.5 34.5t14.5 35t34.5 15zM53 685q20 0 35 -15t15 -35t-15 -34.5t-35 -14.5t-34.5 14.5t-14.5 34.5t14.5 35t34.5 15zM298 6v-10h-278v10q59 0 59 37v345q0 36 -49 36h-10v11l219 21v-413q1 -37 59 -37z
" />
    <glyph glyph-name="eth" unicode="&#xf0;" horiz-adv-x="536" 
d="M158 719q83 -19 164 -74l85 49l8 -13l-79 -46q53 -39 84 -84q96 -138 87 -318v-1q-1 -107 -75.5 -173t-162.5 -66t-163 66.5t-75 173.5t75 173.5t163 66.5q41 0 77 -14q-14 102 -53 152l-119 -69l-8 14l117 67q-45 51 -127 87zM269 456q-33 0 -58 -34.5t-25 -123.5v-130
q0 -89 25 -123t58 -34t57.5 34t24.5 123v130q0 89 -24.5 123.5t-57.5 34.5z" />
    <glyph glyph-name="ntilde" unicode="&#xf1;" 
d="M455 691h19q-6 -44 -42 -61.5t-86 -2.5q-76 22 -95.5 18.5t-26.5 -24.5h-20q10 29 25.5 45t36 19t36.5 1t38 -8q6 -2 21.5 -6.5t21 -6t17.5 -4t18 -1t14 4t13.5 9.5t9.5 17zM566 307v-264q1 -37 60 -37v-10h-278v10q58 0 58 37v344q0 29 -11 42.5t-28 12t-33.5 -9.5
t-30.5 -20q-45 -38 -64 -122v-247q1 -37 59 -37v-10h-278v10q59 0 59 37v345q0 36 -48 36h-11v11l219 21v-93q18 40 49 66q46 40 109 40h5q67 0 115.5 -39t48.5 -123z" />
    <glyph glyph-name="ograve" unicode="&#xf2;" horiz-adv-x="536" 
d="M200 739q20 0 38 -20l117 -131h-21l-132 91q-39 30 -19 52q6 8 17 8zM269 473q87 0 162.5 -66.5t75.5 -173.5t-75 -173.5t-163 -66.5t-163 66.5t-75 173.5t75 173.5t163 66.5zM269 456q-33 0 -58 -34.5t-25 -123.5v-130q0 -89 25 -123t58 -34t57.5 34t24.5 123v130
q0 89 -24.5 123.5t-57.5 34.5z" />
    <glyph glyph-name="oacute" unicode="&#xf3;" horiz-adv-x="536" 
d="M343 739q11 0 17 -8q20 -22 -19 -52l-132 -91h-21l118 131q18 20 37 20zM269 473q87 0 162.5 -66.5t75.5 -173.5t-75 -173.5t-163 -66.5t-163 66.5t-75 173.5t75 173.5t163 66.5zM269 456q-33 0 -58 -34.5t-25 -123.5v-130q0 -89 25 -123t58 -34t57.5 34t24.5 123v130
q0 89 -24.5 123.5t-57.5 34.5z" />
    <glyph glyph-name="ocircumflex" unicode="&#xf4;" horiz-adv-x="536" 
d="M247 740h48q9 -12 11 -15l95 -137h-21l-109 96l-109 -96h-21l95 137q2 3 11 15zM269 473q87 0 162.5 -66.5t75.5 -173.5t-75 -173.5t-163 -66.5t-163 66.5t-75 173.5t75 173.5t163 66.5zM269 456q-33 0 -58 -34.5t-25 -123.5v-130q0 -89 25 -123t58 -34t57.5 34t24.5 123
v130q0 89 -24.5 123.5t-57.5 34.5z" />
    <glyph glyph-name="otilde" unicode="&#xf5;" horiz-adv-x="536" 
d="M370 691h19q-6 -44 -42 -61.5t-86 -2.5q-76 22 -95.5 18.5t-26.5 -24.5h-20q10 29 25.5 45t36 19t36.5 1t38 -8q6 -2 21.5 -6.5t21 -6t17.5 -4t18 -1t14 4t13.5 9.5t9.5 17zM269 473q87 0 162.5 -66.5t75.5 -173.5t-75 -173.5t-163 -66.5t-163 66.5t-75 173.5t75 173.5
t163 66.5zM269 456q-33 0 -58 -34.5t-25 -123.5v-130q0 -89 25 -123t58 -34t57.5 34t24.5 123v130q0 89 -24.5 123.5t-57.5 34.5z" />
    <glyph glyph-name="odieresis" unicode="&#xf6;" horiz-adv-x="536" 
d="M357 685q20 0 35 -15t15 -35t-15 -34.5t-35 -14.5t-34.5 14.5t-14.5 34.5t14.5 35t34.5 15zM179 685q20 0 35 -15t15 -35t-15 -34.5t-35 -14.5t-34.5 14.5t-14.5 34.5t14.5 35t34.5 15zM269 473q87 0 162.5 -66.5t75.5 -173.5t-75 -173.5t-163 -66.5t-163 66.5t-75 173.5
t75 173.5t163 66.5zM269 456q-33 0 -58 -34.5t-25 -123.5v-130q0 -89 25 -123t58 -34t57.5 34t24.5 123v130q0 89 -24.5 123.5t-57.5 34.5z" />
    <glyph glyph-name="divide" unicode="&#xf7;" horiz-adv-x="498" 
d="M250 171q19 0 32 -13.5t13 -32.5t-13 -32t-32 -13t-32.5 13t-13.5 32t13.5 32.5t32.5 13.5zM51 263h397v-44l-397 1v43zM250 403q19 0 32 -13.5t13 -32.5t-13 -32t-32 -13t-32.5 13t-13.5 32t13.5 32.5t32.5 13.5z" />
    <glyph glyph-name="oslash" unicode="&#xf8;" horiz-adv-x="536" 
d="M269 456q-33 0 -58 -34.5t-25 -123.5v-130q0 -35 5 -65l144 300q-21 53 -66 53zM395 526h29l-40 -84q55 -31 89 -84.5t34 -124.5q0 -107 -75 -173.5t-163 -66.5q-45 0 -91 20l-35 -72h-30l41 84q-55 31 -89 84.5t-34 123.5q0 107 75 173.5t163 66.5q47 0 91 -19zM202 64
q21 -53 67 -53q33 0 57.5 34t24.5 123v130q0 36 -5 66z" />
    <glyph glyph-name="ugrave" unicode="&#xf9;" 
d="M249 739q20 0 38 -20l117 -131h-20l-133 91q-39 30 -19 52q6 8 17 8zM626 6v-10h-220v106q-19 -41 -49 -67q-44 -39 -109 -39h-5q-67 0 -115.5 39t-48.5 122v231q0 36 -48 36h-11v11l219 21v-379q0 -29 11 -42.5t28 -12t33.5 9.5t30.5 20q45 38 64 122v214q0 36 -48 36
h-10v11l218 21v-413q1 -37 60 -37z" />
    <glyph glyph-name="uacute" unicode="&#xfa;" 
d="M410 739q11 0 17 -8q20 -22 -19 -52l-133 -91h-20l117 131q18 20 38 20zM626 6v-10h-220v106q-19 -41 -49 -67q-44 -39 -109 -39h-5q-67 0 -115.5 39t-48.5 122v231q0 36 -48 36h-11v11l219 21v-379q0 -29 11 -42.5t28 -12t33.5 9.5t30.5 20q45 38 64 122v214
q0 36 -48 36h-10v11l218 21v-413q1 -37 60 -37z" />
    <glyph glyph-name="ucircumflex" unicode="&#xfb;" 
d="M296 740h48q9 -12 11 -15l95 -137h-21l-109 96l-109 -96h-21l96 137zM626 6v-10h-220v106q-19 -41 -49 -67q-44 -39 -109 -39h-5q-67 0 -115.5 39t-48.5 122v231q0 36 -48 36h-11v11l219 21v-379q0 -29 11 -42.5t28 -12t33.5 9.5t30.5 20q45 38 64 122v214q0 36 -48 36
h-10v11l218 21v-413q1 -37 60 -37z" />
    <glyph glyph-name="udieresis" unicode="&#xfc;" 
d="M408 685q20 0 34.5 -15t14.5 -35t-14.5 -34.5t-34.5 -14.5t-35 14.5t-15 34.5t15 35t35 15zM229 685q20 0 35 -15t15 -35t-15 -34.5t-35 -14.5t-34.5 14.5t-14.5 34.5t14.5 35t34.5 15zM626 6v-10h-220v106q-19 -41 -49 -67q-44 -39 -109 -39h-5q-67 0 -115.5 39
t-48.5 122v231q0 36 -48 36h-11v11l219 21v-379q0 -29 11 -42.5t28 -12t33.5 9.5t30.5 20q45 38 64 122v214q0 36 -48 36h-10v11l218 21v-413q1 -37 60 -37z" />
    <glyph glyph-name="yacute" unicode="&#xfd;" horiz-adv-x="528" 
d="M215 456h84v-11q-19 0 -29 -6.5t-11.5 -16.5t0 -18t4.5 -15l7 -16q15 -32 45.5 -96.5t45.5 -96.5l94 236q6 15 -3 22t-28 7v11h105v-11q-38 0 -46 -23q-140 -350 -211 -525q-38 -96 -78 -139q-23 -24 -45 -32t-60 -2q-44 6 -71 36q-14 16 -17.5 38t10.5 41q13 16 35.5 17
t38.5 -15q12 -13 14.5 -41t10 -43.5t34.5 -9.5q22 5 42.5 31t34 55.5t26.5 62.5q3 10 5 14l37 93h-22l-174 371q-1 1 -2 3.5t-3.5 7t-4.5 9.5q-25 49 -63 51v11h195zM432 739q10 0 16 -8q20 -22 -19 -52l-132 -91h-21l118 131q18 20 38 20z" />
    <glyph glyph-name="thorn" unicode="&#xfe;" horiz-adv-x="657" 
d="M374 451q-41 0 -81 -38q-52 -50 -54 -173v-13q1 -62 12.5 -104t41.5 -70q48 -46 99 -36q77 15 77 216q0 218 -95 218zM239 729v-354q45 98 153 98q102 0 170.5 -63.5t69.5 -174.5v-3q-1 -111 -69.5 -174.5t-170.5 -63.5q-108 0 -153 98v-322q1 -36 59 -36v-11h-277v11
q57 0 57 36v891q0 36 -47 36h-10v11z" />
    <glyph glyph-name="ydieresis" unicode="&#xff;" horiz-adv-x="528" 
d="M215 456h84v-11q-19 0 -29 -6.5t-11.5 -16.5t0 -18t4.5 -15l7 -16q15 -32 45.5 -96.5t45.5 -96.5l94 236q6 15 -3 22t-28 7v11h105v-11q-38 0 -46 -23q-140 -350 -211 -525q-38 -96 -78 -139q-23 -24 -45 -32t-60 -2q-44 6 -71 36q-14 16 -17.5 38t10.5 41q13 16 35.5 17
t38.5 -15q12 -13 14.5 -41t10 -43.5t34.5 -9.5q22 5 42.5 31t34 55.5t26.5 62.5q3 10 5 14l37 93h-22l-174 371q-1 1 -2 3.5t-3.5 7t-4.5 9.5q-25 49 -63 51v11h195zM434 685q20 0 35 -15t15 -35t-15 -34.5t-35 -14.5t-34.5 14.5t-14.5 34.5t14.5 35t34.5 15zM256 685
q20 0 35 -15t15 -35t-15 -34.5t-35 -14.5t-34.5 14.5t-14.5 34.5t14.5 35t34.5 15z" />
    <glyph glyph-name="dotlessi" unicode="&#x131;" horiz-adv-x="308" 
d="M298 6v-10h-278v10q59 0 59 37v345q0 36 -49 36h-10v11l219 21v-413q1 -37 59 -37z" />
    <glyph glyph-name="OE" unicode="&#x152;" horiz-adv-x="890" 
d="M325 701q-43 0 -73.5 -74.5t-30.5 -181.5v-185q0 -107 30.5 -181.5t73.5 -74.5q59 0 84 15v661q-31 21 -84 21zM325 716q44 0 84 -8h447v-217h-12q-8 44 -21 84t-40.5 74.5t-60.5 34.5h-130v-320h44q28 0 50 22t33.5 55t17.5 64.5t6 57.5h17v-124.5v-173.5v-124h-17
q0 26 -6 57.5t-17.5 64.5t-33.5 55t-50 22h-44v-321h143q33 0 60.5 34.5t41 75t20.5 84.5h13v-216h-460q-45 -9 -85 -9q-121 0 -207.5 107t-86.5 258q0 150 86.5 256.5t207.5 106.5z" />
    <glyph glyph-name="oe" unicode="&#x153;" horiz-adv-x="818" 
d="M269 455q-33 0 -58 -34t-25 -123v-130q0 -89 25 -123t58 -34t57.5 34t24.5 123v130q0 89 -24.5 123t-57.5 34zM596 473q90 0 136 -43q64 -60 66 -184h-7h-262v-4q0 -45 1.5 -71t7 -65.5t20 -61.5t38.5 -27q31 -6 65 5.5t55 30.5q35 32 48 86h25q-13 -63 -57 -103
q-46 -43 -136 -43q-105 0 -171 60q-69 -60 -156 -60q-88 0 -163 66.5t-75 173.5t75 173.5t163 66.5q86 0 156 -61q67 61 171 61zM615 451q-12 -1 -19 -2q-40 -8 -53 -55.5t-14 -124.5h168q-4 182 -82 182z" />
    <glyph glyph-name="Scaron" unicode="&#x160;" horiz-adv-x="567" 
d="M340 740h-47q-3 4 -11 16l-96 136h22l108 -96l109 96h22l-96 -136q-8 -12 -11 -16zM300 715q89 0 159 -50q41 -29 51 32h7l-6 -206h-11q-19 70 -44.5 115t-55.5 64t-52.5 24.5t-51.5 5.5q-55 0 -90 -37.5t-26 -91.5t70 -94q16 -10 216 -143q59 -39 72 -114.5t-25 -136.5
q-33 -54 -87.5 -76t-156.5 -22q-114 0 -184 50q-41 29 -51 -32h-8v227h17q62 -230 205 -230q48 0 82.5 25.5t44.5 62.5t-12.5 84t-78.5 86q-131 91 -189 134q-54 39 -66 104.5t23 120.5q33 53 89 75.5t159 22.5z" />
    <glyph glyph-name="scaron" unicode="&#x161;" horiz-adv-x="429" 
d="M267 588h-48q-3 4 -11 16l-95 136h21l109 -96l109 96h21l-95 -136q-8 -12 -11 -16zM196 473q47 0 74 -7.5t61 -31.5q13 -13 23.5 -8.5t17.5 40.5h8v-136h-10q-35 124 -152 124q-85 0 -85 -58q0 -23 33 -47t98 -54t76 -36q47 -26 60.5 -71t2.5 -89q-12 -46 -56 -76
t-112 -30q-100 0 -156 39q-13 13 -23 8.5t-17 -40.5h-8v137h9q35 -124 175 -124q85 0 89 52q1 29 -27 52t-93 52t-82 39q-43 24 -60.5 69t-7.5 88.5t53 75.5t109 32z" />
    <glyph glyph-name="Ydieresis" unicode="&#x178;" horiz-adv-x="590" 
d="M444 837q20 0 35 -15t15 -35t-15 -34.5t-35 -14.5t-34.5 14.5t-14.5 34.5t14.5 35t34.5 15zM266 837q20 0 35 -15t15 -35t-15 -34.5t-35 -14.5t-34.5 14.5t-14.5 34.5t14.5 35t34.5 15zM0 708h276v-11q-16 0 -31 -8.5t-8 -26.5l140 -307l145 321q5 12 -5 16.5t-26 4.5v10
h101v-10q-34 0 -44 -21l-156 -344v-289q0 -37 59 -37v-10h-302v10q59 0 59 37v289l-149 329q-17 36 -59 36v11z" />
    <glyph glyph-name="Zcaron" unicode="&#x17d;" horiz-adv-x="584" 
d="M305 740h-48q-3 4 -11 16l-95 136h21l109 -96l109 96h21l-96 -136q-2 -3 -5 -8.5t-5 -7.5zM49 708h531l-343 -689h178q47 0 78 60.5t44 133.5h12v-217h-528l342 689h-180q-47 0 -78 -60.5t-44 -133.5h-13z" />
    <glyph glyph-name="zcaron" unicode="&#x17e;" horiz-adv-x="453" 
d="M231 588h-48q-3 4 -11 16l-95 136h21l109 -96l109 96h21l-95 -136q-8 -12 -11 -16zM47 456h396l-9 -18l-223 -424h93q50 0 77.5 26t37.5 82h7v-126h-405q39 74 116 221t116 221h-71q-109 0 -128 -108h-7v126z" />
    <glyph glyph-name="endash" unicode="&#x2013;" horiz-adv-x="447" 
d="M51 263h345v-44l-345 1v43z" />
    <glyph glyph-name="emdash" unicode="&#x2014;" horiz-adv-x="569" 
d="M51 263h467v-44l-467 1v43z" />
    <glyph glyph-name="quoteleft" unicode="&#x2018;" horiz-adv-x="248" 
d="M198 715v-11q-47 0 -81 -49q-20 -29 -10 -35q1 -1 2 -1h4q25 0 43 -18t18 -44q0 -25 -18 -43t-43 -18q-28 0 -45 20t-17 51q0 75 43 111.5t104 36.5z" />
    <glyph glyph-name="quoteright" unicode="&#x2019;" horiz-adv-x="225" 
d="M112 715q28 0 45 -20t17 -51q0 -148 -120 -148v11q46 0 65 46q12 29 2 38q-2 1 -4 1h-5q-25 0 -43 18t-18 44t17.5 43.5t43.5 17.5z" />
    <glyph glyph-name="quotesinglbase" unicode="&#x201a;" horiz-adv-x="225" 
d="M112 106q28 0 45 -20t17 -51q0 -148 -120 -148v10q45 0 64 46q13 29 2 39q-1 1 -3 1h-5q-25 0 -43 18t-18 44q0 25 17.5 43t43.5 18z" />
    <glyph glyph-name="quotereversed" unicode="&#x201b;" horiz-adv-x="248" 
d="M198 949v-11q-47 0 -81 -49q-20 -29 -10 -35q1 -1 2 -1h4q25 0 43 -18t18 -44q0 -25 -18 -43t-43 -18q-28 0 -45 20t-17 51q0 75 43 111.5t104 36.5z" />
    <glyph glyph-name="quotedblleft" unicode="&#x201c;" horiz-adv-x="402" 
d="M352 715v-11q-47 0 -81 -48q-20 -28 -12 -36q1 -1 3 -1h5q25 0 43 -18t18 -44q0 -25 -18 -43t-43 -18q-28 0 -45 20t-17 51q0 75 43 111.5t104 36.5zM198 715v-11q-47 0 -81 -49q-20 -29 -10 -35q1 -1 2 -1h4q25 0 43 -18t18 -44q0 -25 -18 -43t-43 -18q-28 0 -45 20
t-17 51q0 75 43 111.5t104 36.5z" />
    <glyph glyph-name="quotedblright" unicode="&#x201d;" horiz-adv-x="378" 
d="M113 715q28 0 44.5 -20t16.5 -51q0 -148 -120 -148l-1 11q33 0 52 24t19 47q0 14 -7 14h-4q-26 0 -44 18t-18 43t18.5 43.5t43.5 18.5zM266 715q28 0 45 -20t17 -51q0 -148 -120 -148v11q32 0 51 24t19 47q0 14 -8 14h-4q-26 0 -43.5 18t-17.5 43q0 26 18 44t43 18z" />
    <glyph glyph-name="quotedblbase" unicode="&#x201e;" horiz-adv-x="378" 
d="M266 106q28 0 45 -20t17 -51q0 -148 -120 -148l-1 10q45 0 65 46q13 29 2 39q-1 1 -3 1h-5q-25 0 -43 18t-18 44q0 25 17.5 43t43.5 18zM112 106q28 0 45 -20t17 -51q0 -148 -120 -148v10q45 0 64 46q13 29 2 39q-1 1 -3 1h-5q-25 0 -43 18t-18 44q0 25 17.5 43t43.5 18z
" />
    <glyph glyph-name="uni201F" unicode="&#x201f;" horiz-adv-x="402" 
d="M198 949l1 -11q-37 0 -66 -29.5t-29 -49.5q0 -6 5 -6h4q26 0 43.5 -17.5t17.5 -43.5t-17.5 -44t-43.5 -18q-28 0 -45 20t-17 51q0 74 43.5 111t103.5 37zM351 949l1 -11q-37 0 -65.5 -30t-28.5 -49q0 -6 4 -6h5q25 0 43 -17.5t18 -43.5t-18 -44t-43 -18q-29 0 -45.5 20
t-16.5 51q0 74 43 111t103 37z" />
    <glyph glyph-name="dagger" unicode="&#x2020;" horiz-adv-x="468" 
d="M235 715q15 0 22.5 -10t5.5 -25l-21 -139l142 22q15 2 25 -5.5t10 -22.5t-10 -22.5t-25 -5.5l-144 22q0 -23 2 -43t5.5 -39.5t5.5 -29t7 -28.5t6 -21q-26 -217 -28 -313h-6v1q-1 43 -8 121t-14 135l-6 56q22 86 25 161l-143 -22q-15 -2 -25 5.5t-10 22.5t10 22.5t25 5.5
l142 -22l-21 139q-2 15 5.5 25t22.5 10z" />
    <glyph glyph-name="bullet" unicode="&#x2022;" horiz-adv-x="225" 
d="M112 316q26 0 44 -18t18 -44q0 -25 -18 -43t-44 -18t-43.5 17.5t-17.5 43.5t18 44t43 18z" />
    <glyph glyph-name="guilsinglleft" unicode="&#x2039;" horiz-adv-x="291" 
d="M241 371v-22l-101 -108l101 -107v-23l-190 121v19z" />
    <glyph glyph-name="guilsinglright" unicode="&#x203a;" horiz-adv-x="291" 
d="M51 371l190 -120v-19l-190 -121v23l101 107l-101 108v22z" />
    <glyph glyph-name="Euro" unicode="&#x20ac;" horiz-adv-x="644" 
d="M398 715q36 0 63.5 -11t73.5 -41q40 -26 50 32h8l-6 -206h-11q-19 69 -46 116t-55 66t-51 25t-44 2q-87 -15 -96 -269h220v-32h-221q0 -9 -0.5 -25t-0.5 -23t0.5 -23t0.5 -25h221v-31h-221q6 -246 97 -270q16 -2 34.5 -2t41 14t43 35.5t41.5 64t36 98.5h11l3 -125
q-42 -46 -86.5 -73.5t-105.5 -27.5q-243 0 -271 286h-76v32h74q-2 30 -2 47q0 1 3 49h-75v31h78q8 56 27 105t50 91t80.5 66t111.5 24z" />
    </font>
</defs>
</svg>
