<?xml version="1.0" standalone="no"?>
<!DOCTYPE svg PUBLIC "-//W3C//DTD SVG 1.1//EN" "http://www.w3.org/Graphics/SVG/1.1/DTD/svg11.dtd" >
<svg xmlns="http://www.w3.org/2000/svg" xmlns:xlink="http://www.w3.org/1999/xlink" version="1.1">
<metadata>
Created by FontForge 20191125 at Wed Aug 12 03:27:47 2020
 By convertio
Created by JavaPep,,, with FontForge 2.0 (http://fontforge.sf.net)
</metadata>
<defs>
<font id="Metafiz-Regular" horiz-adv-x="635" >
  <font-face 
    font-family="Metafiz"
    font-weight="400"
    font-stretch="normal"
    units-per-em="1024"
    panose-1="2 0 5 3 0 0 0 0 0 0"
    ascent="819"
    descent="-205"
    x-height="455"
    cap-height="708"
    bbox="-83.32 -279 953 929"
    underline-thickness="51"
    underline-position="-152"
    unicode-range="U+0020-E000"
  />
<missing-glyph horiz-adv-x="374" 
d="M34 0v682h272v-682h-272zM68 34h204v614h-204v-614z" />
    <glyph glyph-name="gj" unicode="gj" horiz-adv-x="831" 
d="M536 -261zM453 510h4q52 -2 81 -34q14 -13 17 -33t-6 -31q-10 -13 -26.5 -14.5t-31.5 12.5q-6 6 -15.5 23.5t-17 28t-23 18t-33.5 -6.5q-22 -13 -37 -39q82 -59 83 -156q0 -57 -32 -103t-78 -69t-93 -23q-42 0 -86 20.5t-74 56.5q-8 -27 -8 -53t21 -46.5t59 -23.5
q35 -3 67 -3h154q57 0 100 -27t54 -83q12 -63 -26.5 -115t-115.5 -73q-41 -11 -109.5 -13.5t-108.5 3.5q-58 7 -100 30.5t-50 62.5q-13 50 13 93t73 65q-32 9 -53.5 41.5t-19.5 78t36 84.5q-29 46 -29 97q1 85 65 140t138 55q50 0 100 -28q37 63 108 65zM245 454
q-44 0 -78.5 -30t-34.5 -102v-88q0 -72 34.5 -101.5t78.5 -29.5t78.5 29.5t34.5 101.5v88q0 72 -34.5 102t-78.5 30zM136 -37q-17 -16 -28.5 -38t-16 -47t3.5 -49.5t27 -44t59.5 -31.5t96.5 -12q49 0 86.5 10.5t57 27t32 37.5t12 41.5t-3.5 38.5q-5 17 -16 28.5t-21.5 17.5
t-29.5 9t-29 3t-31 -0.5t-26 -0.5h-109q-34 0 -64 10zM733 728q29 0 50 -20.5t21 -49.5t-21 -49.5t-50 -20.5t-49 20.5t-20 49.5t20 49.5t49 20.5zM778 456v-306q0 -39 -0.5 -127.5t-0.5 -138.5q0 -83 -48 -122t-116 -40h-4q-47 2 -73 17q-13 7 -6 19q6 8 15 3
q17 -10 41 -10.5t47.5 9t39.5 38t16 71.5v519q0 36 -48 36h-10v11z" />
    <glyph glyph-name=".notdef" horiz-adv-x="374" 
d="M34 0v682h272v-682h-272zM68 34h204v614h-204v-614z" />
    <glyph glyph-name=".null" horiz-adv-x="0" 
 />
    <glyph glyph-name="nonmarkingreturn" horiz-adv-x="341" 
 />
    <glyph glyph-name="space" unicode=" " horiz-adv-x="256" 
 />
    <glyph glyph-name="exclam" unicode="!" horiz-adv-x="207" 
d="M104 87q22 0 37 -15t15 -37t-15 -37t-37 -15t-37 15t-15 37t15 37t37 15zM104 733q60 0 52 -98l-43 -452h-17l-43 452q-10 98 51 98z" />
    <glyph glyph-name="quotedbl" unicode="&#x22;" horiz-adv-x="235" 
d="M162 733q26 0 22 -41l-16 -145q-1 -7 -3.5 -10t-5 -0.5t-3.5 10.5l-17 145q-4 41 23 41zM74 733q26 0 22 -41l-16 -145q-1 -7 -3.5 -10t-5 -0.5t-3.5 10.5l-16 145q-4 41 22 41z" />
    <glyph glyph-name="numbersign" unicode="#" horiz-adv-x="741" 
d="M316 429l-58 -165h168l58 165h-168zM380 699h31l-86 -244h168l86 244h30l-86 -244h168l-9 -26h-167l-58 -165h229l-9 -25h-229l-86 -244h-30l85 244h-168l-85 -244h-31l86 244h-168l9 25h168l58 165l-230 1l9 25h230z" />
    <glyph glyph-name="dollar" unicode="$" horiz-adv-x="617" 
d="M310 304v-303q74 2 117 29t50 73q8 54 -19.5 87t-98.5 81q-3 2 -5 3.5t-5 3.5t-5.5 3.5t-5.5 3.5q-10 7 -28 19zM293 697q-94 -11 -116 -77q-11 -37 10 -78.5t78 -79.5q10 -6 28 -18v253zM293 777h17v-63h14q92 0 159 -50q41 -29 51 31h7l-5 -204h-11q-15 56 -36 96
t-41 61t-45.5 33t-42.5 14.5t-40 2.5h-10v-266q34 -22 94.5 -61.5t77.5 -50.5q60 -40 76.5 -107t-20.5 -129q-32 -52 -83 -75t-145 -24v-62h-17v62q-113 0 -183 50q-42 29 -52 -31h-7v226h18q35 -132 91.5 -180t132.5 -49v315q-116 80 -147 102q-123 91 -69 204
q39 83 216 91v64z" />
    <glyph glyph-name="percent" unicode="%" horiz-adv-x="740" 
d="M524 713h29l-336 -703h-29zM538 291q-34 0 -60 -22.5t-26 -80.5v-78q0 -58 26 -81t60 -23q33 0 58.5 23t25.5 81v78q0 58 -25.5 80.5t-58.5 22.5zM538 302q56 0 103.5 -43.5t48.5 -110.5q1 -66 -47.5 -109.5t-104.5 -43.5t-105 43t-48 110t49 110.5t104 43.5zM204 688
q-34 0 -59.5 -22.5t-25.5 -80.5v-79q0 -58 26 -81t59 -23t59 23t26 81v79q0 58 -25.5 80.5t-59.5 22.5zM204 699q56 0 103.5 -43.5t48.5 -110.5q1 -66 -47.5 -110t-104.5 -44q-55 0 -104.5 43.5t-48.5 110.5t49 110.5t104 43.5z" />
    <glyph glyph-name="ampersand" unicode="&#x26;" horiz-adv-x="837" 
d="M648 449q3 -73 -1.5 -119t-23.5 -92q-28 -69 -76 -119q40 -45 79 -67q49 -29 95.5 6.5t48.5 82.5h17q-5 -53 -33 -92t-66.5 -55.5t-82.5 -13t-80 30.5q-23 17 -49 46q-19 -16 -49 -34q-66 -37 -133.5 -43.5t-127.5 24.5t-92 100q-19 41 -21.5 87.5t12 93t55.5 90
t103 72.5q6 3 15 7t21.5 9.5t20.5 9.5q-17 163 60 212q37 24 80 24q14 0 31 -3q23 -5 40 -24t22 -43t-5 -50t-36 -43q-32 -21 -56 -33.5t-33.5 -17t-13.5 -7.5q22 -97 65 -191.5t99 -162.5q54 55 75 121t20 176h-1v15q0 36 -63 36v10h148v-10q-61 0 -64 -33zM430 695
q-34 0 -51.5 -31.5t-17 -74t4.5 -85.5q57 30 79 42q41 22 50 54q9 33 -10.5 64.5t-54.5 30.5zM282 457q-15 -7 -33 -18q-64 -38 -89.5 -101t-11.5 -121.5t49.5 -110.5t94 -67.5t121.5 8.5q17 7 47 29q-62 76 -113.5 182t-64.5 199z" />
    <glyph glyph-name="quotesingle" unicode="'" horiz-adv-x="147" 
d="M74 733q26 0 22 -41l-16 -145q-1 -7 -3.5 -10t-5 -0.5t-3.5 10.5l-16 145q-4 41 22 41z" />
    <glyph glyph-name="parenleft" unicode="(" horiz-adv-x="276" 
d="M217 731l9 -8q-137 -190 -133.5 -442t133.5 -429l-9 -8q-166 189 -166 443t166 444z" />
    <glyph glyph-name="parenright" unicode=")" horiz-adv-x="276" 
d="M59 731q166 -190 166 -444t-166 -443l-8 8q130 177 133.5 429t-133.5 442z" />
    <glyph glyph-name="asterisk" unicode="*" horiz-adv-x="354" 
d="M177 699q28 0 22 -35l-17 -101l76 69q26 24 41 0t-17 -37l-97 -40l97 -41q32 -13 17 -37q-14 -24 -41 1l-76 68l17 -101q6 -34 -22 -34q-26 0 -21 34l17 101l-77 -68q-26 -24 -40 -1q-15 24 17 37l96 41l-96 40q-32 13 -17 37q14 24 40 0l77 -69l-17 101q-6 35 21 35z
" />
    <glyph glyph-name="plus" unicode="+" horiz-adv-x="498" 
d="M235 440h29v-184h184v-30l-184 1v-184h-29v184h-184v29h184v184z" />
    <glyph glyph-name="comma" unicode="," horiz-adv-x="215" 
d="M165 35q0 -74 -29.5 -101t-80.5 -27v9q39 0 58.5 26t14.5 64q-9 -4 -22 -4q-22 0 -36.5 15t-14.5 37q0 20 14 36t34 16h2h1q27 0 43 -21t16 -50z" />
    <glyph glyph-name="hyphen" unicode="-" horiz-adv-x="392" 
d="M51 243h290v-48h-290v48z" />
    <glyph glyph-name="period" unicode="." horiz-adv-x="205" 
d="M103 87q22 0 37 -15t15 -37t-15 -37t-37 -15t-37 15t-15 37t15 37t37 15z" />
    <glyph glyph-name="slash" unicode="/" horiz-adv-x="315" 
d="M298 699h28l-247 -704h-28z" />
    <glyph glyph-name="zero" unicode="0" horiz-adv-x="562" 
d="M281 719q46 0 89 -19.5t81.5 -60t62 -115t23.5 -173.5t-23.5 -174t-62 -115.5t-81.5 -59.5t-89 -19q-36 0 -70.5 11t-68.5 38.5t-59.5 68.5t-41 105.5t-15.5 144.5t15.5 144t41 105t59.5 68.5t68.5 39t70.5 11.5zM281 703q-31 0 -54.5 -16.5t-42.5 -55.5t-29 -109
t-10 -171q0 -134 18.5 -214.5t47 -109t70.5 -28.5t71 28.5t47.5 109.5t18.5 214t-18.5 213.5t-47.5 109.5t-71 29z" />
    <glyph glyph-name="one" unicode="1" horiz-adv-x="291" 
d="M267 5v-10h-208v10q57 0 57 36v520q0 20 -7.5 24t-42.5 3q-24 -1 -40 -1v12q40 0 71 11t46.5 26.5t25 31.5t11.5 27l2 11h28v-665q1 -36 57 -36z" />
    <glyph glyph-name="two" unicode="2" horiz-adv-x="583" 
d="M306 720q49 0 89 -9.5t75.5 -32t56 -65t21.5 -102.5q2 -91 -62 -154t-247 -146q-102 -46 -154 -123q24 4 56 6t73.5 1.5t71 -1.5t79 -3t67.5 -3q47 -2 79 24.5t32 63.5h9q-1 -7 -2.5 -37t-3 -43t-9 -37t-19 -35.5t-34.5 -21t-54 -9.5q-30 0 -119 5.5t-139.5 6
t-145.5 -9.5q-1 12 0.5 26t11.5 41.5t29 53.5t59.5 59.5t96.5 62.5q76 39 128.5 97t69.5 116t11 110.5t-44.5 88t-99.5 41.5q-100 11 -145 -32q-20 -19 -27 -37t-6.5 -26.5t8 -29t9.5 -26.5q9 -30 -8 -50.5t-41 -12.5t-31 45q-12 62 45 122.5t141 70.5q40 5 73 5z" />
    <glyph glyph-name="three" unicode="3" horiz-adv-x="574" 
d="M301 720q98 0 162 -48.5t56 -140.5q-4 -47 -40 -85.5t-107 -55.5q176 -27 177 -184q1 -98 -77 -159.5t-177 -63.5h-39q-102 0 -170 55.5t-59 125.5q5 37 29 46t43 -11t11 -50q-2 -8 -9 -26t-8 -26.5t6.5 -24.5t28.5 -34q29 -25 77.5 -33.5t87.5 -0.5q131 26 131 203
q0 80 -39.5 125t-114.5 34v13l-1 17q42 0 76.5 20t54 50.5t25.5 67.5t-3.5 70t-38 59.5t-72.5 34.5q-34 9 -80 0.5t-68 -33.5q-30 -34 -14 -91q8 -28 -8 -44.5t-37 -9t-26 36.5q-11 67 50 115t173 48z" />
    <glyph glyph-name="four" unicode="4" horiz-adv-x="576" 
d="M549 5v-10h-208v10q56 0 56 36v136h-371v23q68 62 110.5 131t54.5 131t8 113.5t-22 90.5q-10 22 3 37.5t34 15.5q37 0 45 -40q50 -239 -208 -479h346v394q22 3 38.5 11.5t24.5 19.5t12.5 21.5t5.5 17.5v7h14v-471h60v-23h-60v-136q1 -36 57 -36z" />
    <glyph glyph-name="five" unicode="5" horiz-adv-x="574" 
d="M395 705q31 0 54 -9.5t34.5 -21t19 -35.5t9 -37t3 -43t2.5 -37h-9q0 37 -32 63.5t-79 24.5q-16 -1 -64 -3.5t-71 -3t-59.5 -1t-63.5 1.5t-50 6v-225q70 53 193 53q264 -1 267 -218q1 -102 -77.5 -168.5t-176.5 -68.5h-39q-103 2 -170.5 57t-58.5 124q5 37 29 46t43.5 -11
t11.5 -50q-2 -9 -9 -26.5t-8.5 -26t6 -24.5t28.5 -34q29 -25 77.5 -33.5t87.5 -0.5q139 28 139 231q0 77 -40 127.5t-111 51.5q-132 0 -199 -67l-16 -16v31l-1 1l1 1v338q88 -10 125.5 -9.5t103.5 6.5t100 6z" />
    <glyph glyph-name="six" unicode="6" horiz-adv-x="588" 
d="M353 719q92 0 140.5 -53.5t28.5 -127.5q-8 -29 -32.5 -35.5t-41.5 12t-6 48.5q3 9 11 26.5t10.5 26t3 21.5t-7 24.5t-23.5 23.5q-48 39 -136 10q-69 -23 -110 -118t-41 -213q18 32 62.5 58.5t115.5 26.5q109 0 172.5 -61t63.5 -165q0 -119 -73 -179.5t-189 -60.5h-4h-5
q-112 0 -179 66q-44 43 -66.5 123t-21.5 165.5t21 159.5q20 75 76 136q81 86 231 86zM321 422q-77 0 -122.5 -51t-45.5 -149q1 -30 6 -60.5t19 -71.5t47.5 -66t81.5 -24q59 2 100 53t41 170q0 100 -26.5 146t-90.5 53h-10z" />
    <glyph glyph-name="seven" unicode="7" horiz-adv-x="486" 
d="M147 705q34 0 96 -5.5t96.5 -6t121.5 9.5q0 -45 -17.5 -96t-44 -104.5t-54 -115.5t-50 -153t-29.5 -194q-3 -43 -39 -54q-37 -12 -65 19q-21 24 -21 66q0 58 18 108.5t48.5 94.5t64.5 87.5t73.5 109t67.5 138.5q-26 -5 -60 -6t-60.5 0.5t-73 4t-73.5 3.5q-47 2 -79 -25
t-32 -64h-9q1 8 2 37t2.5 43t9 37.5t19 35t34.5 21t54 9.5z" />
    <glyph glyph-name="eight" unicode="8" horiz-adv-x="539" 
d="M301 430q40 30 65.5 68t26.5 73q4 68 -30.5 100.5t-92.5 29.5q-57 -4 -84 -46.5t-14 -101.5q5 -24 19.5 -44.5t38 -37t36.5 -23.5t35 -18zM236 372q-59 -19 -94.5 -73.5t-35.5 -113.5q0 -72 46.5 -127.5t108.5 -55.5q58 0 94.5 30.5t50.5 80.5q8 30 7.5 56.5t-4.5 46
t-20 40.5t-27.5 33t-38.5 30t-41 26.5t-46 26.5zM270 720q90 0 137.5 -37t47.5 -109q0 -41 -28.5 -77t-55.5 -52t-51 -25q31 -18 45 -26.5t42.5 -27.5t43 -34.5t31.5 -36.5t24.5 -44.5t7.5 -49.5q0 -92 -69.5 -155t-183.5 -63q-100 0 -167.5 63.5t-67.5 154.5q0 41 18.5 75
t48 56t59 35.5t58.5 19.5q-67 40 -102 83t-32 105q4 67 59 106t135 39z" />
    <glyph glyph-name="nine" unicode="9" horiz-adv-x="588" 
d="M141 479q0 -100 26.5 -146t90.5 -53q82 -4 130 47.5t48 152.5q-1 29 -6 59.5t-19 71.5t-46.5 66t-79.5 25q-60 0 -102 -51.5t-42 -171.5zM288 719h4h5q111 0 179 -66q44 -43 66.5 -123t21.5 -165.5t-21 -159.5q-20 -75 -76 -136q-81 -86 -231 -86q-92 0 -140.5 53.5
t-28.5 127.5q8 29 32.5 35.5t41.5 -12t6 -48.5q-3 -9 -11 -26.5t-10.5 -26t-3 -21.5t7 -24.5t23.5 -23.5q48 -39 136 -10q69 23 110 118t41 213q-18 -32 -62.5 -58.5t-115.5 -26.5q-109 0 -172.5 61t-63.5 165q0 119 73 179.5t189 60.5z" />
    <glyph glyph-name="colon" unicode=":" horiz-adv-x="205" 
d="M103 87q22 0 37 -15t15 -37t-15 -37t-37 -15t-37 15t-15 37t15 37t37 15zM103 464q22 0 37 -15t15 -37t-15 -37t-37 -15t-37 15t-15 37t15 37t37 15z" />
    <glyph glyph-name="semicolon" unicode=";" horiz-adv-x="215" 
d="M165 35q0 -74 -29.5 -101t-80.5 -27v9q39 0 58.5 26t14.5 64q-9 -4 -22 -4q-22 0 -36.5 15t-14.5 37q0 20 14 36t34 16h2h1q27 0 43 -21t16 -50zM103 464q22 0 37 -15t15 -37t-15 -37t-37 -15t-37 15t-15 37t15 37t37 15z" />
    <glyph glyph-name="less" unicode="&#x3c;" horiz-adv-x="645" 
d="M595 488v-28l-521 -219l521 -218v-28l-544 232v29z" />
    <glyph glyph-name="equal" unicode="=" horiz-adv-x="535" 
d="M484 183v-30h-433v29zM51 330l433 -1v-29h-433v30z" />
    <glyph glyph-name="greater" unicode="&#x3e;" horiz-adv-x="645" 
d="M51 488l544 -232v-29l-544 -232v28l521 218l-521 219v28z" />
    <glyph glyph-name="question" unicode="?" horiz-adv-x="527" 
d="M192 87q22 0 37 -15t15 -37t-15 -37t-37 -15t-37 15t-15 37t15 37t37 15zM266 733q92 0 153 -44.5t57 -131.5q-2 -46 -19 -80.5t-42 -56t-55 -39t-59 -34t-52.5 -37t-37.5 -52.5t-13 -75h-19q0 32 0.5 43t5.5 43t15.5 50.5t33 43.5t55.5 44q104 60 98 180
q-3 52 -35.5 85.5t-91.5 40.5q-39 5 -78.5 -5t-59.5 -36q-16 -20 -18.5 -41.5t11.5 -36.5q22 -22 3 -49q-16 -24 -37 -17q-18 6 -26 35q-18 63 40 116.5t171 53.5z" />
    <glyph glyph-name="at" unicode="@" horiz-adv-x="903" 
d="M478 527q-45 0 -81.5 -35.5t-53.5 -115.5q-20 -94 3 -140t66 -51q27 -3 65 32.5t60 90.5l22 119q-2 47 -24.5 73.5t-56.5 26.5zM474 733q165 0 276 -109.5t101 -265.5q-4 -69 -33 -131q-28 -54 -83 -86t-124 -26q-52 5 -75 44t-10 95q-55 -89 -151 -89q-66 0 -101.5 55.5
t-21.5 142.5q8 51 32.5 89.5t56 58.5t62.5 29t58 7q88 -8 107 -71v1l9 47h73q-28 -143 -57 -300q-10 -54 26 -73.5t92 4.5q102 42 115 203q9 147 -95.5 251t-258.5 104q-148 0 -240.5 -102.5t-101.5 -252.5t72 -254.5t229 -104.5q97 0 190 50l9 -17q-92 -49 -201 -49
q-165 0 -276 109.5t-101 265.5t133.5 265.5t288.5 109.5z" />
    <glyph glyph-name="A" unicode="A" horiz-adv-x="589" 
d="M253 607l-120 -374h240l-53 166q-11 34 -33.5 104t-33.5 104zM262 708h62q139 -434 208 -650q2 -7 7.5 -16.5t21 -21.5t34.5 -13v-10h-130h-74v10q23 1 32 14t8 24t-4 20l-47 145h-254l-58 -179q-4 -12 6.5 -18t26.5 -6v-10h-101v10q17 -1 29.5 7t15.5 17z" />
    <glyph glyph-name="B" unicode="B" horiz-adv-x="628" 
d="M20 709h350q91 -1 143 -47.5t52 -132.5q0 -120 -103 -162q146 -31 146 -181q0 -100 -59 -144.5t-158 -44.5h-371v11q59 0 59 36v617q0 36 -59 36v12zM179 685v-311h193q47 0 69 42t22 113t-22.5 113.5t-68.5 42.5h-193zM179 351v-330h196q50 0 79.5 44t29.5 121
q0 75 -29.5 119.5t-79.5 45.5h-196z" />
    <glyph glyph-name="C" unicode="C" horiz-adv-x="581" 
d="M323 717q67 0 149 -52q40 -26 50 32h8l-6 -206h-11q-58 235 -225 203q-39 -7 -67.5 -44.5t-43.5 -92t-22 -106.5t-7 -100q0 -52 7 -103.5t21.5 -104t43.5 -89.5t68 -48q19 -5 37 -6t46 7.5t51.5 29t48.5 65.5t42 110h11l3 -125q-91 -101 -204 -101q-127 0 -209.5 108.5
t-82.5 256.5q0 147 80 254q86 112 212 112z" />
    <glyph glyph-name="D" unicode="D" horiz-adv-x="638" 
d="M20 709h242q69 0 79 -2q111 -6 189 -107.5t78 -247.5q0 -79 -24.5 -147.5t-64 -113t-86 -69.5t-92.5 -25h-321v11q59 0 59 36v617q0 36 -59 36v12zM269 685h-91v-665q178 0 187 1q38 5 69 69.5t42 156t6 185t-39 165.5t-92 87q-4 1 -82 1z" />
    <glyph glyph-name="E" unicode="E" horiz-adv-x="561" 
d="M20 708h506v-217h-12q-8 44 -21 84t-40.5 74.5t-60.5 34.5h-213v-320h127q37 0 62.5 38.5t34.5 81.5t9 80h18v-125v-174v-124h-18q0 37 -9 80t-34.5 81.5t-62.5 38.5h-127v-322h226q33 0 60.5 34.5t41 75.5t20.5 85h13v-217h-520v10q59 0 59 37v617q0 37 -59 37v10z" />
    <glyph glyph-name="F" unicode="F" horiz-adv-x="546" 
d="M20 707h506v-216h-12q-8 44 -21 84t-40.5 74.5t-60.5 34.5h-213v-320h127q28 0 50 22t33.5 55t17 64.5t5.5 57.5h18v-124.5v-173.5v-124h-18q0 26 -5.5 57.5t-17 64.5t-33.5 55t-50 22h-127v-298q1 -35 59 -35v-12h-218v12q59 0 59 36v617q0 37 -59 37v10z" />
    <glyph glyph-name="G" unicode="G" horiz-adv-x="627" 
d="M324 717q81 -2 147 -53q40 -30 51 32h8l-7 -206h-11q-13 50 -31 88.5t-37 59.5t-40 36t-39.5 18t-36.5 5t-30 -2q-50 -5 -84.5 -56t-50.5 -127t-16 -170q0 -149 39.5 -245.5t118.5 -96.5q17 0 33 3.5t36 15.5t34.5 32t25.5 56.5t12 84.5v75q-2 34 -59 34v10h210v-10
q-59 0 -59 -36v-238q-11 19 -32 23.5t-40.5 -0.5t-34.5 -16q-54 -49 -126 -49q-114 0 -194.5 107t-80.5 258q0 150 81 254q87 113 213 113z" />
    <glyph glyph-name="H" unicode="H" horiz-adv-x="700" 
d="M229 696q-48 0 -49 -36v-315h341v315q0 36 -48 36h-11v11h218v-11h-10q-48 0 -49 -36v-618q1 -36 59 -36v-11h-218v11q59 0 59 36v279h-341v-279q1 -36 59 -36v-11h-218v11q59 0 59 36v618q0 36 -48 36h-11v11h218v-11h-10z" />
    <glyph glyph-name="I" unicode="I" horiz-adv-x="278" 
d="M238 696q-48 0 -49 -35v-618q1 -37 60 -37v-10h-218v10q58 0 58 37v618q0 35 -48 35h-10v12h218v-12h-11z" />
    <glyph glyph-name="J" unicode="J" horiz-adv-x="539" 
d="M301 707h218v-11q-59 0 -59 -36v-461q0 -62 -19 -105.5t-53.5 -66t-75.5 -32.5t-93 -10q-100 0 -159.5 46.5t-59.5 139.5q0 39 20.5 67.5t60.5 25.5q35 -3 49.5 -28.5t4.5 -60t-39 -61.5q-39 -36 4 -71t104 -35q83 0 119.5 47t36.5 139v466q-1 36 -59 36v11z" />
    <glyph glyph-name="K" unicode="K" horiz-adv-x="712" 
d="M229 697q-48 0 -49 -36v-417q31 37 98 116.5t97 114.5q156 185 169 200q12 13 1 17.5t-27 4.5v10h113v-10q-38 0 -56 -22q-10 -12 -76.5 -90.5t-110.5 -130.5l253 -412q22 -36 61 -36v-10h-218v10q25 0 37.5 10t1.5 29l-202 330q-15 -17 -66 -77.5t-75 -88.5v-166
q1 -37 59 -37v-10h-218v10q59 0 59 37v618q0 36 -48 36h-11v11h218v-11h-10z" />
    <glyph glyph-name="L" unicode="L" horiz-adv-x="549" 
d="M229 697q-48 0 -49 -36v-642h215q25 0 47 19t36 50.5t23 62t15 62.5h14v-217h-509v10h6h1q52 0 52 37v618q0 36 -48 36h-11v11h218v-11h-10z" />
    <glyph glyph-name="M" unicode="M" horiz-adv-x="749" 
d="M718 696q-48 0 -49 -35v-618q1 -37 59 -37v-10h-218v10q59 0 59 37v604l-205 -651h-54l-217 656v-609q0 -37 50 -37v-10h-123v10q51 0 51 37v618q0 35 -51 35v12h161l195 -599l188 599h164v-12h-10z" />
    <glyph glyph-name="N" unicode="N" horiz-adv-x="607" 
d="M122 708l392 -572v525q0 37 -50 37v10h123v-10q-50 0 -50 -37v-665h-48l-396 577v-530q0 -37 50 -37v-10h-123v10q50 0 50 37v618q0 36 -50 36v11h102z" />
    <glyph glyph-name="O" unicode="O" horiz-adv-x="651" 
d="M326 695q-76 0 -124 -56.5t-48 -165.5v-245q0 -109 48 -165.5t124 -56.5t125 57t49 165v245q0 108 -49 165t-125 57zM326 715q122 0 209 -107t87 -258t-87 -258t-209 -107t-208.5 107t-86.5 258t86.5 258t208.5 107z" />
    <glyph glyph-name="P" unicode="P" horiz-adv-x="587" 
d="M181 684v-352h187q47 1 72 50t25 126q0 78 -24.5 127t-72.5 49h-187zM21 708h349q87 -1 142.5 -58.5t55.5 -141.5t-55 -141t-143 -57h-189v-267q1 -37 59 -37v-10h-219v10q59 0 59 37v618q0 36 -59 36v11z" />
    <glyph glyph-name="Q" unicode="Q" horiz-adv-x="651" 
d="M412 2q-43 -16 -86 -16q-122 0 -208 106.5t-86 258.5q0 151 86 257.5t208 106.5t208.5 -106.5t87.5 -257.5q0 -102 -41.5 -187.5t-111.5 -132.5q25 -27 43 -42t42 -27.5t49.5 -9t52.5 22.5q-22 -40 -44 -63t-44.5 -23.5t-38 1t-40.5 25.5t-35.5 35.5t-36.5 45.5
q-3 4 -5 6zM326 695q-76 0 -124 -56.5t-48 -165.5v-245q0 -71 22 -123q47 52 114 52q29 0 59 -16.5t48 -33.5t48 -50q55 58 55 171v245q0 108 -49 165t-125 57zM183 92q46 -86 143 -86q38 0 71 15q-52 66 -83 92q-53 45 -131 -21z" />
    <glyph glyph-name="R" unicode="R" horiz-adv-x="630" 
d="M179 684v-352h188q47 1 72 50t25 126q0 78 -24.5 127t-72.5 49h-188zM21 708h348q87 -1 142.5 -58.5t55.5 -141.5q0 -63 -32.5 -113t-89.5 -72q33 -17 53 -62.5t47 -144.5q26 -97 48 -45l7 24l20 -5q-28 -109 -77 -109q-30 0 -47 21t-37 87q-40 138 -62 175
q-25 43 -57 46h-161v-267q0 -37 59 -37v-10h-217v10q58 0 58 37v618q0 35 -58 35v12z" />
    <glyph glyph-name="S" unicode="S" horiz-adv-x="567" 
d="M299 715q92 0 159 -50q41 -29 51 31h7l-5 -205h-11q-15 56 -36 96.5t-41 61.5t-45.5 33t-42.5 14.5t-40 2.5q-55 0 -93 -22t-50 -57q-12 -37 9.5 -78.5t78.5 -79.5q214 -140 217 -142q61 -40 77 -107.5t-21 -129.5q-33 -54 -87.5 -76t-156.5 -22q-115 0 -185 50
q-41 29 -51 -31h-7v226h17q19 -70 45 -117.5t57.5 -71t61 -32t65.5 -8.5q80 0 126 26.5t54 75.5q4 29 -1.5 51t-25.5 43.5t-37.5 35t-55.5 39.5q-12 9 -19 13q-150 103 -191 133q-123 90 -70 204q43 93 247 93z" />
    <glyph glyph-name="T" unicode="T" horiz-adv-x="610" 
d="M414 6v-10h-218v10q58 0 58 37v618q0 14 -7 18.5t-24 4.5h-71q-33 0 -60.5 -34.5t-40.5 -74.5t-21 -84h-12v217h574v-217h-13q-8 44 -21 84t-40.5 74.5t-60.5 34.5h-71q-23 0 -27 -7h-1q-4 -8 -4 -16v-618q1 -37 60 -37z" />
    <glyph glyph-name="U" unicode="U" horiz-adv-x="650" 
d="M21 708h216v-11q-58 0 -58 -36v-467q0 -106 49.5 -143t147.5 -37q92 0 136 50.5t44 131.5v465q0 36 -50 36v11h123v-11q-50 0 -51 -36v-462q0 -62 -17.5 -105t-50.5 -66t-73.5 -32.5t-94.5 -9.5q-262 0 -262 213v462q0 36 -59 36v11z" />
    <glyph glyph-name="V" unicode="V" horiz-adv-x="594" 
d="M130 708h74v-11q-23 -1 -32 -14t-8 -24t4 -20l174 -542l185 576q4 12 -6.5 18t-26.5 6v11h101v-11q-17 1 -29.5 -6.5t-15.5 -16.5l-217 -677h-62q-139 433 -208 649q-2 7 -7.5 16.5t-21 21.5t-34.5 13v11h130z" />
    <glyph glyph-name="W" unicode="W" horiz-adv-x="930" 
d="M511 709q28 -101 83.5 -304t83.5 -305l184 573q4 12 -6.5 18t-26.5 6v11h101v-11q-17 1 -29.5 -6.5t-15.5 -16.5l-217 -677h-64l-144 528l-120 -528h-69q-139 433 -208 649q-2 7 -7.5 16.5t-21 21.5t-34.5 13v11h130h74v-11q-23 -1 -32 -14t-8 -24t4 -20l107 -334
l66 -204l138 608h32z" />
    <glyph glyph-name="X" unicode="X" horiz-adv-x="601" 
d="M0 708h219v-12q-17 0 -33.5 -8.5t-5.5 -26.5l139 -236q101 163 154 252q6 11 -1.5 15.5t-25.5 4.5v11h107v-11q-38 0 -53 -21q-16 -26 -169 -272l214 -363q20 -34 57 -34v-11h-219v11q17 0 33 8.5t6 26.5l-163 276q-134 -216 -180 -292q-6 -11 2 -15.5t26 -4.5v-10h-107
v10q38 0 53 21q189 306 194 313l-189 321q-21 35 -58 35v12z" />
    <glyph glyph-name="Y" unicode="Y" horiz-adv-x="590" 
d="M404 7v-11h-218v11q58 0 58 37v288q-31 55 -93 164.5t-93 164.5q-20 36 -58 36v12h204l3 -12h-10q-15 0 -29 -8t-7 -24l174 -307l186 320q5 11 -3.5 15t-27.5 4v10h100v-10q-29 0 -41 -19l-204 -349v-285q1 -37 59 -37z" />
    <glyph glyph-name="Z" unicode="Z" horiz-adv-x="584" 
d="M49 708h531l-433 -689h268q47 0 78 60t44 133h12v-216h-526l431 688h-271q-47 0 -78 -60t-44 -133h-12v217z" />
    <glyph glyph-name="bracketleft" unicode="[" horiz-adv-x="214" 
d="M51 731h112l1 -14v-3h-85v-426v-427h85v-3l-1 -14l-112 1v443v443z" />
    <glyph glyph-name="backslash" unicode="\" horiz-adv-x="334" 
d="M9 699h28l247 -704h-28z" />
    <glyph glyph-name="bracketright" unicode="]" horiz-adv-x="214" 
d="M164 731q-1 -296 -1 -444v-443h-112v14v3h85v427v426h-85v3v14h113z" />
    <glyph glyph-name="asciicircum" unicode="^" horiz-adv-x="390" 
d="M189 699h13l138 -288h-30l-114 239l-115 -239h-30z" />
    <glyph glyph-name="underscore" unicode="_" horiz-adv-x="703" 
d="M51 -39h601v-30l-601 1v29z" />
    <glyph glyph-name="grave" unicode="`" horiz-adv-x="276" 
d="M73 891q16 0 36 -22l116 -129h-13l-133 95q-40 28 -22 49q7 7 16 7z" />
    <glyph glyph-name="a" unicode="a" horiz-adv-x="487" 
d="M438 310v-222q0 -32 12 -43.5t22.5 -9t21.5 8.5l4 -11q-35 -28 -67 -37t-56.5 11.5t-26.5 76.5q-65 -91 -206 -91q-56 0 -86 34.5t-30 79.5q0 87 80 119q27 11 70 22t69.5 19t56 29.5t46.5 56.5v27q0 31 -22.5 48t-46.5 20.5t-47 0.5q-41 -5 -74 -25q-19 -14 -21 -27
t6.5 -30t9.5 -25q5 -49 -42 -49q-16 0 -26.5 14.5t-10.5 36.5q0 30 21 56.5t48 42.5q50 30 122 30q83 0 128 -43t45 -120zM348 310q-37 -47 -112 -71q-8 -3 -21.5 -10t-38 -22t-42.5 -37t-20 -45q-4 -40 18.5 -66t55.5 -31q44 -6 87.5 18.5t72.5 62.5v201z" />
    <glyph glyph-name="b" unicode="b" horiz-adv-x="627" 
d="M351 451q-72 0 -119 -40q-63 -52 -64 -162v-32q1 -110 64 -162q28 -23 73 -34t71 -2q41 13 67 53.5t34.5 80t8.5 80.5q1 84 -32.5 145.5t-83.5 71.5q-5 1 -19 1zM168 728v-366q16 38 49 66q54 46 146 46q102 0 170 -63.5t69 -175.5v-3q-1 -112 -69 -175.5t-170 -63.5h-5
q-86 -2 -141 45q-32 27 -49 67v-62q1 -37 60 -37v-10h-207v10q58 0 58 37v618q0 35 -48 35h-10v12z" />
    <glyph glyph-name="c" unicode="c" horiz-adv-x="489" 
d="M274 473q141 0 187 -97q8 -16 8 -32q1 -23 -10.5 -37.5t-31.5 -14.5q-16 0 -29.5 13.5t-8.5 38.5q2 9 9 25t5 25.5t-16 24.5q-17 17 -48.5 26.5t-64.5 3.5q-68 -13 -104.5 -74.5t-36.5 -132.5q0 -194 141 -221q31 -6 65.5 3.5t55.5 28.5q36 34 48 87h24q-13 -65 -56 -105
q-47 -42 -137 -42q-105 0 -173 63.5t-69 175.5v3q1 111 69 174.5t173 63.5z" />
    <glyph glyph-name="d" unicode="d" horiz-adv-x="618" 
d="M277 451q-14 0 -19 -1q-50 -10 -83.5 -71.5t-32.5 -145.5q0 -41 8 -80.5t34 -80t67 -53.5q26 -9 71.5 2t73.5 34q64 54 64 169l-1 19q0 115 -63 168q-47 40 -119 40zM549 728v-685q1 -37 59 -37v-10h-207v10q59 0 59 37v62q-17 -39 -50 -67q-55 -47 -140 -45h-6
q-101 0 -169 63.5t-69 175.5v3q1 112 69 175.5t169 63.5q92 0 146 -46q34 -29 50 -66v299q0 35 -49 35h-10v12z" />
    <glyph glyph-name="e" unicode="e" horiz-adv-x="496" 
d="M281 451q-65 -1 -105.5 -56.5t-40.5 -124.5h270q0 88 -33.5 134.5t-90.5 46.5zM274 473q87 0 133 -43q68 -64 70 -184h-342v-4q0 -210 139 -223q34 -3 68 6.5t53 27.5q35 32 48 87h25q-13 -63 -57 -104q-47 -42 -137 -42q-105 0 -173 63t-69 175v3q1 112 69 175t173 63z
" />
    <glyph glyph-name="f" unicode="f" horiz-adv-x="378" 
d="M244 728q57 -1 102.5 -36.5t45.5 -93.5q0 -24 -10 -39t-29 -16q-16 0 -26.5 11.5t-9.5 31.5q1 14 14.5 28t15.5 22q10 38 -42.5 61t-94.5 0q-41 -24 -41 -116v-96h158v-23h-158v-420q1 -23 16.5 -29.5t42.5 -6.5v-11h-207v11q58 0 58 36v420h-56v23h56v81
q0 83 48.5 122.5t116.5 39.5z" />
    <glyph glyph-name="g" unicode="g" horiz-adv-x="566" 
d="M136 -37q-17 -16 -28.5 -38t-16 -47t3.5 -49.5t27 -44t59.5 -31.5t96.5 -12q49 0 86.5 10.5t57 27t32 37.5t12 41.5t-3.5 38.5q-5 17 -15.5 28.5t-21 17.5t-29.5 9t-29 3t-31 -0.5t-26 -0.5h-109q-35 0 -65 10zM245 454q-44 0 -78.5 -30t-34.5 -102v-88
q0 -72 34.5 -101.5t78.5 -29.5t79 29.5t35 101.5v88q0 72 -35 102t-79 30zM453 510h4q52 -2 81 -34q14 -13 17 -33t-6 -31q-10 -13 -26.5 -14.5t-31.5 12.5q-6 6 -15.5 23.5t-17 28t-23 18t-33.5 -6.5q-22 -13 -37 -39q82 -59 83 -156q0 -57 -32 -103t-78 -69t-93 -23
q-42 0 -85.5 20.5t-73.5 56.5q-8 -27 -8 -53t20.5 -46.5t58.5 -23.5q35 -3 67 -3h154q57 0 100.5 -27.5t54.5 -82.5q12 -63 -26.5 -115t-115.5 -73q-41 -11 -109.5 -13.5t-108.5 3.5q-58 7 -100.5 30.5t-50.5 62.5q-13 50 13 93t73 65q-32 9 -53.5 41.5t-19.5 78t36 84.5
q-28 44 -28 97q1 85 64.5 140t137.5 55q51 0 101 -28q37 63 107 65z" />
    <glyph glyph-name="h" unicode="h" 
d="M168 728v-385q29 51 89 88t124 37h5q33 0 61.5 -6.5t57.5 -22.5t45.5 -49.5t16.5 -81.5v-265q1 -37 59 -37v-10h-206v10q58 0 58 37v310q0 37 -20.5 59t-49.5 26.5t-57.5 1t-47.5 -12.5q-92 -43 -135 -137v-247q1 -37 59 -37v-10h-207v10q59 0 59 37v618q0 35 -48 35h-11
v12z" />
    <glyph glyph-name="i" unicode="i" horiz-adv-x="237" 
d="M168 456v-413q1 -37 59 -37v-10h-207v10q59 0 59 37v345q0 36 -48 36h-11v11zM123 728q29 0 49.5 -20.5t20.5 -49.5t-20.5 -49.5t-49.5 -20.5t-49.5 20.5t-20.5 49.5t20.5 49.5t49.5 20.5z" />
    <glyph glyph-name="j" unicode="j" horiz-adv-x="300" 
d="M247 455v-306h-1v-266q0 -83 -48.5 -122t-116.5 -40h-4q-61 2 -105 40q-26 21 -43 55q-12 22 -12 35q-2 24 8.5 39t29.5 16t31 -11.5t11 -34.5q-1 -14 -9 -27t-13.5 -20t-0.5 -18.5t27 -27.5q19 -14 45 -17t51 5t42.5 37.5t17.5 75.5v519q0 36 -48 36h-10v11zM202 727
q29 0 49.5 -20.5t20.5 -49.5t-20.5 -49.5t-49.5 -20.5t-49.5 20.5t-20.5 49.5t20.5 49.5t49.5 20.5z" />
    <glyph glyph-name="k" unicode="k" horiz-adv-x="591" 
d="M565 456v-10q-18 0 -39 -12l-177 -103l195 -290q25 -33 69 -35v-10h-206v10q27 0 34 14.5t-4 27.5l-160 241l-109 -63v-183q1 -37 60 -37v-10h-208v10q59 0 59 37v618q0 35 -48 35h-11v12l148 20v-475l310 180q12 6 2 11l-10 2v10h95z" />
    <glyph glyph-name="l" unicode="l" horiz-adv-x="237" 
d="M168 728v-685q1 -37 59 -37v-10h-207v10q59 0 59 37v618q0 35 -48 35h-11v12z" />
    <glyph glyph-name="m" unicode="m" horiz-adv-x="963" 
d="M372 468h6q62 0 102.5 -26t50.5 -95q31 51 85 86t116 35h5q70 0 113 -34t43 -126v-265q1 -37 60 -37v-10h-206v10q58 0 58 37v310q-2 66 -57 85q-59 19 -127 -30q-52 -39 -87 -107v-258q1 -37 59 -37v-10h-206v10q59 0 59 37v310q-2 66 -57 84q-59 20 -127 -29
q-58 -42 -94 -119v-246q1 -37 60 -37v-10h-207v10q58 0 58 37v345q0 36 -48 36h-10v11l147 21v-115q30 52 85.5 89.5t118.5 37.5z" />
    <glyph glyph-name="n" unicode="n" 
d="M381 468h5q33 0 61.5 -6.5t57.5 -22.5t45.5 -49.5t16.5 -81.5v-265q1 -37 59 -37v-10h-206v10q58 0 58 37v310q0 37 -20.5 59t-49.5 26.5t-57.5 1t-47.5 -12.5q-92 -43 -135 -137v-247q1 -37 59 -37v-10h-207v10q59 0 59 37v345q0 36 -48 36h-11v11l148 21v-113
q29 51 89 88t124 37z" />
    <glyph glyph-name="o" unicode="o" horiz-adv-x="536" 
d="M269 473q87 0 162.5 -66.5t75.5 -173.5t-75 -173.5t-163 -66.5t-163 66.5t-75 173.5t75 173.5t163 66.5zM269 456q-13 0 -21.5 -1t-25.5 -4.5t-28 -14t-23 -26.5t-18 -44.5t-6 -66.5v-130q0 -44 10 -76t22.5 -47.5t32 -24t31 -9.5t26.5 -1q16 0 26.5 1t30.5 9.5t32 23.5
t22 47t10 77v130q0 53 -13 88t-36 48.5t-38 17t-34 3.5z" />
    <glyph glyph-name="p" unicode="p" horiz-adv-x="627" 
d="M169 258v-50q4 -103 63 -153q28 -23 73 -34t71 -2q41 13 67 53.5t34.5 80t8.5 80.5q1 84 -32.5 145.5t-83.5 71.5q-5 1 -19 1q-84 0 -131 -50.5t-51 -142.5zM363 474q102 0 170 -63.5t69 -175.5v-3q-1 -112 -69 -175.5t-170 -63.5h-5q-86 -2 -141 45q-30 26 -48 66v-334
q1 -37 59 -37v-10h-207v10q58 0 58 37v618q0 36 -48 36h-10v11l148 21v-94q18 40 48 66q54 46 146 46z" />
    <glyph glyph-name="q" unicode="q" horiz-adv-x="628" 
d="M277 451q-14 0 -19 -1q-50 -10 -83.5 -71.5t-32.5 -145.5q0 -41 8 -80.5t34 -80t67 -53.5q26 -9 71.5 2t73.5 34q64 54 64 169h1v19h-1q0 114 -64 168q-47 40 -119 40zM264 474q92 0 146 -46q34 -27 51 -69v97l147 -21v-11h-10q-48 0 -48 -36v-618q0 -37 58 -37v-10h-207
v10q59 0 60 37v337q-17 -42 -51 -69q-55 -47 -140 -45h-6q-101 0 -169 63.5t-69 175.5v3q1 112 69 175.5t169 63.5z" />
    <glyph glyph-name="r" unicode="r" horiz-adv-x="500" 
d="M492 344q0 -22 -13.5 -37t-30.5 -15q-19 0 -28.5 16.5t-6.5 38.5q2 11 8.5 24.5t11 22.5t6.5 18t-5 17t-24 15q-21 5 -48 2q-61 -7 -116 -54t-78 -114v-235q1 -37 59 -37v-10h-207v10q59 0 59 37v345q0 36 -48 36h-11v11l148 21v-123q32 56 83.5 92.5t108.5 42.5
q8 1 21 1q56 0 83.5 -34t27.5 -91z" />
    <glyph glyph-name="s" unicode="s" horiz-adv-x="429" 
d="M196 473q46 0 73.5 -8t61.5 -32q13 -13 23.5 -8t17.5 41h7l1 -137h-10q-34 125 -152 125q-38 0 -68 -18t-27 -62q1 -20 24 -39.5t49.5 -32.5t69 -33t63.5 -31q96 -53 74 -139q-12 -45 -56 -75.5t-112 -30.5q-99 0 -155 39q-12 13 -23 8.5t-18 -40.5h-8v137h10
q35 -124 174 -124q39 0 70.5 25.5t32.5 69.5q0 16 -9.5 31t-23.5 26t-38 24.5t-42.5 21.5t-48.5 20.5t-44 19.5q-64 29 -78.5 82.5t30 96.5t132.5 43z" />
    <glyph glyph-name="t" unicode="t" horiz-adv-x="427" 
d="M169 630l-1 -144h157v-24h-157l1 -113v-203q0 -83 44.5 -113.5t94.5 -1.5q36 20 54 46q11 15 12.5 24t-2.5 21t-4 23q0 31 23 31q26 0 26 -32q0 -5 -1 -8q-21 -66 -62 -101q-44 -38 -106 -40h-4q-68 1 -116.5 40t-48.5 122v305h-58v24h58v76q0 36 -48 36h-10v11z" />
    <glyph glyph-name="u" unicode="u" 
d="M168 456v-353q0 -37 20.5 -59t49.5 -26t57 -0.5t47 12.5q93 44 135 136v222q0 36 -48 36h-10v12l147 20v-413q1 -37 60 -37v-10h-207v10q58 0 58 37v70q-29 -51 -89 -88t-124 -37h-5q-33 0 -61.5 6.5t-57.5 23t-45.5 50t-16.5 81.5v239q0 36 -48 36h-10v12z" />
    <glyph glyph-name="v" unicode="v" horiz-adv-x="508" 
d="M0 455h200v-10q-41 0 -41 -32q0 -10 6 -25l7 -16q25 -51 70 -147.5t62 -132.5l131 323q2 4 2 11q0 19 -33 19v10h104v-10q-37 0 -46 -24q-112 -278 -168 -418h-47l-151 322q-19 41 -34 69q-28 50 -62 51v10z" />
    <glyph glyph-name="w" unicode="w" horiz-adv-x="773" 
d="M0 455h200v-10q-18 0 -28.5 -7t-12 -17t0 -18.5t4.5 -14.5l8 -16q14 -28 29 -60t33 -71.5t28 -60.5l38 -80l118 355h15l6 -16q22 -58 65 -173.5t64 -173.5l131 323q12 30 -30 30v10h104v-10q-37 0 -46 -24q-21 -52 -79 -195.5t-90 -222.5h-26h-21l-118 302l-100 -302h-47
l-174 371q-1 4 -10 20q-28 49 -62 51v10z" />
    <glyph glyph-name="x" unicode="x" horiz-adv-x="503" 
d="M0 455h216v-10q-27 0 -35.5 -15.5t1.5 -25.5l92 -128l134 156q5 6 -1.5 10t-17.5 4v9h88v-9q-28 0 -44 -18l-145 -172l153 -215q23 -34 63 -35v-10h-215v10q26 0 34.5 13.5t-0.5 24.5l-103 144l-142 -170q-5 -6 1 -9.5t17 -3.5v-9h-88v9q29 0 44 17l154 186l-145 202
q-23 34 -61 35v10z" />
    <glyph glyph-name="y" unicode="y" horiz-adv-x="528" 
d="M20 456h200v-11q-24 0 -33.5 -12t-8 -23t5.5 -21l7 -16q23 -46 67 -140.5t66 -140.5l130 324q6 16 -2.5 22.5t-27.5 6.5v11h104v-11q-38 0 -46 -23q-112 -279 -211 -524q-23 -56 -24 -58q-47 -102 -109 -115q-33 -7 -65 3q-29 8 -51.5 28.5t-22.5 50.5q0 31 25 44
q15 7 31.5 3.5t25.5 -16.5q8 -12 8 -66q0 -34 45 -24q49 10 90 98q9 19 65 157h-23l-174 372q-1 1 -2 3.5t-3.5 6.5t-4.5 9q-28 49 -62 51v11z" />
    <glyph glyph-name="z" unicode="z" horiz-adv-x="453" 
d="M47 456h397l-308 -440l168 -2q51 0 78 25.5t37 81.5h8v-126l-401 3l307 439h-151q-109 0 -128 -107h-7v126z" />
    <glyph glyph-name="braceleft" unicode="{" horiz-adv-x="284" 
d="M51 293q38 0 55.5 26t17 64.5t-2.5 81.5q0 7 -0.5 11.5t-0.5 9.5q-4 44 -2 88t9.5 79t33 56.5t68.5 21.5q5 0 5 -5t-5 -5q-25 0 -46.5 -15.5t-28.5 -40.5q-10 -34 -5 -177q1 -45 1.5 -77t-9 -58t-33.5 -49q-11 -11 -27 -17q17 -6 27 -16q24 -23 33.5 -49.5t9 -58.5
t-1.5 -77q-5 -142 5 -176q7 -25 28.5 -40.5t46.5 -15.5q5 0 5 -5t-5 -5q-43 0 -68.5 22t-33 56.5t-10 78t2.5 87.5q6 105 -3 140q-13 53 -66 53v12z" />
    <glyph glyph-name="bar" unicode="|" horiz-adv-x="295" 
d="M134 699h29l-1 -837h-29z" />
    <glyph glyph-name="braceright" unicode="}" horiz-adv-x="284" 
d="M56 -156q-5 0 -5 5t5 5q25 0 46.5 15.5t28.5 40.5q10 34 5 176q-1 45 -1.5 77t9 58.5t33.5 49.5q10 10 27 16q-16 6 -27 17q-24 23 -33.5 49t-9 58t1.5 77q5 143 -5 177q-7 25 -28.5 40.5t-46.5 15.5q-5 0 -5 5t5 5q43 0 69 -22t33 -57t9.5 -78.5t-2.5 -87.5
q-6 -105 3 -140q13 -53 66 -53v-6v-6q-38 0 -55.5 -26t-17 -64.5t2.5 -81.5q1 -14 1 -21q4 -44 2 -87.5t-9.5 -78.5t-33 -56.5t-68.5 -21.5z" />
    <glyph glyph-name="asciitilde" unicode="~" horiz-adv-x="745" 
d="M206 304q38 0 86.5 -15.5t91.5 -32t91.5 -27.5t105 0t114.5 50v-31q-62 -37 -120.5 -49t-104 -3t-89 25t-82.5 31.5t-77.5 20.5t-82 -13t-87.5 -63l-1 34q74 73 155 73z" />
    <glyph glyph-name="exclamdown" unicode="&#xa1;" horiz-adv-x="207" 
d="M104 -278q-61 0 -51 97l43 453h17l43 -453q8 -97 -52 -97zM104 368q-22 0 -37 15t-15 37t15 37t37 15t37 -15t15 -37t-15 -37t-37 -15z" />
    <glyph glyph-name="cent" unicode="&#xa2;" horiz-adv-x="538" 
d="M151 242q0 -119 53 -174l175 369q-30 14 -60 14q-81 0 -124.5 -66t-43.5 -143zM436 556l15 -8l-46 -97q50 -24 74 -75q8 -16 8 -32q1 -23 -10.5 -37.5t-30.5 -14.5q-16 0 -29.5 13t-8.5 39q2 9 8.5 25t4.5 25.5t-16 24.5q-3 3 -11 9l-177 -373q30 -25 77 -34
q31 -6 64.5 3.5t54.5 28.5q36 34 48 87h24q-13 -65 -56 -105q-46 -41 -135 -41q-55 0 -99 16l-59 -125l-16 7l60 125q-59 27 -93.5 82t-35.5 133v3q1 111 69.5 174.5t173.5 63.5q54 0 95 -15z" />
    <glyph glyph-name="sterling" unicode="&#xa3;" horiz-adv-x="660" 
d="M172 79q-16 0 -27 -7q-27 -14 -17.5 -48.5t46.5 -37.5q39 -3 55 77q-29 16 -57 16zM359 715q87 0 141 -52.5t30 -123.5q-6 -18 -22 -22.5t-29.5 5t-13.5 26.5q0 36 34 55q23 13 -7 46q-27 29 -63 39q-30 8 -65 8q-54 0 -99 -31t-44 -95q0 -31 9.5 -65t25.5 -79t24 -72
h223v-17h-218q29 -123 -18 -251q65 -22 119.5 -32t93.5 -8t66 13.5t38.5 32t8.5 48.5l13 1q3 -17 3 -36.5t-6 -51.5t-32.5 -52.5t-71.5 -20.5q-40 0 -79 8.5t-61 17.5t-57.5 25.5t-47.5 21.5q-5 -15 -8 -22t-12.5 -23t-24.5 -23.5t-35 -7.5q-26 0 -47 14t-27 38
q-5 23 5.5 44.5t30.5 28.5q42 15 101 -6q3 47 3.5 75t-9 62.5t-17 54t-21.5 49.5h-142v18l134 -1q-18 37 -27.5 59t-17 58.5t-5.5 72.5q11 171 224 171z" />
    <glyph glyph-name="currency" unicode="&#xa4;" horiz-adv-x="587" 
d="M294 542q-79 0 -134.5 -63.5t-55.5 -153.5t55.5 -153.5t134.5 -63.5t134.5 63.5t55.5 153.5t-55.5 153.5t-134.5 63.5zM294 560q90 0 156 -60l75 79l12 -13l-75 -78q67 -69 67 -163t-67 -163l75 -79l-12 -12l-75 79q-68 -60 -156 -60q-91 0 -156 59l-75 -78l-12 12l75 79
q-67 70 -67 163q0 94 67 163l-75 78l12 13l75 -79q68 60 156 60z" />
    <glyph glyph-name="yen" unicode="&#xa5;" horiz-adv-x="670" 
d="M51 708h204l3 -12h-10q-16 0 -29.5 -7.5t-6.5 -23.5l162 -307l176 319q10 19 -30 19v11h100v-11q-29 0 -42 -18l-193 -350v-34h165v-17h-165v-124l165 -1v-17h-165v-91q1 -37 59 -37v-10h-218v10q58 0 58 37v91l-166 1v17h166v124l-166 1v17h166v37q-31 55 -88 165
t-88 164q-19 35 -57 35v12z" />
    <glyph glyph-name="brokenbar" unicode="&#xa6;" horiz-adv-x="295" 
d="M133 238h29l1 -376h-29zM134 699h29l-1 -376h-29z" />
    <glyph glyph-name="section" unicode="&#xa7;" horiz-adv-x="661" 
d="M192 421q-46 -35 -54 -89t19.5 -87t98.5 -81q3 -2 5 -3.5t5 -3.5t5.5 -3.5t5.5 -3.5q179 -123 193 -134q46 35 54 88q8 54 -19.5 87t-98.5 81q-3 2 -5 3.5t-5 3.5t-5.5 3.5t-5.5 3.5q-163 113 -193 135zM372 715q48 -1 95 -18t81.5 -57.5t29.5 -95.5q-1 -15 -14.5 -22
t-27 0.5t-13.5 26.5q0 18 10 36t3 31q-51 83 -168 83q-56 0 -94 -21.5t-49 -56.5q-11 -37 10 -78.5t78 -79.5q214 -140 217 -142q60 -40 76.5 -107t-20.5 -129q-36 -60 -101 -81q102 -85 53 -191q-45 -92 -248 -92q-48 1 -95 18t-81.5 57.5t-29.5 95.5q1 15 14.5 22t27 -0.5
t13.5 -26.5q0 -18 -10 -36t-3 -31q51 -83 168 -83q56 0 94 22t49 57q11 37 -10 78t-78 79q-214 140 -217 142q-60 40 -76.5 107.5t20.5 129.5q35 59 101 80q-102 85 -53 191q45 92 248 92z" />
    <glyph glyph-name="dieresis" unicode="&#xa8;" horiz-adv-x="360" 
d="M269 837q16 0 28 -12t12 -29q0 -16 -11.5 -28t-28.5 -12t-28.5 12t-11.5 28q0 17 12 29t28 12zM91 837q17 0 29 -12.5t12 -28.5t-12 -28t-29 -12t-28.5 12t-11.5 28q0 17 12 29t28 12z" />
    <glyph glyph-name="copyright" unicode="&#xa9;" horiz-adv-x="820" 
d="M434 558q38 0 85 -30q23 -14 28 18h5l-3 -117h-7q-32 133 -128 115q-41 -7 -60 -68.5t-19 -126.5q0 -41 6.5 -79.5t25 -73.5t47.5 -43q10 -6 27.5 -3t34.5 10.5t35.5 36t30.5 74.5h7l1 -72q-51 -57 -116 -57q-72 0 -119 61.5t-47 145.5q0 85 46 145q50 64 120 64z
M413 684q-51 0 -89 -11q-134 -36 -203.5 -156.5t-33.5 -253.5q36 -134 156.5 -203.5t253.5 -33.5q134 36 203.5 156.5t33.5 253.5q-27 102 -121.5 174.5t-199.5 73.5zM414 708q112 -1 213 -78.5t130 -186.5q39 -143 -35.5 -272t-217.5 -168t-272 35.5t-168 217.5t35.5 272
t217.5 168q45 12 97 12z" />
    <glyph glyph-name="ordfeminine" unicode="&#xaa;" horiz-adv-x="440" 
d="M222 715q60 -1 92.5 -31.5t32.5 -85.5v-159q0 -23 8.5 -31.5t16.5 -6.5t15 6l2 -7q-25 -20 -48 -26.5t-40.5 8t-18.5 54.5q-47 -65 -148 -65q-40 0 -61.5 24.5t-21.5 56.5q0 64 57 86q19 8 50 16t50.5 14t40.5 21.5t33 39.5v19q0 22 -16.5 34.5t-33 14.5t-33.5 1
q-32 -5 -53 -19q-14 -10 -15.5 -19t5 -20.5t6.5 -18.5q3 -36 -30 -36q-11 0 -18.5 11t-7.5 27q0 14 8 28q34 64 128 64zM282 598q-26 -33 -80 -52q-6 -2 -24 -10.5t-40 -28.5t-24 -41q-3 -29 13.5 -48t40.5 -22q32 -5 62.5 13t51.5 45v144z" />
    <glyph glyph-name="guillemotleft" unicode="&#xab;" horiz-adv-x="435" 
d="M384 371v-10l-126 -120l126 -119v-11q-32 20 -95 60.5t-95 60.5v19q32 20 95.5 60t94.5 60zM241 371v-10l-126 -120l126 -119v-11q-31 20 -95 60.5t-95 60.5v19q32 20 95.5 60t94.5 60z" />
    <glyph glyph-name="logicalnot" unicode="&#xac;" horiz-adv-x="498" 
d="M51 263h397l-1 -220h-29l1 191h-368v29z" />
    <glyph glyph-name="uni00AD" unicode="&#xad;" horiz-adv-x="409" 
d="M51 263h307v-44l-307 1v43z" />
    <glyph glyph-name="registered" unicode="&#xae;" horiz-adv-x="820" 
d="M345 543v-201h107q27 1 41 29t14 72q0 45 -14 72.5t-41 27.5h-107zM255 556h198q50 -1 81 -33t31 -80q0 -36 -18.5 -64.5t-50.5 -41.5q19 -9 31 -35.5t26 -81.5q16 -60 29 -21l2 9l12 -4q-15 -61 -44 -61q-17 0 -27 12t-21 49q-26 90 -41 109q-12 16 -26 17h-92v-152
q0 -21 33 -21v-6h-123v6q33 0 33 21v351q0 21 -33 21v6zM413 684q-51 0 -89 -11q-134 -36 -203.5 -156.5t-33.5 -253.5q36 -134 156.5 -203.5t253.5 -33.5q134 36 203.5 156.5t33.5 253.5q-27 102 -121.5 174.5t-199.5 73.5zM414 708q112 -1 213 -78.5t130 -186.5
q39 -143 -35.5 -272t-217.5 -168t-272 35.5t-168 217.5t35.5 272t217.5 168q45 12 97 12z" />
    <glyph glyph-name="macron" unicode="&#xaf;" horiz-adv-x="560" 
d="M51 919l458 -1v-30l-458 1v30z" />
    <glyph glyph-name="degree" unicode="&#xb0;" horiz-adv-x="373" 
d="M187 665q-47 0 -80.5 -33.5t-33.5 -80.5t33.5 -80.5t80.5 -33.5t80.5 33.5t33.5 80.5t-33.5 80.5t-80.5 33.5zM187 687q56 0 96 -40t40 -96t-40 -96t-96 -40t-96 40t-40 96t40 96t96 40z" />
    <glyph glyph-name="plusminus" unicode="&#xb1;" horiz-adv-x="498" 
d="M51 11l397 -1v-29l-397 1v29zM235 440h30l-1 -184h184v-30l-184 1v-184h-29v184h-184v29h184v184z" />
    <glyph glyph-name="uni00B2" unicode="&#xb2;" horiz-adv-x="369" 
d="M194 706q121 0 123 -106q1 -46 -32 -78.5t-126 -74.5q-52 -24 -78 -62q32 5 176 0q24 -1 40.5 12.5t16.5 32.5l5 -1q0 -3 -1 -18.5t-2 -22t-4.5 -19t-9.5 -18t-17.5 -10.5t-27.5 -5q-17 0 -60.5 3t-71 3.5t-74.5 -4.5q-5 69 100 123q39 20 65.5 49.5t35.5 59t5.5 56
t-23 44.5t-50.5 21q-51 5 -73 -16q-8 -8 -12 -14.5t-4.5 -13t0.5 -10.5t4 -11.5t4 -11.5q4 -15 -4.5 -25.5t-20.5 -6.5t-16 23q-6 31 22.5 62t71.5 36q18 3 38 3z" />
    <glyph glyph-name="uni00B3" unicode="&#xb3;" horiz-adv-x="368" 
d="M191 706q50 0 82.5 -24.5t28.5 -71.5q-6 -56 -75 -72q89 -13 90 -93q1 -50 -39 -81.5t-90 -32.5h-19q-52 0 -87 28.5t-30 63.5q2 19 14.5 23.5t22 -5t5.5 -25.5q-1 -4 -4.5 -13t-4 -13.5t3.5 -13t14 -17.5q15 -13 41 -17.5t43 0.5q67 13 67 103q0 40 -20.5 63.5
t-58.5 17.5v15q43 0 66 34.5t11 72.5t-56 47q-52 9 -75 -17q-15 -18 -7 -46q4 -15 -4 -23t-19 -4.5t-13 18.5q-6 34 24 58t86 25h3z" />
    <glyph glyph-name="acute" unicode="&#xb4;" horiz-adv-x="276" 
d="M204 891q9 0 16 -7q17 -21 -23 -49l-133 -95h-13l117 129q20 22 36 22z" />
    <glyph glyph-name="uni00B5" unicode="&#xb5;" 
d="M168 456v-353q0 -37 20.5 -58.5t49.5 -26t56.5 -1.5t47.5 12q92 43 134 136v223q0 36 -48 36h-10v11l148 21v-414q1 -37 59 -37v-10h-207v10q58 0 58 37v71q-29 -51 -88 -88t-123 -37h-6q-51 0 -91 15v-280h-90v665q0 36 -48 36h-10v11z" />
    <glyph glyph-name="paragraph" unicode="&#xb6;" horiz-adv-x="480" 
d="M227 682v-800h110v800h-110zM205 699h162q-1 -455 -1 -772v-15q0 -36 63 -36v-10h-286v10q63 0 63 36v15v415q-66 7 -110.5 58t-44.5 120t44 120.5t110 58.5z" />
    <glyph glyph-name="periodcentered" unicode="&#xb7;" horiz-adv-x="205" 
d="M103 293q22 0 37 -15t15 -37t-15 -37t-37 -15t-37 15t-15 37t15 37t37 15z" />
    <glyph glyph-name="cedilla" unicode="&#xb8;" horiz-adv-x="285" 
d="M107 -62q4 10 11.5 30t11.5 30h18l-17 -45q42 8 73 -9t31 -50q0 -26 -18.5 -46.5t-53.5 -22.5q-30 -2 -64.5 8t-47.5 22l5 9q14 -9 46.5 -15t63 3.5t30.5 39.5q0 46 -89 46z" />
    <glyph glyph-name="uni00B9" unicode="&#xb9;" horiz-adv-x="224" 
d="M172 343h2v-5h-106v5q29 0 29 18v264q0 10 -3 11.5t-20 1.5h-15h-8v6q32 0 52 14t23 28l4 13h15v-338q1 -18 27 -18z" />
    <glyph glyph-name="ordmasculine" unicode="&#xba;" horiz-adv-x="361" 
d="M181 697q-69 0 -69 -179q0 -99 18 -138.5t51 -39.5q70 0 70 178q0 179 -70 179zM181 706q52 0 91 -46t39 -142q0 -97 -39 -142t-91 -45t-91 45t-39 142q0 96 39 142t91 46z" />
    <glyph glyph-name="guillemotright" unicode="&#xbb;" horiz-adv-x="435" 
d="M194 371q31 -20 95 -60t95 -60v-19q-32 -20 -95.5 -60.5t-94.5 -60.5v11l126 119l-126 120v10zM51 371q32 -20 95.5 -60t94.5 -60v-19q-31 -20 -94.5 -60.5t-95.5 -60.5v11l126 119l-126 120v10z" />
    <glyph glyph-name="onequarter" unicode="&#xbc;" horiz-adv-x="567" 
d="M516 10v-5h-106v5q29 0 29 18v70h-189v11q46 41 68.5 89.5t20.5 83.5t-12 64q-8 17 9 25q19 7 29 -9l3 -9q26 -122 -105 -244h176v200q18 2 28 12t11 19l1 9h8v-240h30v-11h-30v-70q1 -18 29 -18zM174 343v-5h-106v5q29 0 29 18v264q0 10 -3 11.5t-22 1.5h-21v6
q32 0 52 14t23 28l4 13h15v-338q1 -18 29 -18zM404 713h30l-336 -703h-30z" />
    <glyph glyph-name="onehalf" unicode="&#xbd;" horiz-adv-x="605" 
d="M429 374q120 0 123 -107q1 -46 -31.5 -78t-125.5 -74q-52 -24 -78 -62q32 5 176 0q24 -1 40 12t16 32h5q0 -3 -1 -18.5t-2 -22t-4.5 -19t-9.5 -18t-17.5 -10.5t-27.5 -5q-17 0 -60.5 2.5t-70.5 3t-74 -4.5q-1 13 2 27.5t27.5 44t70.5 52.5q39 20 65.5 49.5t35.5 59
t5.5 56t-23 44.5t-50.5 21q-51 5 -74 -16q-8 -8 -12 -14.5t-4.5 -13t0.5 -10.5t4 -11.5t4 -11.5q4 -15 -4.5 -25.5t-20.5 -6.5t-16 23q-6 31 23 62t72 36q18 3 37 3zM174 343v-5h-106v5q29 0 29 18v264q0 10 -3 11.5t-22 1.5h-21v6q32 0 52 14t23 28l4 13h15v-338
q1 -18 29 -18zM404 713h30l-336 -703h-30z" />
    <glyph glyph-name="threequarters" unicode="&#xbe;" horiz-adv-x="664" 
d="M501 713h30l-336 -703h-30zM191 706q50 0 82.5 -24.5t28.5 -71.5q-6 -56 -75 -72q89 -12 90 -94q1 -50 -39 -81t-90 -32q-2 0 -8.5 0.5t-10.5 0.5q-52 0 -87 28t-31 63q3 19 15.5 23.5t22 -5t5.5 -25.5q-1 -4 -4.5 -13t-4 -13.5t3 -13t14.5 -17.5q29 -26 84 -17
q67 13 67 103q0 40 -20.5 63t-58.5 18v15q43 0 66 34.5t11 72.5t-56 47q-52 9 -75 -17q-15 -18 -7 -46q4 -15 -4 -23t-19 -4.5t-13 18.5q-6 34 24 58t86 25h3zM613 10v-5h-106v5q29 0 29 19v68h-189v13q35 31 56 66.5t27.5 66.5t4.5 57t-12 46q-8 19 11 25q20 7 28 -10l3 -8
q26 -122 -106 -243h177v199q18 2 28 12t12 19l1 8l7 1v-239h30v-13h-30v-68q1 -19 29 -19z" />
    <glyph glyph-name="questiondown" unicode="&#xbf;" horiz-adv-x="527" 
d="M336 367q-22 0 -37 14.5t-15 36.5t15 37.5t37 15.5t37 -15.5t15 -37.5t-15 -36.5t-37 -14.5zM262 -279q-92 0 -153.5 44t-57.5 131q2 46 19 80.5t42 56t55 39t59.5 34t53 37t37.5 52.5t13 75h18v-9q0 -34 -2 -54t-11 -52t-33 -59t-63 -50q-104 -60 -98 -180
q3 -52 35.5 -85.5t91.5 -40.5q39 -5 78.5 5t59.5 36q16 20 18.5 41.5t-11.5 36.5q-22 22 -3 49q16 25 37 18q18 -7 26 -35q18 -63 -40 -116.5t-171 -53.5z" />
    <glyph glyph-name="Agrave" unicode="&#xc0;" horiz-adv-x="589" 
d="M219 891q17 0 37 -22l116 -129h-13l-133 94q-40 28 -23 49q8 8 16 8zM253 607l-120 -374h240l-53 166q-11 34 -33.5 104t-33.5 104zM262 708h62q139 -434 208 -650q2 -7 7.5 -16.5t21 -21.5t34.5 -13v-10h-130h-74v10q23 1 32 14t8 24t-4 20l-47 145h-254l-58 -179
q-4 -12 6.5 -18t26.5 -6v-10h-101v10q17 -1 29.5 7t15.5 17z" />
    <glyph glyph-name="Aacute" unicode="&#xc1;" horiz-adv-x="589" 
d="M387 891q8 0 16 -8q18 -21 -22 -49l-133 -94h-13l116 129q20 22 36 22zM253 607l-120 -374h240l-53 166q-11 34 -33.5 104t-33.5 104zM262 708h62q139 -434 208 -650q2 -7 7.5 -16.5t21 -21.5t34.5 -13v-10h-130h-74v10q23 1 32 14t8 24t-4 20l-47 145h-254l-58 -179
q-4 -12 6.5 -18t26.5 -6v-10h-101v10q17 -1 29.5 7t15.5 17z" />
    <glyph glyph-name="Acircumflex" unicode="&#xc2;" horiz-adv-x="589" 
d="M273 892h49q7 -11 10 -15l95 -137h-13l-112 102q-3 3 -5 4l-4 -4l-113 -102h-13l96 137zM253 607l-120 -374h240l-53 166q-11 34 -33.5 104t-33.5 104zM262 708h62q139 -434 208 -650q2 -7 7.5 -16.5t21 -21.5t34.5 -13v-10h-130h-74v10q23 1 32 14t8 24t-4 20l-47 145
h-254l-58 -179q-4 -12 6.5 -18t26.5 -6v-10h-101v10q17 -1 29.5 7t15.5 17z" />
    <glyph glyph-name="Atilde" unicode="&#xc3;" horiz-adv-x="589" 
d="M417 843h11q-6 -44 -42.5 -59t-85.5 1q-50 17 -85.5 16.5t-44.5 -28.5h-12q8 24 21 38t24.5 19t31 4t29.5 -3t30 -8q37 -15 73.5 -14t49.5 34zM253 607l-120 -374h240l-53 166q-11 34 -33.5 104t-33.5 104zM262 708h62q139 -434 208 -650q2 -7 7.5 -16.5t21 -21.5
t34.5 -13v-10h-130h-74v10q23 1 32 14t8 24t-4 20l-47 145h-254l-58 -179q-4 -12 6.5 -18t26.5 -6v-10h-101v10q17 -1 29.5 7t15.5 17z" />
    <glyph glyph-name="Adieresis" unicode="&#xc4;" horiz-adv-x="589" 
d="M212 837q16 0 28 -11.5t12 -28.5t-12 -28.5t-28 -11.5t-28 11.5t-12 28.5t12 28.5t28 11.5zM389 837q17 0 29 -12t12 -28q0 -30 -41 -40q-17 0 -28.5 11.5t-11.5 28.5t11.5 28.5t28.5 11.5zM253 607l-120 -374h240l-53 166q-11 34 -33.5 104t-33.5 104zM262 708h62
q139 -434 208 -650q2 -7 7.5 -16.5t21 -21.5t34.5 -13v-10h-130h-74v10q23 1 32 14t8 24t-4 20l-47 145h-254l-58 -179q-4 -12 6.5 -18t26.5 -6v-10h-101v10q17 -1 29.5 7t15.5 17z" />
    <glyph glyph-name="Aring" unicode="&#xc5;" horiz-adv-x="589" 
d="M297 906q33 0 56 -23.5t23 -56.5t-23 -56.5t-56 -23.5t-56.5 23.5t-23.5 56.5t23.5 56.5t56.5 23.5zM244 831v-9q1 -64 53 -64q51 0 52 64v9q-1 64 -52 64q-52 0 -53 -64zM253 607l-120 -374h240l-53 166q-11 34 -33.5 104t-33.5 104zM262 708h62q139 -434 208 -650
q2 -7 7.5 -16.5t21 -21.5t34.5 -13v-10h-204v10q40 1 40 37q0 5 -4 21l-47 145h-254l-58 -179q-1 -2 -1 -6q0 -18 34 -18v-10h-101v10h2q34 0 43 24z" />
    <glyph glyph-name="AE" unicode="&#xc6;" horiz-adv-x="862" 
d="M380 613l-200 -380h200v380zM323 708h504v-217h-12q-8 44 -21 84t-40.5 74.5t-60.5 34.5h-212v-320h126q28 0 50 22t33.5 55t17.5 64.5t6 57.5h17v-124.5v-173.5v-124h-17q0 26 -6 57.5t-17.5 64.5t-33.5 55t-50 22h-126v-321h226q25 0 47 19t36.5 50.5t23.5 62t14 62.5
h14v-216h-519v10q57 0 57 37v166h-212l-95 -180q-6 -8 -1.5 -15.5t19.5 -7.5v-10h-90v10q35 0 47 23l332 631q0 36 -57 36v11z" />
    <glyph glyph-name="Ccedilla" unicode="&#xc7;" horiz-adv-x="581" 
d="M304 -62l3 7l15 41q-127 1 -209 109.5t-82 255.5t80 254q86 112 212 112q67 0 149 -52q40 -26 50 32h8l-6 -206h-11q-58 235 -225 203q-39 -7 -67.5 -44.5t-43.5 -92t-22 -106.5t-7 -100q0 -52 7 -103.5t21.5 -104t43.5 -89.5t68 -48q19 -5 37 -6t46 7.5t51.5 29
t48.5 65.5t42 110h11l3 -125q-83 -92 -186 -100l-13 -34q42 8 73 -9t31 -50q0 -26 -18.5 -46.5t-53.5 -22.5q-30 -2 -64.5 8t-47.5 22l5 9q14 -9 46.5 -15t63 3.5t30.5 39.5q0 46 -89 46z" />
    <glyph glyph-name="Egrave" unicode="&#xc8;" horiz-adv-x="561" 
d="M197 891q16 0 36 -22l117 -129h-13l-134 94q-40 28 -22 49q8 8 16 8zM20 708h506v-217h-12q-8 44 -21 84t-40.5 74.5t-60.5 34.5h-213v-320h127q37 0 62.5 38.5t34.5 81.5t9 80h18v-125v-174v-124h-18q0 37 -9 80t-34.5 81.5t-62.5 38.5h-127v-322h226q33 0 60.5 34.5
t41 75.5t20.5 85h13v-217h-520v10q59 0 59 37v617q0 37 -59 37v10z" />
    <glyph glyph-name="Eacute" unicode="&#xc9;" horiz-adv-x="561" 
d="M450 891q8 0 16 -8q17 -21 -23 -49l-133 -94h-13l117 129q20 22 36 22zM20 708h506v-217h-12q-8 44 -21 84t-40.5 74.5t-60.5 34.5h-213v-320h127q37 0 62.5 38.5t34.5 81.5t9 80h18v-125v-174v-124h-18q0 37 -9 80t-34.5 81.5t-62.5 38.5h-127v-322h226q33 0 60.5 34.5
t41 75.5t20.5 85h13v-217h-520v10q59 0 59 37v617q0 37 -59 37v10z" />
    <glyph glyph-name="Ecircumflex" unicode="&#xca;" horiz-adv-x="561" 
d="M322 892h49q7 -11 10 -15l96 -137h-14l-112 102q-3 3 -5 4l-4 -4l-113 -102h-13l96 137zM20 708h506v-217h-12q-8 44 -21 84t-40.5 74.5t-60.5 34.5h-213v-320h127q37 0 62.5 38.5t34.5 81.5t9 80h18v-125v-174v-124h-18q0 37 -9 80t-34.5 81.5t-62.5 38.5h-127v-322h226
q33 0 60.5 34.5t41 75.5t20.5 85h13v-217h-520v10q59 0 59 37v617q0 37 -59 37v10z" />
    <glyph glyph-name="Edieresis" unicode="&#xcb;" horiz-adv-x="561" 
d="M267 837q17 0 29 -12t12 -28t-12 -28t-29 -12t-28.5 11.5t-11.5 28.5t11.5 28.5t28.5 11.5zM445 837q17 0 28.5 -11.5t11.5 -28.5t-9 -26t-31 -14q-17 0 -28.5 11.5t-11.5 28.5t11.5 28.5t28.5 11.5zM20 708h506v-217h-12q-8 44 -21 84t-40.5 74.5t-60.5 34.5h-213v-320
h127q37 0 62.5 38.5t34.5 81.5t9 80h18v-125v-174v-124h-18q0 37 -9 80t-34.5 81.5t-62.5 38.5h-127v-322h226q33 0 60.5 34.5t41 75.5t20.5 85h13v-217h-520v10q59 0 59 37v617q0 37 -59 37v10z" />
    <glyph glyph-name="Igrave" unicode="&#xcc;" horiz-adv-x="278" 
d="M238 696q-48 0 -49 -35v-618q1 -37 60 -37v-10h-218v10q58 0 58 37v618q0 35 -48 35h-10v12h218v-12h-11zM-2 870q0 8 7 14.5t15 6.5q16 0 36 -22l117 -129h-13l-134 94q-28 19 -28 36z" />
    <glyph glyph-name="Iacute" unicode="&#xcd;" horiz-adv-x="278" 
d="M266 891q8 0 16 -8q17 -21 -23 -49l-133 -94h-13l116 129q20 22 37 22zM238 696q-48 0 -49 -35v-618q1 -37 60 -37v-10h-218v10q58 0 58 37v618q0 35 -48 35h-10v12h218v-12h-11z" />
    <glyph glyph-name="Icircumflex" unicode="&#xce;" horiz-adv-x="278" 
d="M110 892h49q7 -11 10 -15l96 -137h-13l-113 102q-3 3 -5 4l-4 -4l-113 -102h-13l96 137zM238 696q-48 0 -49 -35v-618q1 -37 60 -37v-10h-218v10q58 0 58 37v618q0 35 -48 35h-10v12h218v-12h-11z" />
    <glyph glyph-name="Idieresis" unicode="&#xcf;" horiz-adv-x="278" 
d="M238 696q-48 0 -49 -35v-618q1 -37 60 -37v-10h-218v10q58 0 58 37v618q0 35 -48 35h-10v12h218v-12h-11zM227 837q16 0 28 -12t12 -29q0 -16 -9 -25.5t-31 -14.5q-17 0 -28.5 12t-11.5 28q0 17 12 29t28 12zM49 837q17 0 29 -12.5t12 -28.5t-12 -28t-29 -12t-28.5 12
t-11.5 28q0 17 12 29t28 12z" />
    <glyph glyph-name="Eth" unicode="&#xd0;" horiz-adv-x="638" 
d="M269 685h-91v-314l157 -1v-31h-157v-319q178 0 187 1q38 5 69 69.5t42 156t6 185t-39 165.5t-92 87q-4 1 -82 1zM20 709h242q69 0 79 -2q111 -6 189 -107.5t78 -247.5q0 -79 -24.5 -147.5t-64 -113t-86 -69.5t-92.5 -25h-321v11q59 0 59 36v295l-51 1v31h51v290
q0 36 -59 36v12z" />
    <glyph glyph-name="Ntilde" unicode="&#xd1;" horiz-adv-x="607" 
d="M485 843h11q-6 -44 -42 -59t-85 1q-50 17 -85.5 16.5t-44.5 -28.5h-12q8 24 21 38t24.5 19t30.5 4t29 -3t30 -8q37 -15 73.5 -14t49.5 34zM122 708l392 -572v525q0 37 -50 37v10h123v-10q-50 0 -50 -37v-665h-48l-396 577v-530q0 -37 50 -37v-10h-123v10q50 0 50 37v618
q0 36 -50 36v11h102z" />
    <glyph glyph-name="Ograve" unicode="&#xd2;" horiz-adv-x="651" 
d="M276 891q16 0 36 -22l116 -129h-13l-133 94q-40 28 -22 49q8 8 16 8zM326 695q-76 0 -124 -56.5t-48 -165.5v-245q0 -109 48 -165.5t124 -56.5t125 57t49 165v245q0 108 -49 165t-125 57zM326 715q122 0 209 -107t87 -258t-87 -258t-209 -107t-208.5 107t-86.5 258
t86.5 258t208.5 107z" />
    <glyph glyph-name="Oacute" unicode="&#xd3;" horiz-adv-x="651" 
d="M380 891q8 0 16 -8q18 -21 -22 -49l-134 -94h-13l117 129q20 22 36 22zM326 695q-76 0 -124 -56.5t-48 -165.5v-245q0 -109 48 -165.5t124 -56.5t125 57t49 165v245q0 108 -49 165t-125 57zM326 715q122 0 209 -107t87 -258t-87 -258t-209 -107t-208.5 107t-86.5 258
t86.5 258t208.5 107z" />
    <glyph glyph-name="Ocircumflex" unicode="&#xd4;" horiz-adv-x="651" 
d="M302 892h49q7 -11 10 -15l96 -137h-13l-113 102l-4 4q-2 -1 -5 -4l-112 -102h-13l95 137zM326 695q-76 0 -124 -56.5t-48 -165.5v-245q0 -109 48 -165.5t124 -56.5t125 57t49 165v245q0 108 -49 165t-125 57zM326 715q122 0 209 -107t87 -258t-87 -258t-209 -107
t-208.5 107t-86.5 258t86.5 258t208.5 107z" />
    <glyph glyph-name="Otilde" unicode="&#xd5;" horiz-adv-x="651" 
d="M441 843h11q-6 -44 -42 -59t-85 1q-50 17 -85.5 16.5t-44.5 -28.5h-12q8 24 21 38t24.5 19t30.5 4t29 -3t30 -8q37 -15 73.5 -14t49.5 34zM326 695q-76 0 -124 -56.5t-48 -165.5v-245q0 -109 48 -165.5t124 -56.5t125 57t49 165v245q0 108 -49 165t-125 57zM326 715
q122 0 209 -107t87 -258t-87 -258t-209 -107t-208.5 107t-86.5 258t86.5 258t208.5 107z" />
    <glyph glyph-name="Odieresis" unicode="&#xd6;" horiz-adv-x="651" 
d="M235 837q17 0 29 -12t12 -28t-12 -28t-29 -12t-28.5 11.5t-11.5 28.5t11.5 28.5t28.5 11.5zM413 837q17 0 28.5 -11.5t11.5 -28.5t-9 -26t-31 -14q-17 0 -28.5 11.5t-11.5 28.5t11.5 28.5t28.5 11.5zM326 695q-76 0 -124 -56.5t-48 -165.5v-245q0 -109 48 -165.5
t124 -56.5t125 57t49 165v245q0 108 -49 165t-125 57zM326 715q122 0 209 -107t87 -258t-87 -258t-209 -107t-208.5 107t-86.5 258t86.5 258t208.5 107z" />
    <glyph glyph-name="multiply" unicode="&#xd7;" horiz-adv-x="403" 
d="M72 392l130 -130l130 130l21 -21l-130 -130l129 -130l-20 -20l-130 130l-130 -130l-21 21l130 129l-129 130z" />
    <glyph glyph-name="Oslash" unicode="&#xd8;" horiz-adv-x="651" 
d="M514 757h20l-48 -100q63 -50 99.5 -131t36.5 -176q0 -151 -87 -258t-209 -107q-76 0 -143 46l-44 -90h-21l50 101q-63 50 -100 131.5t-37 176.5q0 151 86.5 258t208.5 107q79 0 145 -46zM326 695q-76 0 -124 -56.5t-48 -165.5v-245q0 -87 34 -144l266 550q-48 61 -128 61
zM466 617l-266 -551q48 -60 126 -60q76 0 125 57t49 165v245q0 87 -34 144z" />
    <glyph glyph-name="Ugrave" unicode="&#xd9;" horiz-adv-x="650" 
d="M313 891q16 0 36 -22l116 -129h-13l-133 94q-40 28 -22 49q8 8 16 8zM21 708h216v-11q-58 0 -58 -36v-467q0 -106 49.5 -143t147.5 -37q92 0 136 50.5t44 131.5v465q0 36 -50 36v11h123v-11q-50 0 -51 -36v-462q0 -62 -17.5 -105t-50.5 -66t-73.5 -32.5t-94.5 -9.5
q-262 0 -262 213v462q0 36 -59 36v11z" />
    <glyph glyph-name="Uacute" unicode="&#xda;" horiz-adv-x="650" 
d="M508 891q8 0 16 -8q18 -21 -22 -49l-134 -94h-13l117 129q20 22 36 22zM21 708h216v-11q-58 0 -58 -36v-467q0 -106 49.5 -143t147.5 -37q92 0 136 50.5t44 131.5v465q0 36 -50 36v11h123v-11q-50 0 -51 -36v-462q0 -62 -17.5 -105t-50.5 -66t-73.5 -32.5t-94.5 -9.5
q-262 0 -262 213v462q0 36 -59 36v11z" />
    <glyph glyph-name="Ucircumflex" unicode="&#xdb;" horiz-adv-x="650" 
d="M380 892h49q7 -11 10 -15l96 -137h-13l-113 102l-4 4q-2 -1 -5 -4l-113 -102h-13l96 137zM21 708h216v-11q-58 0 -58 -36v-467q0 -106 49.5 -143t147.5 -37q92 0 136 50.5t44 131.5v465q0 36 -50 36v11h123v-11q-50 0 -51 -36v-462q0 -62 -17.5 -105t-50.5 -66
t-73.5 -32.5t-94.5 -9.5q-262 0 -262 213v462q0 36 -59 36v11z" />
    <glyph glyph-name="Udieresis" unicode="&#xdc;" horiz-adv-x="650" 
d="M321 837q17 0 29 -12t12 -28t-12 -28t-29 -12t-28.5 11.5t-11.5 28.5t11.5 28.5t28.5 11.5zM499 837q17 0 28.5 -11.5t11.5 -28.5t-9 -26t-31 -14q-17 0 -28.5 11.5t-11.5 28.5t11.5 28.5t28.5 11.5zM21 708h216v-11q-58 0 -58 -36v-467q0 -106 49.5 -143t147.5 -37
q92 0 136 50.5t44 131.5v465q0 36 -50 36v11h123v-11q-50 0 -51 -36v-462q0 -62 -17.5 -105t-50.5 -66t-73.5 -32.5t-94.5 -9.5q-262 0 -262 213v462q0 36 -59 36v11z" />
    <glyph glyph-name="Yacute" unicode="&#xdd;" horiz-adv-x="590" 
d="M463 891q8 0 16 -8q18 -21 -22 -49l-134 -94h-13l117 129q20 22 36 22zM404 7v-11h-218v11q58 0 58 37v288q-31 55 -93 164.5t-93 164.5q-20 36 -58 36v12h204l3 -12h-10q-15 0 -29 -8t-7 -24l174 -307l186 320q5 11 -3.5 15t-27.5 4v10h100v-10q-29 0 -41 -19l-204 -349
v-285q1 -37 59 -37z" />
    <glyph glyph-name="Thorn" unicode="&#xde;" horiz-adv-x="587" 
d="M182 596v-352h187q47 1 72 50t25 126q0 78 -24.5 127t-72.5 49h-187zM22 708h217v-12h-10q-48 0 -49 -35v-42h191q87 -1 142 -58t55 -141t-55 -141.5t-142 -57.5h-189v-9h-2v-169q2 -37 59 -37v-10h-217v10q57 0 57 37v618q0 35 -47 35h-10v12z" />
    <glyph glyph-name="germandbls" unicode="&#xdf;" horiz-adv-x="664" 
d="M298 728q102 0 154 -37q23 -16 39 -43.5t14.5 -65.5t-29.5 -71q-27 -31 -31.5 -60t15 -58t41.5 -50.5t65 -54.5q47 -37 67 -85t8 -94q-34 -124 -234 -124q-30 0 -64.5 14t-49.5 30q-33 36 -33 71q0 33 25 36q23 3 33 -17q7 -12 2 -28q-1 -4 -5 -14t-5 -14t-0.5 -11.5
t4.5 -14.5q12 -20 42 -29t53 -9q73 0 110.5 24t44.5 62q8 48 -11 84.5t-66 73.5q-88 70 -101 146q-7 42 24 80q7 8 22 24.5t21.5 25.5t15 23.5t11 30.5t0.5 35q-7 51 -55 78q-42 23 -109 23q-138 0 -138 -153v-560h-157v10q58 0 58 37v523q0 76 55 119t147 43h17z" />
    <glyph glyph-name="agrave" unicode="&#xe0;" horiz-adv-x="487" 
d="M438 310v-222q0 -32 12 -43.5t22.5 -9t21.5 8.5l4 -11q-35 -28 -67 -37t-56.5 11.5t-26.5 76.5q-65 -91 -206 -91q-56 0 -86 34.5t-30 79.5q0 87 80 119q27 11 70 22t69.5 19t56 29.5t46.5 56.5v27q0 31 -22.5 48t-46.5 20.5t-47 0.5q-41 -5 -74 -25q-19 -14 -21 -27
t6.5 -30t9.5 -25q5 -49 -42 -49q-16 0 -26.5 14.5t-10.5 36.5q0 30 21 56.5t48 42.5q50 30 122 30q83 0 128 -43t45 -120zM348 310q-37 -47 -112 -71q-8 -3 -21.5 -10t-38 -22t-42.5 -37t-20 -45q-4 -40 18.5 -66t55.5 -31q44 -6 87.5 18.5t72.5 62.5v201zM163 739
q16 0 36 -22l117 -129h-13l-133 94q-40 28 -23 49q8 8 16 8z" />
    <glyph glyph-name="aacute" unicode="&#xe1;" horiz-adv-x="487" 
d="M438 310v-222q0 -32 12 -43.5t22.5 -9t21.5 8.5l4 -11q-35 -28 -67 -37t-56.5 11.5t-26.5 76.5q-65 -91 -206 -91q-56 0 -86 34.5t-30 79.5q0 87 80 119q27 11 70 22t69.5 19t56 29.5t46.5 56.5v27q0 31 -22.5 48t-46.5 20.5t-47 0.5q-41 -5 -74 -25q-19 -14 -21 -27
t6.5 -30t9.5 -25q5 -49 -42 -49q-16 0 -26.5 14.5t-10.5 36.5q0 30 21 56.5t48 42.5q50 30 122 30q83 0 128 -43t45 -120zM348 310q-37 -47 -112 -71q-8 -3 -21.5 -10t-38 -22t-42.5 -37t-20 -45q-4 -40 18.5 -66t55.5 -31q44 -6 87.5 18.5t72.5 62.5v201zM310 739
q8 0 16 -8q17 -21 -23 -49l-133 -94h-13l116 129q20 22 37 22z" />
    <glyph glyph-name="acircumflex" unicode="&#xe2;" horiz-adv-x="487" 
d="M438 310v-222q0 -32 12 -43.5t22.5 -9t21.5 8.5l4 -11q-35 -28 -67 -37t-56.5 11.5t-26.5 76.5q-65 -91 -206 -91q-56 0 -86 34.5t-30 79.5q0 87 80 119q27 11 70 22t69.5 19t56 29.5t46.5 56.5v27q0 31 -22.5 48t-46.5 20.5t-47 0.5q-41 -5 -74 -25q-19 -14 -21 -27
t6.5 -30t9.5 -25q5 -49 -42 -49q-16 0 -26.5 14.5t-10.5 36.5q0 30 21 56.5t48 42.5q50 30 122 30q83 0 128 -43t45 -120zM348 310q-37 -47 -112 -71q-8 -3 -21.5 -10t-38 -22t-42.5 -37t-20 -45q-4 -40 18.5 -66t55.5 -31q44 -6 87.5 18.5t72.5 62.5v201zM238 740h49
q7 -11 10 -15l96 -136h-13l-112 102q-3 3 -5 4q-2 -1 -5 -4l-112 -102h-13l95 136z" />
    <glyph glyph-name="atilde" unicode="&#xe3;" horiz-adv-x="487" 
d="M438 310v-222q0 -32 12 -43.5t22.5 -9t21.5 8.5l4 -11q-35 -28 -67 -37t-56.5 11.5t-26.5 76.5q-65 -91 -206 -91q-56 0 -86 34.5t-30 79.5q0 87 80 119q27 11 70 22t69.5 19t56 29.5t46.5 56.5v27q0 31 -22.5 48t-46.5 20.5t-47 0.5q-41 -5 -74 -25q-19 -14 -21 -27
t6.5 -30t9.5 -25q5 -49 -42 -49q-16 0 -26.5 14.5t-10.5 36.5q0 30 21 56.5t48 42.5q50 30 122 30q83 0 128 -43t45 -120zM348 310q-37 -47 -112 -71q-8 -3 -21.5 -10t-38 -22t-42.5 -37t-20 -45q-4 -40 18.5 -66t55.5 -31q44 -6 87.5 18.5t72.5 62.5v201zM392 691h11
q-6 -44 -42.5 -59t-85.5 1q-50 17 -85.5 16.5t-44.5 -28.5h-11q8 24 21 38t24.5 19t30.5 4t29 -3t30 -8q37 -15 73.5 -14t49.5 34z" />
    <glyph glyph-name="adieresis" unicode="&#xe4;" horiz-adv-x="487" 
d="M438 310v-222q0 -32 12 -43.5t22.5 -9t21.5 8.5l4 -11q-35 -28 -67 -37t-56.5 11.5t-26.5 76.5q-65 -91 -206 -91q-56 0 -86 34.5t-30 79.5q0 87 80 119q27 11 70 22t69.5 19t56 29.5t46.5 56.5v27q0 31 -22.5 48t-46.5 20.5t-47 0.5q-41 -5 -74 -25q-19 -14 -21 -27
t6.5 -30t9.5 -25q5 -49 -42 -49q-16 0 -26.5 14.5t-10.5 36.5q0 30 21 56.5t48 42.5q50 30 122 30q83 0 128 -43t45 -120zM348 310q-37 -47 -112 -71q-8 -3 -21.5 -10t-38 -22t-42.5 -37t-20 -45q-4 -40 18.5 -66t55.5 -31q44 -6 87.5 18.5t72.5 62.5v201zM169 685
q17 0 28.5 -11.5t11.5 -28.5t-11.5 -28.5t-28.5 -11.5t-28.5 11.5t-11.5 28.5t11.5 28.5t28.5 11.5zM346 685q17 0 29 -12t12 -28q0 -30 -41 -40q-16 0 -28 11.5t-12 28.5t12 28.5t28 11.5z" />
    <glyph glyph-name="aring" unicode="&#xe5;" horiz-adv-x="487" 
d="M214 679v-9q1 -64 52 -64t52 64v9q-1 64 -52 64t-52 -64zM266 754q33 0 56.5 -23.5t23.5 -56.5t-23.5 -56.5t-56.5 -23.5t-56.5 23.5t-23.5 56.5t23.5 56.5t56.5 23.5zM348 310q-37 -47 -112 -71q-8 -3 -21.5 -10t-38 -22t-42.5 -37t-20 -45v-10q0 -36 21.5 -59t52.5 -28
q5 -1 16 -1q41 0 79.5 24t64.5 58v201zM438 310v-222q0 -52 30 -52q10 0 26 8l4 -11q-49 -39 -88 -39q-59 0 -62 90q-65 -91 -206 -91q-56 0 -86 34.5t-30 79.5q0 87 80 119q27 11 70 22t69.5 19t56 29.5t46.5 56.5v27q0 38 -30 54t-68 16q-13 0 -18 -1q-41 -5 -74 -25
q-21 -16 -21 -32q0 -9 7.5 -25.5t8.5 -24.5v-8q0 -41 -42 -41q-16 0 -26.5 14.5t-10.5 36.5q0 30 21 56.5t48 42.5q50 30 122 30q83 0 128 -43t45 -120z" />
    <glyph glyph-name="ae" unicode="&#xe6;" horiz-adv-x="782" 
d="M319 232v3q0 24 5 51q-34 -30 -90 -48q-11 -4 -34 -15.5t-53.5 -40t-33.5 -57.5q-4 -40 18.5 -66t55.5 -31q44 -6 87 18.5t72 62.5l1 2q-27 51 -28 121zM567 451q-65 -1 -105.5 -56.5t-40.5 -124.5h270q0 88 -33.5 134.5t-90.5 46.5zM560 -6q-139 0 -204 102
q-2 -2 -5 -5.5t-4 -5.5q-65 -91 -207 -91q-55 0 -85 34.5t-30 78.5q0 87 80 119q27 11 88 26.5t95.5 36t57.5 64.5v26q0 23 -12.5 39t-32.5 22t-37.5 8t-33.5 1q-42 -6 -73 -26q-20 -14 -21.5 -27t7 -29t9.5 -25q5 -50 -42 -50q-16 0 -26.5 14.5t-10.5 37.5q0 18 12 39
q52 90 178 90q94 -2 137 -52q63 52 160 52q87 0 133 -43q68 -64 70 -184h-342v-4q0 -116 40 -167t99 -56q34 -3 67.5 6.5t53.5 27.5q35 32 48 87h25q-13 -64 -57 -105q-46 -41 -137 -41z" />
    <glyph glyph-name="ccedilla" unicode="&#xe7;" horiz-adv-x="489" 
d="M257 -62q3 7 10.5 25.5t11.5 29.5h-5q-105 0 -173 63.5t-69 175.5v3q1 111 69 174.5t173 63.5q141 0 187 -97q8 -16 8 -32q1 -23 -10.5 -37.5t-31.5 -14.5q-16 0 -29.5 13.5t-8.5 38.5q2 9 9 25t5 25.5t-16 24.5q-17 17 -48.5 26.5t-64.5 3.5q-68 -13 -104.5 -74.5
t-36.5 -132.5q0 -194 141 -221q31 -6 65.5 3.5t55.5 28.5q36 34 48 87h24q-13 -65 -56 -105q-37 -34 -114 -41l-15 -41q42 8 73 -9t31 -50q0 -26 -18.5 -46.5t-53.5 -22.5q-30 -2 -64.5 8t-47.5 22l4 9q14 -9 46.5 -15t63.5 3.5t31 39.5q0 46 -90 46z" />
    <glyph glyph-name="egrave" unicode="&#xe8;" horiz-adv-x="496" 
d="M197 739q16 0 36 -22l117 -129h-13l-134 94q-40 28 -22 49q8 8 16 8zM281 451q-65 -1 -105.5 -56.5t-40.5 -124.5h270q0 88 -33.5 134.5t-90.5 46.5zM274 473q87 0 133 -43q68 -64 70 -184h-342v-4q0 -210 139 -223q34 -3 68 6.5t53 27.5q35 32 48 87h25
q-13 -63 -57 -104q-47 -42 -137 -42q-105 0 -173 63t-69 175v3q1 112 69 175t173 63z" />
    <glyph glyph-name="eacute" unicode="&#xe9;" horiz-adv-x="496" 
d="M359 739q8 0 16 -8q17 -21 -23 -49l-133 -94h-13l116 129q20 22 37 22zM281 451q-65 -1 -105.5 -56.5t-40.5 -124.5h270q0 88 -33.5 134.5t-90.5 46.5zM274 473q87 0 133 -43q68 -64 70 -184h-342v-4q0 -210 139 -223q34 -3 68 6.5t53 27.5q35 32 48 87h25
q-13 -63 -57 -104q-47 -42 -137 -42q-105 0 -173 63t-69 175v3q1 112 69 175t173 63z" />
    <glyph glyph-name="ecircumflex" unicode="&#xea;" horiz-adv-x="496" 
d="M258 740h49q7 -11 10 -15l96 -137h-13l-113 102l-4 4q-2 -1 -5 -4l-112 -102h-13l95 137zM281 451q-65 -1 -105.5 -56.5t-40.5 -124.5h270q0 88 -33.5 134.5t-90.5 46.5zM274 473q87 0 133 -43q68 -64 70 -184h-342v-4q0 -210 139 -223q34 -3 68 6.5t53 27.5q35 32 48 87
h25q-13 -63 -57 -104q-47 -42 -137 -42q-105 0 -173 63t-69 175v3q1 112 69 175t173 63z" />
    <glyph glyph-name="edieresis" unicode="&#xeb;" horiz-adv-x="496" 
d="M196 685q17 0 29 -12t12 -28t-12 -28t-29 -12q-16 0 -28 11.5t-12 28.5t12 28.5t28 11.5zM374 685q16 0 28 -11.5t12 -28.5t-9 -26t-31 -14q-16 0 -28 11.5t-12 28.5t12 28.5t28 11.5zM281 451q-65 -1 -105.5 -56.5t-40.5 -124.5h270q0 88 -33.5 134.5t-90.5 46.5z
M274 473q87 0 133 -43q68 -64 70 -184h-342v-4q0 -210 139 -223q34 -3 68 6.5t53 27.5q35 32 48 87h25q-13 -63 -57 -104q-47 -42 -137 -42q-105 0 -173 63t-69 175v3q1 112 69 175t173 63z" />
    <glyph glyph-name="igrave" unicode="&#xec;" horiz-adv-x="237" 
d="M6 739q17 0 37 -22l116 -129h-13l-133 94q-40 28 -23 49q8 8 16 8zM168 456v-413q1 -37 59 -37v-10h-207v10q59 0 59 37v345q0 36 -48 36h-11v11z" />
    <glyph glyph-name="iacute" unicode="&#xed;" horiz-adv-x="237" 
d="M224 739q9 0 16 -7q18 -21 -23 -50l-133 -94h-13l116 129q20 22 37 22zM168 456v-413q1 -37 59 -37v-10h-207v10q59 0 59 37v345q0 36 -48 36h-11v11z" />
    <glyph glyph-name="icircumflex" unicode="&#xee;" horiz-adv-x="237" 
d="M85 740h49q7 -11 10 -15l96 -137h-13l-113 102l-4 4q-2 -1 -5 -4l-112 -102h-13l95 137zM168 456v-413q1 -37 59 -37v-10h-207v10q59 0 59 37v345q0 36 -49 36h-10v11z" />
    <glyph glyph-name="idieresis" unicode="&#xef;" horiz-adv-x="237" 
d="M38 685q16 0 28 -11.5t12 -28.5t-12 -28.5t-28 -11.5t-28 11.5t-12 28.5t12 28.5t28 11.5zM215 685q17 0 29 -12t12 -28q0 -30 -41 -40q-17 0 -28.5 11.5t-11.5 28.5t11.5 28.5t28.5 11.5zM168 456v-413q1 -37 59 -37v-10h-207v10q59 0 59 37v345q0 36 -49 36h-10v11z
" />
    <glyph glyph-name="eth" unicode="&#xf0;" horiz-adv-x="536" 
d="M269 455h-18.5t-21.5 -3t-24 -8.5t-21.5 -16.5t-19.5 -27.5t-12.5 -42t-5.5 -58.5v-130q0 -44 10 -76t22.5 -47.5t32 -24t31 -9.5t27.5 -1t26.5 1t30.5 9.5t32 23.5t22 47t10 77v130q0 43 -10 74.5t-22.5 46.5t-32 23.5t-30.5 10t-26 1.5zM157 720q76 -16 157 -69l77 44
l5 -10l-72 -41q62 -43 95 -92q93 -136 87 -306v-13q0 -72 -38 -128.5t-91.5 -83.5t-108.5 -27t-108.5 27t-91 83.5t-37.5 128.5q0 108 74.5 174.5t162.5 66.5q54 0 108 -28q-23 110 -88 177l-133 -76l-5 9l130 75q-50 47 -125 80z" />
    <glyph glyph-name="ntilde" unicode="&#xf1;" 
d="M463 691h11q-6 -44 -42.5 -59t-85.5 1q-50 17 -85.5 16.5t-44.5 -28.5h-12q8 24 21 38t24.5 19t31 4t29.5 -3t30 -8q37 -15 73.5 -14t49.5 34zM381 468h5q33 0 61.5 -6.5t57.5 -22.5t45.5 -49.5t16.5 -81.5v-265q1 -37 59 -37v-10h-206v10q58 0 58 37v310q0 37 -20.5 59
t-49.5 26.5t-57.5 1t-47.5 -12.5q-92 -43 -135 -137v-247q1 -37 59 -37v-10h-207v10q59 0 59 37v345q0 36 -48 36h-11v11l148 21v-113q29 51 89 88t124 37z" />
    <glyph glyph-name="ograve" unicode="&#xf2;" horiz-adv-x="536" 
d="M199 739q16 0 36 -22l117 -129h-13l-134 94q-40 28 -22 49q8 8 16 8zM269 473q87 0 162.5 -66.5t75.5 -173.5t-75 -173.5t-163 -66.5t-163 66.5t-75 173.5t75 173.5t163 66.5zM269 456q-13 0 -21.5 -1t-25.5 -4.5t-28 -14t-23 -26.5t-18 -44.5t-6 -66.5v-130
q0 -44 10 -76t22.5 -47.5t32 -24t31 -9.5t26.5 -1q16 0 26.5 1t30.5 9.5t32 23.5t22 47t10 77v130q0 53 -13 88t-36 48.5t-38 17t-34 3.5zM269 473zM269 473z" />
    <glyph glyph-name="oacute" unicode="&#xf3;" horiz-adv-x="536" 
d="M344 739q8 0 16 -8q18 -21 -22 -49l-133 -94h-13l116 129q20 22 36 22zM269 473q87 0 162.5 -66.5t75.5 -173.5t-75 -173.5t-163 -66.5t-163 66.5t-75 173.5t75 173.5t163 66.5zM269 456q-13 0 -21.5 -1t-25.5 -4.5t-28 -14t-23 -26.5t-18 -44.5t-6 -66.5v-130
q0 -44 10 -76t22.5 -47.5t32 -24t31 -9.5t26.5 -1q16 0 26.5 1t30.5 9.5t32 23.5t22 47t10 77v130q0 53 -13 88t-36 48.5t-38 17t-34 3.5z" />
    <glyph glyph-name="ocircumflex" unicode="&#xf4;" horiz-adv-x="536" 
d="M246 740h49q7 -11 10 -15l96 -137h-13l-113 102l-4 4q-2 -1 -5 -4l-113 -102h-13l96 137zM269 473q87 0 162.5 -66.5t75.5 -173.5t-75 -173.5t-163 -66.5t-163 66.5t-75 173.5t75 173.5t163 66.5zM269 456q-13 0 -21.5 -1t-25.5 -4.5t-28 -14t-23 -26.5t-18 -44.5
t-6 -66.5v-130q0 -44 10 -76t22.5 -47.5t32 -24t31 -9.5t26.5 -1q16 0 26.5 1t30.5 9.5t32 23.5t22 47t10 77v130q0 53 -13 88t-36 48.5t-38 17t-34 3.5z" />
    <glyph glyph-name="otilde" unicode="&#xf5;" horiz-adv-x="536" 
d="M378 691h11q-6 -44 -42.5 -59t-85.5 1q-50 17 -85.5 16.5t-44.5 -28.5h-12q8 24 21 38t24.5 19t31 4t29.5 -3t30 -8q37 -15 73.5 -14t49.5 34zM269 473q87 0 162.5 -66.5t75.5 -173.5t-75 -173.5t-163 -66.5t-163 66.5t-75 173.5t75 173.5t163 66.5zM269 456
q-13 0 -21.5 -1t-25.5 -4.5t-28 -14t-23 -26.5t-18 -44.5t-6 -66.5v-130q0 -44 10 -76t22.5 -47.5t32 -24t31 -9.5t26.5 -1q16 0 26.5 1t30.5 9.5t32 23.5t22 47t10 77v130q0 53 -13 88t-36 48.5t-38 17t-34 3.5z" />
    <glyph glyph-name="odieresis" unicode="&#xf6;" horiz-adv-x="536" 
d="M179 685q17 0 29 -12t12 -28t-12 -28t-29 -12t-28.5 11.5t-11.5 28.5t11.5 28.5t28.5 11.5zM357 685q17 0 28.5 -11.5t11.5 -28.5t-9 -26t-31 -14q-17 0 -28.5 11.5t-11.5 28.5t11.5 28.5t28.5 11.5zM269 473q87 0 162.5 -66.5t75.5 -173.5t-75 -173.5t-163 -66.5
t-163 66.5t-75 173.5t75 173.5t163 66.5zM269 456q-13 0 -21.5 -1t-25.5 -4.5t-28 -14t-23 -26.5t-18 -44.5t-6 -66.5v-130q0 -44 10 -76t22.5 -47.5t32 -24t31 -9.5t26.5 -1q16 0 26.5 1t30.5 9.5t32 23.5t22 47t10 77v130q0 53 -13 88t-36 48.5t-38 17t-34 3.5z" />
    <glyph glyph-name="divide" unicode="&#xf7;" horiz-adv-x="498" 
d="M250 161q15 0 25 -10.5t10 -25.5t-10 -25t-25 -10t-25.5 10t-10.5 25t10.5 25.5t25.5 10.5zM51 256h397v-30l-397 1v29zM250 393q15 0 25 -10.5t10 -25.5t-10 -25t-25 -10t-25.5 10t-10.5 25t10.5 25.5t25.5 10.5z" />
    <glyph glyph-name="oslash" unicode="&#xf8;" horiz-adv-x="536" 
d="M186 39q28 -28 83 -28q16 0 26.5 1t30.5 9.5t32 23.5t22 47t10 77v130q0 73 -25 111zM400 526h20l-39 -83q56 -31 91 -85t35 -125q0 -107 -75 -173.5t-163 -66.5q-49 0 -95 21l-35 -73h-21l40 81q-56 30 -91.5 84.5t-35.5 126.5q0 107 75 173.5t163 66.5q49 0 95 -21z
M269 456q-13 0 -21.5 -1t-25.5 -4.5t-28 -14t-23 -26.5t-18 -44.5t-6 -66.5v-130q0 -74 26 -114l179 371q-30 30 -83 30z" />
    <glyph glyph-name="ugrave" unicode="&#xf9;" 
d="M248 739q16 0 36 -22l117 -129h-13l-133 94q-40 28 -23 49q8 8 16 8zM168 456v-353q0 -37 20.5 -59t49.5 -26t57 -0.5t47 12.5q93 44 135 136v222q0 36 -48 36h-10v12l147 20v-413q1 -37 60 -37v-10h-207v10q58 0 58 37v70q-29 -51 -89 -88t-124 -37h-5q-33 0 -61.5 6.5
t-57.5 23t-45.5 50t-16.5 81.5v239q0 36 -48 36h-10v12z" />
    <glyph glyph-name="uacute" unicode="&#xfa;" 
d="M411 739q8 0 16 -8q17 -21 -23 -49l-133 -94h-13l117 129q20 22 36 22zM168 456v-353q0 -37 20.5 -59t49.5 -26t57 -0.5t47 12.5q93 44 135 136v222q0 36 -48 36h-10v12l147 20v-413q1 -37 60 -37v-10h-207v10q58 0 58 37v70q-29 -51 -89 -88t-124 -37h-5
q-33 0 -61.5 6.5t-57.5 23t-45.5 50t-16.5 81.5v239q0 36 -48 36h-10v12z" />
    <glyph glyph-name="ucircumflex" unicode="&#xfb;" 
d="M295 740h49q7 -11 10 -15l96 -137h-13l-113 102l-4 4q-2 -1 -5 -4l-113 -102h-13l96 137zM168 456v-353q0 -37 20.5 -59t49.5 -26t57 -0.5t47 12.5q93 44 135 136v222q0 36 -48 36h-10v12l147 20v-413q1 -37 60 -37v-10h-207v10q58 0 58 37v70q-29 -51 -89 -88t-124 -37
h-5q-33 0 -61.5 6.5t-57.5 23t-45.5 50t-16.5 81.5v239q0 36 -48 36h-10v12z" />
    <glyph glyph-name="udieresis" unicode="&#xfc;" 
d="M230 685q17 0 29 -12t12 -28t-12 -28t-29 -12q-16 0 -28 11.5t-12 28.5t12 28.5t28 11.5zM408 685q16 0 28 -11.5t12 -28.5t-9 -26t-31 -14q-16 0 -28 11.5t-12 28.5t12 28.5t28 11.5zM168 456v-353q0 -37 20.5 -59t49.5 -26t57 -0.5t47 12.5q93 44 135 136v222
q0 36 -48 36h-10v12l147 20v-413q1 -37 60 -37v-10h-207v10q58 0 58 37v70q-29 -51 -89 -88t-124 -37h-5q-33 0 -61.5 6.5t-57.5 23t-45.5 50t-16.5 81.5v239q0 36 -48 36h-10v12z" />
    <glyph glyph-name="yacute" unicode="&#xfd;" horiz-adv-x="528" 
d="M20 456h200v-11q-24 0 -33.5 -12t-8 -23t5.5 -21l7 -16q23 -46 67 -140.5t66 -140.5l130 324q6 16 -2.5 22.5t-27.5 6.5v11h104v-11q-38 0 -46 -23q-112 -279 -211 -524q-23 -56 -24 -58q-47 -102 -109 -115q-33 -7 -65 3q-29 8 -51.5 28.5t-22.5 50.5q0 31 25 44
q15 7 31.5 3.5t25.5 -16.5q8 -12 8 -66q0 -34 45 -24q49 10 90 98q9 19 65 157h-23l-174 372q-1 1 -2 3.5t-3.5 6.5t-4.5 9q-28 49 -62 51v11zM432 739q8 0 16 -8q18 -21 -22 -49l-133 -94h-13l116 129q20 22 36 22z" />
    <glyph glyph-name="thorn" unicode="&#xfe;" horiz-adv-x="626" 
d="M167 104v-334q1 -36 60 -36v-11h-207v11q58 0 58 36v892q0 35 -48 35h-10v12l147 19v-366q17 41 49 66q52 45 146 45q101 0 169.5 -63.5t69.5 -174.5v-3q-1 -112 -69 -175t-170 -63h-5q-65 -2 -115.5 28t-74.5 82zM349 451q-84 0 -131 -50.5t-51 -142.5v-50
q4 -100 64 -153q28 -23 73 -34t71 -2q59 19 84 82.5t25 131.5q1 84 -32.5 145.5t-82.5 70.5q-10 2 -20 2z" />
    <glyph glyph-name="ydieresis" unicode="&#xff;" horiz-adv-x="528" 
d="M20 456h200v-11q-24 0 -33.5 -12t-8 -23t5.5 -21l7 -16q23 -46 67 -140.5t66 -140.5l130 324q6 16 -2.5 22.5t-27.5 6.5v11h104v-11q-38 0 -46 -23q-112 -279 -211 -524q-23 -56 -24 -58q-47 -102 -109 -115q-33 -7 -65 3q-29 8 -51.5 28.5t-22.5 50.5q0 31 25 44
q15 7 31.5 3.5t25.5 -16.5q8 -12 8 -66q0 -34 45 -24q49 10 90 98q9 19 65 157h-23l-174 372q-1 1 -2 3.5t-3.5 6.5t-4.5 9q-28 49 -62 51v11zM257 685q17 0 28.5 -11.5t11.5 -28.5t-11.5 -28.5t-28.5 -11.5t-28.5 11.5t-11.5 28.5t11.5 28.5t28.5 11.5zM434 685
q17 0 29 -12t12 -28q0 -30 -41 -40q-16 0 -28 11.5t-12 28.5t12 28.5t28 11.5z" />
    <glyph glyph-name="dotlessi" unicode="&#x131;" horiz-adv-x="237" 
d="M168 456v-413q1 -37 59 -37v-10h-207v10q59 0 59 37v345q0 36 -48 36h-11v11z" />
    <glyph glyph-name="OE" unicode="&#x152;" horiz-adv-x="890" 
d="M325 701q-78 0 -124 -72.5t-46 -183.5v-185q0 -113 43.5 -184.5t126.5 -71.5q59 0 84 15v661q-31 21 -84 21zM325 716q44 0 84 -8h447v-217h-12q-8 44 -21 84t-40.5 74.5t-60.5 34.5h-213v-320h127q28 0 50 22t33.5 55t17.5 64.5t6 57.5h17v-124.5v-173.5v-124h-17
q0 26 -6 57.5t-17.5 64.5t-33.5 55t-50 22h-127v-321h226q33 0 60.5 34.5t41 75t20.5 84.5h13v-216h-460q-45 -9 -85 -9q-121 0 -207.5 107t-86.5 258q0 150 86.5 256.5t207.5 106.5z" />
    <glyph glyph-name="oe" unicode="&#x153;" horiz-adv-x="854" 
d="M639 451q-65 -1 -105.5 -56.5t-40.5 -124.5h270q0 88 -33.5 134.5t-90.5 46.5zM270 455q-17 0 -27.5 -1t-31 -9t-32.5 -23t-22 -47t-10 -77v-129q0 -44 10 -76t22.5 -47.5t32 -24t31 -9.5t27.5 -1t26.5 1t30 9.5t31.5 23.5t22 47t10 77v129q0 53 -13 88t-35.5 48.5
t-37.5 17t-34 3.5zM269 473q46 0 93.5 -20.5t82.5 -58.5q67 79 187 79q87 0 133 -43q68 -64 70 -184h-342v-4q0 -116 40 -167t99 -56q34 -3 67.5 6.5t53.5 27.5q35 32 48 87h24q-13 -64 -56 -104q-47 -42 -137 -42q-120 0 -187 79q-35 -37 -82.5 -58t-93.5 -21
q-55 0 -108.5 27t-91.5 83.5t-38 128.5q0 107 75 173.5t163 66.5z" />
    <glyph glyph-name="Scaron" unicode="&#x160;" horiz-adv-x="567" 
d="M299 715q92 0 159 -50q41 -29 51 31h7l-5 -205h-11q-15 56 -36 96.5t-41 61.5t-45.5 33t-42.5 14.5t-40 2.5q-55 0 -93 -22t-50 -57q-12 -37 9.5 -78.5t78.5 -79.5q214 -140 217 -142q61 -40 77 -107.5t-21 -129.5q-33 -54 -87.5 -76t-156.5 -22q-115 0 -185 50
q-41 29 -51 -31h-7v226h17q19 -70 45 -117.5t57.5 -71t61 -32t65.5 -8.5q80 0 126 26.5t54 75.5q4 29 -1.5 51t-25.5 43.5t-37.5 35t-55.5 39.5q-12 9 -19 13q-150 103 -191 133q-123 90 -70 204q43 93 247 93zM291 740q-7 12 -10 16l-95 136h13l112 -102q3 -3 5 -4l4 4
l113 102h13l-96 -136l-10 -16h-49z" />
    <glyph glyph-name="scaron" unicode="&#x161;" horiz-adv-x="429" 
d="M218 588q-7 12 -10 16l-96 136h13l113 -102l4 -4q2 1 5 4l112 102h13l-95 -136l-10 -16h-49zM196 473q46 0 73.5 -8t61.5 -32q13 -13 23.5 -8t17.5 41h7l1 -137h-10q-34 125 -152 125q-38 0 -68 -18t-27 -62q1 -20 24 -39.5t49.5 -32.5t69 -33t63.5 -31q96 -53 74 -139
q-12 -45 -56 -75.5t-112 -30.5q-99 0 -155 39q-12 13 -23 8.5t-18 -40.5h-8v137h10q35 -124 174 -124q39 0 70.5 25.5t32.5 69.5q0 16 -9.5 31t-23.5 26t-38 24.5t-42.5 21.5t-48.5 20.5t-44 19.5q-64 29 -78.5 82.5t30 96.5t132.5 43z" />
    <glyph glyph-name="Ydieresis" unicode="&#x178;" horiz-adv-x="590" 
d="M267 837q17 0 28.5 -11.5t11.5 -28.5t-11.5 -28.5t-28.5 -11.5t-28.5 11.5t-11.5 28.5t11.5 28.5t28.5 11.5zM444 837q17 0 29 -12t12 -28q0 -30 -41 -40q-16 0 -28 11.5t-12 28.5t12 28.5t28 11.5zM404 7v-11h-218v11q58 0 58 37v288q-31 55 -93 164.5t-93 164.5
q-20 36 -58 36v12h204l3 -12h-10q-15 0 -29 -8t-7 -24l174 -307l186 320q5 11 -3.5 15t-27.5 4v10h100v-10q-29 0 -41 -19l-204 -349v-285q1 -37 59 -37z" />
    <glyph glyph-name="Zcaron" unicode="&#x17d;" horiz-adv-x="584" 
d="M256 740q-8 12 -11 16l-95 136h13l112 -102q3 -3 5 -4q2 1 5 4l112 102h13l-95 -136l-10 -16h-49zM49 708h531l-433 -689h268q47 0 78 60t44 133h12v-216h-526l431 688h-271q-47 0 -78 -60t-44 -133h-12v217z" />
    <glyph glyph-name="zcaron" unicode="&#x17e;" horiz-adv-x="453" 
d="M182 588q-7 12 -10 16l-96 136h13l113 -102l4 -4q2 1 5 4l113 102h13l-96 -136l-10 -16h-49zM47 456h397l-308 -440l168 -2q51 0 78 25.5t37 81.5h8v-126l-401 3l307 439h-151q-109 0 -128 -107h-7v126z" />
    <glyph glyph-name="endash" unicode="&#x2013;" horiz-adv-x="447" 
d="M51 263h345v-29h-345v29z" />
    <glyph glyph-name="emdash" unicode="&#x2014;" horiz-adv-x="569" 
d="M51 263h467v-29h-467v29z" />
    <glyph glyph-name="quoteleft" unicode="&#x2018;" horiz-adv-x="211" 
d="M113 516h-2h-1q-27 0 -43 21t-16 50q0 74 29.5 101t80.5 27v-9q-38 0 -58 -26.5t-15 -64.5q12 5 22 5q22 0 36.5 -15t14.5 -37q0 -20 -14 -36t-34 -16z" />
    <glyph glyph-name="quoteright" unicode="&#x2019;" horiz-adv-x="211" 
d="M161 644q0 -74 -29 -101t-80 -27l-1 9q39 0 59 26.5t15 64.5q-12 -5 -22 -5q-22 0 -37 15t-15 37q0 20 14.5 36t34.5 16h1h2q27 0 42.5 -21t15.5 -50z" />
    <glyph glyph-name="quotesinglbase" unicode="&#x201a;" horiz-adv-x="211" 
d="M161 35q0 -74 -29 -101t-80 -27l-1 9q39 0 59 26t15 64q-9 -4 -22 -4q-22 0 -37 15t-15 37q0 20 14.5 36t34.5 16h1h2q27 0 42.5 -21t15.5 -50z" />
    <glyph glyph-name="quotereversed" unicode="&#x201b;" horiz-adv-x="211" 
d="M113 730h-2h-1q-27 0 -43 21t-16 50q0 74 29.5 101t80.5 27v-9q-38 0 -58 -26.5t-15 -64.5q12 5 22 5q22 0 36.5 -15t14.5 -37q0 -20 -14 -36t-34 -16z" />
    <glyph glyph-name="quotedblleft" unicode="&#x201c;" horiz-adv-x="365" 
d="M267 516h-2h-2q-27 0 -42.5 21t-15.5 50q0 74 29.5 101t80.5 27v-9q-38 0 -58 -26.5t-15 -64.5q12 5 21 5q22 0 37 -15t15 -37q0 -20 -14 -36t-34 -16zM113 516h-2h-1q-27 0 -43 21t-16 50q0 74 29.5 101t80.5 27v-9q-38 0 -58 -26.5t-15 -64.5q12 5 22 5q22 0 36.5 -15
t14.5 -37q0 -20 -14 -36t-34 -16z" />
    <glyph glyph-name="quotedblright" unicode="&#x201d;" horiz-adv-x="365" 
d="M315 644q0 -74 -29.5 -101t-80.5 -27v9q38 0 58 26.5t15 64.5q-12 -5 -21 -5q-22 0 -37 15t-15 37q0 20 14 36t34 16h2h2q27 0 42.5 -21t15.5 -50zM161 644q0 -74 -29 -101t-80 -27l-1 9q39 0 59 26.5t15 64.5q-12 -5 -22 -5q-22 0 -37 15t-15 37q0 20 14.5 36t34.5 16h1
h2q27 0 42.5 -21t15.5 -50z" />
    <glyph glyph-name="quotedblbase" unicode="&#x201e;" horiz-adv-x="365" 
d="M315 35q0 -74 -29.5 -101t-80.5 -27v9q39 0 58.5 26t14.5 64q-9 -4 -21 -4q-22 0 -37 15t-15 37q0 20 14 36t34 16h2h2q27 0 42.5 -21t15.5 -50zM161 35q0 -74 -29 -101t-80 -27l-1 9q39 0 59 26t15 64q-9 -4 -22 -4q-22 0 -37 15t-15 37q0 20 14.5 36t34.5 16h1h2
q27 0 42.5 -21t15.5 -50z" />
    <glyph glyph-name="uni201F" unicode="&#x201f;" horiz-adv-x="365" 
d="M267 730h-2h-2q-27 0 -42.5 21t-15.5 50q0 74 29.5 101t80.5 27v-9q-38 0 -58 -26.5t-15 -64.5q12 5 21 5q22 0 37 -15t15 -37q0 -20 -14 -36t-34 -16zM113 730h-2h-1q-27 0 -43 21t-16 50q0 74 29.5 101t80.5 27v-9q-38 0 -58 -26.5t-15 -64.5q12 5 22 5q22 0 36.5 -15
t14.5 -37q0 -20 -14 -36t-34 -16z" />
    <glyph glyph-name="dagger" unicode="&#x2020;" horiz-adv-x="468" 
d="M235 715q28 0 22 -35l-18 -141l145 18q35 6 35 -22t-35 -22l-146 18q1 -80 24 -163q-23 -217 -25 -313h-4v1q-1 43 -7.5 121t-11.5 135l-6 56q21 75 24 163l-146 -18q-35 -6 -35 22t35 22l145 -18l-18 141q-6 35 22 35z" />
    <glyph glyph-name="bullet" unicode="&#x2022;" horiz-adv-x="205" 
d="M103 293q22 0 37 -15t15 -37t-15 -37t-37 -15t-37 15t-15 37t15 37t37 15z" />
    <glyph glyph-name="guilsinglleft" unicode="&#x2039;" horiz-adv-x="291" 
d="M241 371v-10l-126 -120l126 -119v-11q-31 20 -95 60.5t-95 60.5v19q32 20 95.5 60t94.5 60z" />
    <glyph glyph-name="guilsinglright" unicode="&#x203a;" horiz-adv-x="291" 
d="M51 371q32 -20 95.5 -60t94.5 -60v-19q-31 -20 -94.5 -60.5t-95.5 -60.5v11l126 119l-126 120v10z" />
    <glyph glyph-name="Euro" unicode="&#x20ac;" horiz-adv-x="645" 
d="M388 717q66 0 148 -52q40 -26 50 31h9l-6 -205h-12q-57 234 -225 202q-102 -19 -111 -264h259v-17h-259q-1 -22 -1 -61q0 -42 1 -64h259v-17h-259q8 -235 111 -263q159 -41 225 205h12l3 -124q-92 -102 -204 -102q-232 0 -261 284h-76v17h75q-3 32 -3 64q0 26 5 61h-77
v17h79q9 55 28 104t49 91.5t77 67.5t104 25z" />
    </font>
</defs>
</svg>
